<mxfile host="app.diagrams.net" modified="2023-02-15T13:09:16.408Z" agent="5.0 (Windows NT 10.0; Win64; x64) AppleWebKit/537.36 (KHTML, like Gecko) Chrome/110.0.0.0 Safari/537.36" etag="L-T8idk0GNT0ko2YLZUv" version="20.8.20" type="github">
  <diagram name="Page-1" id="4Q6GGxO_L6uNxuPa9nOd">
    <mxGraphModel dx="1221" dy="668" grid="1" gridSize="10" guides="1" tooltips="1" connect="1" arrows="1" fold="1" page="1" pageScale="1" pageWidth="850" pageHeight="1100" math="0" shadow="0">
      <root>
        <mxCell id="0" />
        <mxCell id="1" parent="0" />
        <mxCell id="k85bz9Jub81MBLHS7Vki-1" value="API" style="shape=image;imageAspect=0;aspect=fixed;verticalLabelPosition=bottom;verticalAlign=top;image=data:image/png,iVBORw0KGgoAAAANSUhEUgAADawAAANrCAYAAAAQoD5OAAAABHNCSVQICAgIfAhkiAAAAAlwSFlzAAGunAABrpwB7VG6KAAAABl0RVh0U29mdHdhcmUAd3d3Lmlua3NjYXBlLm9yZ5vuPBoAACAASURBVHic7N1/rOV5fd/35zkzs+yyyzKXgWAWMBhszI/6x5ohcgDHgHcgqSE1rknt1pDYyKhqnZBWjZHV1rrTKqmTqD+s/HRkW7Wr2m7rprS1o3oB/9FEqRScoY1Uqf/5D6So3t2592L3j6r23m//uHe8A+yy852d+/2ce87jIY3umTtnzn39e8/c57xXAQAAAABbZ6qLX6qXVF2oS0/XQ1V/UJcunT5+uu6b6sGqdb1oqhefPr5/qgdue7lLnf6dr7D3LJ976PT5t2950fr0tW+zqi4/y+6XVBe/4tP39+V77tSz7ZvrRX31dgAAAAAAYJzDdT12uW6MHrIrjurqcX2mZ/m3HQCArzTV9dXoEQAAAACwLZ6oh+6rS8f1knVdnOrhVV2oXvqHtV6d/CPeanUSUt0KttbVSzt53sOnL3V5dfLnnT5nVTU9E2DdHnvd+vt9xWsAAAAAAABsG7HawsRqAMAcU12/UvuCNQAAAAC23q1rY1M9/HS9+GK9+A9r70I9eHpV7CWncdl9nXy8OJ187tK6HprqvtXJc29d27p18euB08cv7uTPAAAAAAAAOBtitYWJ1QCAOW7FavXM/9IMAAAAABvji/XA/bV3qe5/uh5Y1d5x3b8+fVztTXX/dBKM7a2eCcj2Tn/d/vv7e+YyGQAAAAAAAOfP0XG9/+X1+dFDdsVhPTrVZ6uXjd4CAGy+Ve3v1fXbfg8AAAAA987v1P0P1uV1XV6d/G+Lf/Sxk3Ds1uf+6PHxlz/n0rDxAAAAAAAAbBqX1RbmshoAMMftl9VuEawBAAAA8GWmuvT/1N7/exqRfUV09keR2df4df+g6QAAAAAAAGwXsdrCxGoAwBzPFquVYA0AAABg632xHri/9ta1N9WrLtQj1d7xSXy2t65XTaefO/31x6oLIzcDAAAAAACw846O6/0vr8+PHrIrDuvRqT5bvWz0FgBg861qf6+uP8efAQAAAHCefLEeeEm96vg0MludhmhTPbJ6Jjrbq15Vvbp60ci9AAAAAAAAMJNYbWFiNQBgjq8Vq53+OQAAAACj/W698lK9snrN6vTjdPqxesWqXj7VKzoJ0QAAAAAAAGBbHa7rsct1Y/SQXXFUV4/rM9Xl0VsAgM031fUrtf+1niNYAwAAADhDR7X3dD0y1asunH6c6pH16cdOrqC9tro0eCoAAAAAAACM5rLawlxWAwDmeL7Larc9DwAAAIC5hGgAAAAAAABwT4nVFiZWAwDmuNNY7fS5AAAAANzu9+rlT5/EZq+tXjfVa04ff/3pr1dVFwdOBAAAAAAAgG1ysK5rl+vG6CG74qiuHtdnqsujtwAAm2+q61dq/06fL1gDAAAAdspUl750EqB9w9P1+k4jtHW99jRMe131wMiNAAAAAAAAsEPEagsTqwEAc8yN1UqwBgAAAGyho9qr3vB0vWFVb+j043Ty+OtzHQ0AAAAAAAA2wdFxvf/l9fnRQ3bFYT061Werl43eAgBsvlXt79X1u/h7AAAAAOfL/10P3ldvXNUbp/rGnnn8DdVrq/sGTwQAAAAAAAC+NpfVFuayGgAwx91cVrtFsAYAAABspOe5kvb6aj10IAAAAAAAAHC3XFZbmMtqAMAcd3tZ7ba/DwAAADDGVC86rDdN9abVMx/fXL0p/1ACAAAAAAAA28hltYW5rAYAzPFCLqvdIlgDAAAAztzNeu2FetPxSZT25lV9cydR2utyKQ0AAAAAAAB2hVhtYWI1AGCOexGrlWANAAAAuIeerEdW9dYL9bap3lq9rfrW6iWDpwEAAAAAAABjHR3X+19enx89ZFcc1qNTfbZ62egtAMDmW9X+Xl2/R68FAAAAMM9zhGnfVj00eBoAAAAAAACwecRqCxOrAQBz3MtY7fT1AAAAAJ7dUe0d19tW9fbbwrRHqxcPngYAAAAAAACcD2K1hYnVAIA57nWsdvqaAAAAwK6b6tJBvanTKG1Vbz99/IaxywAAAAAAAIBzTKy2MLEaADDHWcRqp68LAAAA7JLDuryq73i6Hl2dXEv79uqbq4uDpwEAAAAAAADb42Bd1y7XjdFDdsVRXT2uz1SXR28BADbfVNev1P5ZvLZgDQAAALbYUe0dn15Mm06upr29ekveEwAAAAAAAADOjstqC3NZDQCY46wuq932+gAAAMA2eLIeuVjvmOod1Xd0cj3t6wbPAgAAAAAAAHaLy2oLc1kNAJjjLC+r3SJYAwAAgHPoyXrJhfq2r7ic9tbRuwAAAAAAAICd5rLawlxWAwDmOOvLard9HQAAAGCT/U7d/3A9un7meto7qjfl+3oAAAAAAABgc7istjCX1QCAOZa4rHaLH2wDAACADfNkPXLh5GLau6p3d/L4/rGrAAAAAAAAAJ6Ty2oLc1kNAJhjqctqt309AAAAYJSpLh7UN6+eidPeVb1h8CwAAAAAAACAOyVWW5hYDQCYY+lY7fRrAgAAAEv5vbry9EmU9ien+s5cTwMAAAAAAADOr4N1XbtcN0YP2RVHdfW4PlNdHr0FANh8U12/UvtLf13BGgAAAJyhJ+rrLtR3Ve8+vaL2aLUePAsAAAAAAADghXJZbWEuqwEAc4y4rHbb1wYAAADulSfrkXW9a1WPVe+u3jp6EwAAAAAAAMA9JlZbmFgNAJhjZKx2+vUBAACAu3VUb3y63req91bvqV41eBIAAAAAAADAWTpY17XLdWP0kF1xVFeP6zPV5dFbAIDNN9X1K7U/coNgDQAAAGZ4or7uQn3X6QW1a9U3jN4EAAAAAAAAsBCX1RbmshoAMMfoy2q37QAAAACey+/XK/6gvrN6VyeR2nfk+2kAAAAAAABg94jVFiZWAwDm2JRYrfyAHQAAAHyZqS5+qb7t6frQqj6YQA0AAAAAAABArLYwsRoAMMcmxWrlB+4AAACgo3rDcT22qsem+kD18OhNAAAAAAAAABtCrLYwsRoAMMemxWolWAMAAGAHPVEPXaz3dnJB7QPV6wZPAgAAAAAAANhEYrWFidUAgDk2MVYrwRoAAAA74qjeMNWHqg9O9d3VpdGbAAAAAAAAADaYWG1hYjUAYI5NjdVKsAYAAMCW+mI98EC9a1UfWtX3VV8/ehMAAAAAAADAOSFWW5hYDQCYY5NjtRKsAQAAsEUO6/VTvX9Vj031p6uHRm8CAAAAAAAAOGfEagsTqwEAc2x6rFaCNQAAAM6xqVY36x3rkwtq/0r11tGbAAAAAAAAAM6xg3Vdu1w3Rg/ZFUd19bger/ZGbwEANt9U16/U/ugdz0ewBgAAwLky1YXD+hNTfWRV31+9ZvQmAAAAAAAAgC3gstrCXFYDAOY4D5fVbhGsAQAAsPH+Rb34/vqe6iPVh6rLgycBAAAAAAAAbBOx2sLEagDAHOcpVivBGgAAABvq9+rKH9SHT6+ova960ehNAAAAAAAAAFvoYF3XLteN0UN2xVFdPa7Hq73RWwCAzTfV9Su1P3rHHII1AAAANsaX6mXH9cHp5JLaB6pLozcBAAAAAAAAbDGX1RbmshoAMMd5u6x2i2ANAACAoURqAAAAAAAAAEOI1RYmVgMA5jivsVoJ1gAAABjg9+uP/UF9/1Q/sKr3VBdGbwIAAAAAAADYIQfruna5bowesiuO6upxPV7tjd4CAGy+qa5fqf3RO+6WYA0AAIBFfLEeeHF9cFUfyyU1AAAAAAAAgFFcVluYy2oAwBzn+bLaLYI1AAAAzsxULzqs91cfqT5cPTR4EgAAAAAAAMAuE6stTKwGAMyxDbFaCdYAAAC4x6ZaH9Y7p/rIqn6oesXoTQAAAAAAAACI1ZYmVgMA5tiWWK0EawAAANwjB/Utq/pzU/1g9erRewAAAAAAAAD4Iwfruna5bowesiuO6upxPV7tjd4CAGy+qa5fqf3RO+4VwRoAAAB37aj2jusj1ceqd43eAwAAAAAAAMBXcVltYS6rAQBzbNNltVsEawAAAMwy1X2H9YFVfXSq76sujd4EAAAAAAAAwLMSqy1MrAYAzLGNsVoJ1gAAALhDN+ttq/po9aPVK0bvAQAAAAAAAOBrEqstTKwGAMyxrbFaCdYAAAD4Gn6/XvH/1cdW9fHqLaP3AAAAAAAAAHBHDtZ17XLdGD1kVxzV1eN6vNobvQUA2HxTXb9S+6N3nBXBGgAAAF9mqvXNet+6Plb9QPXA6E0AAAAAAAAA3DGX1RbmshoAMMc2X1a7RbAGAABAVU/Wqy6cRGqfqN4weg8AAAAAAAAAs4nVFiZWAwDm2IVYrQRrAAAAO+3WNbUL9YmpPlxdHL0JAAAAAAAAgLsiVluYWA0AmGNXYrUSrAEAAOykp+rVq/qxVf1Y9cjoPQAAAAAAAAC8IAfruna5bowesiuO6upxPV7tjd4CAGy+qa5fqf3RO5YiWAMAANghB/XuVf3Fqb6vujR6DwAAAAAAAAAvmMtqC3NZDQCYY5cuq90iWAMAANhyN+vhVf1g9Reqf2n0HgAAAAAAAADuGbHawsRqAMAcuxirlWANAABgaz1Vb1nVv7mqH60eGr0HAAAAAAAAgHtKrLYwsRoAMMeuxmolWAMAANgqU108qH91VX+xeufoPQAAAAAAAACciYN1XbtcN0YP2RVHdfW4Hq/2Rm8BADbfVNev1P7oHaMI1gAAALbAQb10VX9+qn+3+vrRewAAAAAAAAA4My6rLcxlNQBgjl2+rHaLYA0AAOAc+1J90x/Wj6/q49WDo/cAAAAAAAAAcKbEagsTqwEAc4jVTgjWAAAAzpmpVjfre9b1yep7870dAAAAAAAAwC4Qqy1MrAYAzCFWe4YfagQAADgnvlgPPFgfq/5S9ebRewAAAAAAAABYzMG6rl2uG6OH7Iqjunpcj1d7o7cAAJtvqutXan/0jk0hWAMAANhwB/XSVf35qX6iemT0HgAAAAAAAAAW5bLawlxWAwDmcFntqwnWAAAANtRRfcPT9ZdW9fHqwdF7AAAAAAAAAFicWG1hYjUAYA6x2rMTrAEAAGyY0ze//53qh6qLo/cAAAAAAAAAMIRYbWFiNQBgDrHacxOsAQAAbICpVof1p6u/XL1n8BwAAAAAAAAAxjpY17XLdWP0kF1xVFeP6/Fqb/QWAGDzTXX9Su2P3rGpBGsAAAADTbU+rO+d6qdWdXX0HgAAAAAAAACGc1ltYS6rAQBzuKz2/ARrAAAAA0x16ah+aKqfrN48eg8AAAAAAAAAG0GstjCxGgAwh1jtzgjWAAAAFjTVfUf1g1P9h9U3jt4DAAAAAAAAwMYQqy1MrAYAzCFWu3OCNQAAgAU8UQ9dqo9P9ZerV4/eAwAAAAAAAMBGEastTKwGAMwhVptHsAYAAHCGDuqlq/rkVJ/Mm9wAAAAAAAAAfLWDdV27XDdGD9kVR3X1uB6v9kZvAQA231TXr9T+6B3niWANAADgDDxRD12sf7v6VN7gBgAAAAAAAODZuay2MJfVAIA5XFa7O4I1AACAe+i2UO0n8uY2AAAAAAAAAM9NrLYwsRoAMIdY7e4J1gAAAO4BoRoAAAAAAAAAM4jVFiZWAwDmEKu9MII1AACAF+CJeuhSfbz6yaleOXoPAAAAAAAAABtPrLYwsRoAMIdY7YUTrAEAANyFL9YDD9aPV5+qrozeAwAAAAAAAMC5cLCua5frxughu+Korh7X49Xe6C0AwOab6vqV2h+947wTrAEAAMww1aXD+pHqp6pXj94DAAAAAAAAwLnhstrCXFYDAOZwWe3eEawBAADcgalWB/UD1V9Z1TeN3gMAAAAAAADAuSJWW5hYDQCYQ6x2bwnWAAAAnsdT9di6/nr16OgtAAAAAAAAAJw7YrWFidUAgDnEaveeYA0AAOA53Kx3ruqvVt89egsAAAAAAAAA55JYbWFiNQBgDrHa2RCsAQAAfIWD+tbqr1V/avQWAAAAAAAAAM6tg3Vdu1w3Rg/ZFUd19bger/ZGbwEANt9U16/U/ugd20iwBgAAcOqpevW6fqr6eHVh9B4AAAAAAAAAzi2X1RbmshoAMIfLamdLsAYAAOy8J+qhC/XvreonqgdG7wEAAAAAAADgXBOrLUysBgDMIVY7e4I1AABgZ0116bB+ZFX/0VSvHL0HAAAAAAAAgHNPrLYwsRoAMIdYbRmCNQAAYCcd1Ieq/6z6xtFbAAAAAAAAANgKYrWFidUAgDnEassRrAEAADvlZr1zXf/5VH989BYAAAAAAAAAtsbBuq5drhujh+yKo7p6XI9Xe6O3AACbb6rrV2p/9I5dIVgDAAB2ws16zar+avXD+V4IAAAAAAAAgHvHZbWFuawGAMzhstry/JAmAACw1f5Fvfj++gvVf1A9NHoPAAAAAAAAAFtFrLYwsRoAMIdYbQzBGgAAsJWmWh3UD6zqb1SvG70HAAAAAAAAgK0jVluYWA0AmEOsNo5gDQAA2DpP1TvW9V9U7xy9BQAAAAAAAICtJFZbmFgNAJhDrDaWYA0AANgaN+u1q/rr1b+W73cAAAAAAAAAOBsH67p2uW6MHrIrjurqcT1e7Y3eAgBsvqmuX6n90Tt2mR/gBAAAzr2pLh3VvzXVf1y9ZPQeAAAAAAAAALaWy2oLc1kNAJjDZbXNIFgDAADOtaP6nuP6m9VbRm8BAAAAAAAAYKuJ1RYmVgMA5hCrbQ7BGgAAcC7drNeu6q9UHx29BQAAAAAAAICtd7Sua5frt0cP2RViNQBgDrHaZhGsAQAA58oX64EX16dW9anq/tF7AAAAAAAAANh6YrWFidUAgDnEaptHsAYAAJwbB/Wh6meqbxi9BQAAAAAAAICdIFZbmFgNAJhDrLaZLo4eAAAA8HyO6o3H9berD4zeAgAAAAAAAMDOOFjVY5frC6OH7Iqjunpcj1d7o7cAAJtvqusvE6ttpPXoAQAAAM9lqkuH9cnj+j8SqwEAAAAAAACwnKN1fWBPrLaYw3r0uH4zsRoAcAdWtX+l9kfv4NmtRg8AAAB4Nof1J6f6u9VbR28BAAAAAAAAYKccreva5frt0UN2xWE9OtVnq5eN3gIAbL5V7e+5rLbRBGsAAMBG+VK97On6T6ofy/csAAAAAAAAACxLrLYwsRoAMIdY7Xzww58AAMBGmGp1VB+d6j+tXj56DwAAAAAAAAA7R6y2MLEaADCHWO38EKwBAADDHda3TfX3qu8cvQUAAAAAAACAnXSwqsf26gujh+yKo7p6XI9Xe6O3AACbb6rrV2p/9A7ujGANAAAY5ov1wIvrU6v6yeq+0XsAAAAAAAAA2Ekuqy3MZTUAYA6X1c4fwRoAADDEQX1X9ferN4/eAgAAAAAAAMDOEqstTKwGAMwhVjufBGsAAMCiDuvyVH+t+rF8TwIAAAAAAADAOGK1hYnVAIA5xGrnlx8OBQAAFnNQH6r+bvXq0VsAAAAAAAAA2GlitYWJ1QCAOcRq59vF0QMAAIDt92Q9sq6/WX3/6C0AAAAAAAAA7Dyx2sLEagDAHGK18289egAAALC9plof1I9fqP9rJVYDAAAAAAAAYLyDVb1PrLaco7o61ecSqwEAd2Cq62K18281egAAALCdjuoNx/Vz1XtHbwEAAAAAAACAXFZbnMtqAMAcLqttDxfWAACAe+r0qtonjuufJ1YDAAAAAAAAYDOI1RYmVgMA5hCrbRcX1gAAgHvmqN54XD9ffffoLQAAAAAAAABwSqy2MLEaADCHWG37uLAGAAC8YFNdPKxPnl5VE6sBAAAAAAAAsCnEagsTqwEAc4jVtpMLawAAwAtys962rl+Y6o+P3gIAAAAAAAAAtxGrLUysBgDMIVbbXi6sAQAAd2Wqiwf176/qn4nVAAAAAAAAANgwB6t6n1htOUd1darPJVYDAO7AVNfFatvLhTUAAGC2p+otF+oXp3rH6C0AAAAAAAAA8BVcVluYy2oAwBwuq20/F9YAAIA7NtXqoD6xrs+L1QAAAAAAAADYQGK1hYnVAIA5xGq7wYU1AADgjhzW66f6heq9o7cAAAAAAAAAwLMQqy1MrAYAzCFW2x0urAEAAM/rsD421T9PrAYAAAAAAADAZhKrLUysBgDMIVbbLS6sAQAAz+mJ+rqL9bPVnxm9BQAAAAAAAACeg1htYWI1AGAOsdrucWENAAB4Vgf1r1+s/zOxGgAAAAAAAACb62BV7xOrLeeork71ucRqAMAdmOq6WG33uLAGAAB8mYN6afW3qh8evQUAAAAAAAAAvgaX1RbmshoAMIfLartLsAYAAPyRw3rvVL9YvXb0FgAAAAAAAAD4GsRqCxOrAQBziNV223r0AAAAYLypLt2s/dM3lsVqAAAAAAAAAGwysdrCxGoAwBxiNVxYAwCAHfdUvWVd/3X16OgtAAAAAAAAAPA8xGoLE6sBAHOI1SgX1gAAYGdNtTqoT6xP3sQXqwEAAAAAAACw6cRqCxOrAQBziNW4xYU1AADYQb9br7xUP1997+gtAAAAAAAAAHAHxGoLE6sBAHOI1bjdhdEDAACAZR3Wn1nXb1bfPnoLAAAAAAAAANyBg1V9z17dGD1kVxzVVbEaAHCnprr+MrEat1mPHgAAACxjqhfdrJ+Z6tPVy0fvAQAAAAAAAIA7cLSuD+zVF0YP2RWH9ejxyX+Euzd6CwCw+Va1f6X2R+9gs6xGDwAAAM7ek/WmC/Wr1aOjtwAAAAAAAADAHTpa17XL9dujh+yKw3rUZTUA4E6tan/PZTWehQtrAACw5Q7rYxfqnyVWAwAAAAAAAOD8EKstTKwGAMwhVuNrcWENAAC21BP10MX6O9VHR28BAAAAAAAAgBnEagsTqwEAc4jVeD6CNQAA2EJH9R1T/cpUbxq9BQAAAAAAAABmEKstTKwGAMwhVuNOrEcPAAAA7p2pVof1yeP6J2I1AAAAAAAAAM4ZsdrCxGoAwBxiNe6UC2sAALAlDuty9fen+sjoLQAAAAAAAAAwk1htYWI1AGAOsRpzCNYAAGAL3KzvXNWvVK8fvQUAAAAAAAAAZhKrLUysBgDMIVZjrvXoAQAAwN2ban1Yn1zV/5pYDQAAAAAAAIDzR6y2MLEaADCHWI274cIaAACcU79br7xUv1S9f/QWAAAAAAAAALgLYrWFidUAgDnEatwtwRoAAJxDN+vauv6rqV45egsAAAAAAAAA3AWx2sLEagDAHGI1Xoj16AEAAMCdm+rSzdpf1f8iVgMAAAAAAADgnBKrLUysBgDMIVbjhXJhDQAAzokv1Tc9Xb9SvX30FgAAAAAAAAC4SweremyvvjB6yK44qqvH9Xi1N3oLALD5prp+pfZH7+B8E6wBAMA5cFAfqn6pujx6CwAAAAAAAADcJZfVFuayGgAwh8tq3Cvr0QMAAIDnNtWFmyf/U8mnE6sBAAAAAAAAcH6J1RYmVgMA5hCrcS+5sAYAABvq9+sVf1i/PNVjo7cAAAAAAAAAwAsgVluYWA0AmEOsxr0mWAMAgA10UO+u/pvqkdFbAAAAAAAAAOAFEKstTKwGAMwhVuMsrEcPAAAAvtxBfaL6rcRqAAAAAAAAAJxvYrWFidUAgDnEapwVF9YAAGBDPFkvuVA/V/3Z0VsAAAAAAAAA4AUSqy1MrAYAzCFW4ywJ1gAAYAM8VW9e169Vbxu9BQAAAAAAAABeILHawsRqAMAcYjXO2nr0AAAA2HUH9UPrkzfpxWoAAAAAAAAAnHditYWJ1QCAOcRqLEGwBgAAg0x18aB+uvrl6sHRewAAAAAAAADgBRKrLUysBgDMIVZjKavRAwAAYBfdrNes6r+t/sToLQAAAAAAAABwD4jVFiZWAwDmEKuxJBfWAABgYYf1nvXJG/RiNQAAAAAAAAC2gVhtYWI1AGAOsRpLE6wBAMBCplod1Kem+uxUrxy9BwAAAAAAAADuAbHawsRqAMAcYjVGWI0eAAAAu+BmPVz9l6v68OgtAAAAAAAAAHCPiNUWJlYDAOYQqzGKYA0AAM7YYX37VL9WvXH0FgAAAAAAAAC4R8RqCxOrAQBziNUYaT16AAAAbLPD+thU/1tiNQAAAAAAAAC2x81VvU+stpyjujrV5xKrAQB3YKrrYjVGEqwBAMAZmOrCQf30VL9Y3T96DwAAAAAAAADcI0fr+lN79YXRQ3bFYT16XL9Z7Y3eAgBsvlXtX6n90TvYbavRAwAAYNt8qV52XL861bXRWwAAAAAAAADgHjpa1zWX1ZZzWI9O9dlcVgMA7sCq9l1WYxMI1gAA4B46qG+pPl29YfQWAAAAAAAAALiHxGoLE6sBAHOI1dgk69EDAABgWxzUB6t/nFgNAAAAAAAAgO0iVluYWA0AmEOsxqYRrAEAwAs01eqgPlX9j9XDo/cAAAAAAAAAwD0kVluYWA0AmEOsxiZajR4AAADn2RP10IX6pVV9ePQWAAAAAAAAALjHxGoLE6sBAHOI1dhUgjUAALhLX6pvfLo+Xb1t9BYAAAAAAAAAuMfEagsTqwEAc4jV2GTr0QMAAOA8ulkfeLr+aWI1AAAAAAAAALaPWG1hYjUAYA6xGptOsAYAADMd1CdW9evV3ugtAAAAAAAAAHCPidUWJlYDAOYQq3EeXBw9AAAAzovfqfsfrr9X/bnRWwAAAAAAAADgDIjVFiZWAwDmEKtxXqxGDwAAgPPgqXr1hfofpnrH6C0AAAAAAAAAcAbEagsTqwEAc4jVOE8EawAA8DwO6l3Vr1VfN3oLAAAAAAAAAJwBsdrCxGoAwBxiNc6b9egBAACwyQ7qE9VvJVYDAAAAAAAAYDuJ1RYmVgMA5hCrcR4J1gAA4FlMdfFm/Uz1s9V9o/cAAAAAAAAAwBkQqy1MrAYAzCFW47xajR4AAACb5vfrFX9Q/331XaO3AAAAAAAAAMAZubmqa3v1hdFDdsVRvf24PlPtjd4CAGy+qa5fqf3RO+BuCNYAAOA2X6pvOq5fn+pNo7cAAAAAAAAAwBlxWW1hLqsBAHO4rMZ5tx49AAAANsXNejhkkgAAIABJREFUuvZ0/VOxGgAAAAAAAABbTKy2MLEaADCHWI1tIFgDAIDqoD6xqt+oLo/eAgAAAAAAAABnRKy2MLEaADCHWI1tIVgDAGCnTXXhoH66+tnq0ug9AAAAAAAAAHBGxGoLE6sBAHOI1dgmq9EDAABglCfqoYv1y9WHRm8BAAAAAAAAgDMkVluYWA0AmEOsxrYRrAEAsJNu1mtW9T9Vj47eAgAAAAAAAABnSKy2MLEaADCHWI1ttB49AAAAlnazvnN98ka8WA0AAAAAAACAbSZWW5hYDQCYQ6zGthKsAQCwU27Wn13Vb031ytFbAAAAAAAAAOAMidUWJlYDAOYQq7HNBGsAAOyEqVYH9alV/Wr1wOg9AAAAAAAAAHCGxGoLE6sBAHOI1dh2q9EDAADgrE31osP6ueqHR28BAAAAAAAAgDMmVluYWA0AmEOsxi4QrAEAsNV+r17+h/UPqu8avQUAAAAAAAAAzphYbWFiNQBgDrEau0KwBgDA1jqob6n+5+p1o7cAAAAAAAAAwBkTqy1MrAYAzCFWY5esRw8AAICzcLM+UP2jxGoAAAAAAAAAbD+x2sLEagDAHGI1do1gDQCArXNQn1jVr1cvHb0FAAAAAAAAAM6YWG1hYjUAYA6xGrtIsAYAwNaY6uJB/a3qZ6uLo/cAAAAAAAAAwBkTqy1MrAYAzCFWY1etRg8AAIB74aBeuqpfm+qx0VsAAAAAAAAAYAE3V/XYXv3vo4fsiqN6+3F9ptobvQUA2HxTXb9S+6N3wAiCNQAAzr0n65EL9RvVt4/eAgAAAAAAAAALcFltYS6rAQBzuKzGrhOsAQBwrh3Ut3QSq7129BYAAAAAAAAAWIBYbWFiNQBgDrEa1Hr0AAAAuFtP1WPVP06sBgAAAAAAAMBuEKstTKwGAMwhVoMTgjUAAM6lw/qRdf3D6uHRWwAAAAAAAABgAWK1hYnVAIA5xGrwDMEaAADnylSrm7U/1S9Ul0bvAQAAAAAAAIAFiNUWJlYDAOYQq8GXW40eAAAAd2qq+w7r56sfHr0FAAAAAAAAABYiVluYWA0AmEOsBl9NsAYAwLnwZL3kQv131QdGbwEAAAAAAACAhYjVFiZWAwDmEKvBsxOsAQCw8Z6qV6/rN6pvG70FAAAAAAAAABYiVluYWA0AmEOsBs9NsAYAwEY7qG/tJFZ7zegtAAAAAAAAALAQsdrCxGoAwBxiNfja1qMHAADAc7lZ16p/lFgNAAAAAAAAgN0hVluYWA0AmEOsBs9PsAYAwEa6WT+6Orms9vDoLQAAAAAAAACwELHawsRqAMAcYjW4M4I1AAA2ylSrm7W/qp+vLo3eAwAAAAAAAAALEastTKwGAMwhVoM7txo9AAAAbpnqvsP6herfGL0FAAAAAAAAABYkVluYWA0AmEOsBvMI1gAA2AhHtXdc/6B6z+gtAAAAAAAAALAgsdrCxGoAwBxiNZhPsAYAwHCH9fqp/mH1ltFbAAAAAAAAAGBBYrWFidUAgDnEanB3BGsAAAx1UN/aSaz26tFbAAAAAAAAAGBBYrWFidUAgDnEanD31qMHAACwuw7qX67+SWI1AAAAAAAAAHbLzVW9V6y2nKN6+1SfS6wGANyBqa6L1eDuCdYAABjisD5afbp6cPQWAAAAAAAA/n/27j3K8/uu7/vzN7uSZevinV3JVy62ibmYclEWGu40sY2dNAk9AVJIuKQ5kBQScFpCadMEtEBSDCExEOq2gWLuF4PjgI0v2CIkdpKGujXkYJ/THGROXXyRvDMry7ZkSzvf/vEb2bLjy361u9/Pb+b3eJwzZ347szP7kv7Z0e/8nnoDsKALO/Xs3Xr96CHbYr9uPahXVrujtwAAm29Vt52p20bvgKNMsAYAwOL26zlT/VR1zegtAAAAAAAAALCgCzv1TJfVlrNft071qlxWAwAuwapuc1kNLp9gDQCAxUy12qsfnOp51Wr0HgAAAAAAAABYkFhtYWI1AGAOsRpcOV4kDADAIqa6dn99Ve2rR28BAAAAAAAAgIWJ1RYmVgMA5hCrwZUlWAMA4Kq7s244Wb9SPWv0FgAAAAAAAABYmFhtYWI1AGAOsRpceYI1AACuqjvrcSfrpdUfH70FAAAAAAAAABYmVluYWA0AmEOsBlfHidEDAAA4vi7UU6pXr+o/Gb0FAAAAAAAAABYmVluYWA0AmEOsBlfPzugBAAAcTxfqcy7Wv1nVU0dvAQAAAAAAAICFidUWJlYDAOYQq8HVJVgDAOCKu1BPP6jbV/WY0VsAAAAAAAAAYGFitYWJ1QCAOcRqcPUJ1gAAuKL26msP6mXVjaO3AAAAAAAAAMDCxGoLE6sBAHOI1WAZgjUAAK6Y/XpO9VPVNaO3AAAAAAAAAMDCxGoLE6sBAHOI1WA5gjUAAC7bVKu9eu5Uz8vPmAAAAAAAAABsH7HawsRqAMAcYjVY1mr0AAAAjraprt2vn6z+0ugtAAAAAAAAADCAWG1hYjUAYA6xGixPsAYAwMN2Z91wsl5YPXv0FgAAAAAAAAAYQKy2MLEaADCHWA3GODl6AAAAR9Pb67En66XV2dFbAAAAAAAAAGAAsdrCxGoAwBxiNRhHsAYAwGwX6skX6xXVU0dvAQAAAAAAAIABxGoLE6sBAHOI1WCsndEDAAA4Wi7U2Yv1b1diNQAAAAAAAAC2k1htYWI1AGAOsRqMJ1gDAOCSXainH9Rvreoxo7cAAAAAAAAAwADnV/UnxWrLuVBnp3p1YjUA4BJMdU6sBuMJ1gAAuCT79eUH9ZLqxtFbAAAAAAAAAGCACzv17N16/egh22K/bj2oV1a7o7cAAJtvVbedqdtG7wAEawAAXIL9+vqpfqW6bvQWAAAAAAAAABjgwk4902W15ezXrVO9KpfVAIBLsKrbXFaDzSFYAwDgo9qv50z1gurk6C0AAAAAAAAAMMC+WG1ZYjUAYA6xGmwewRoAAB/WVKu9+v6pnletRu8BAAAAAAAAgAH2d+rLxGrLEasBAHOI1WAzeeExAAD/kalO7Nfzq28avQUAAAAAAAAABhGrLUysBgDMIVaDzXVy9AAAADbLVNdeqJ+rvnL0FgAAAAAAAAAYRKy2MLEaADCHWA02mwtrAAC839vq+mvrRdWXjd4CAAAAAAAAAIOI1RYmVgMA5hCrweYTrAEAUNXddfpivbT6vNFbAAAAAAAAAGAQsdrCxGoAwBxiNTgaToweAADAeHfVE1o/+Xt29BYAAAAAAAAAGESstjCxGgAwh1gNjg4X1gAAttw76lN36hXVJ4zeAgAAAAAAAACDiNUWJlYDAOYQq8HR4sIaAMAWu7C+qPbq1hfWAAAAAAAAAGAbidUWJlYDAOYQq8HRszN6AAAAY+zXf3ZQt1e3jN4CAAAAAAAAAIOI1RYmVgMA5hCrwdEkWAMA2EL79eenell10+gtAAAAAAAAADCIWG1hYjUAYA6xGhxdgjUAgC2zX1831a9W143eAgAAAAAAAACDiNUWJlYDAOYQq8HRJlgDANgi+/VtU/1UdXL0FgAAAAAAAAAYRKy2MLEaADCHWA2OPsEaAMAWmGp1vm6b6oer1eg9AAAAAAAAADCIWG1hYjUAYA6xGhwPXqwMAHDMTXViv/7n6q+N3gIAAAAAAAAAA4nVFiZWAwDmEKvB8XFy9AAAAK6eqR5xoX6u+orRWwAAAAAAAABgoPOresapev3oIdviQp09qN+sdkdvAQA231TnTovV4NhwYQ0A4Jh6Sz3qunpR9azRWwAAAAAAAABgIJfVFuayGgAwh8tqcPwI1gAAjqG9enT10uoLR28BAAAAAAAAgIHEagsTqwEAc4jV4Hg6MXoAAABX1t3rJ3xfUX3+6C0AAAAAAAAAMJBYbWFiNQBgDrEaHF+CNQCAY+Suenx1e3Xr6C0AAAAAAAAAMJBYbWFiNQBgDrEaHG+r0QMAALgy9utJh0/8ftLoLQAAAAAAAAAwkFhtYWI1AGAOsRocfzujBwAAcPneUZ821WsSqwEAAAAAAACw3cRqCxOrAQBziNVgOwjWAACOuAt1dqd+u3ri6C0AAAAAAAAAMJBYbWFiNQBgDrEabA/BGgDAEbZXX3xQt1e3jN4CAAAAAAAAAAOJ1RYmVgMA5hCrwXYRrAEAHFEX6k9Vv1HdNHoLAAAAAAAAAAwkVluYWA0AmEOsBttHsAYAcATt158/qJdWN4zeAgAAAAAAAAADidUWJlYDAOYQq8F2EqwBABwxe/WXp/rV6rrRWwAAAAAAAABgILHawsRqAMAcYjXYXoI1AIAjZK++pfrp6uToLQAAAAAAAAAwkFhtYWI1AGAOsRpsN8EaAMARsVffWf1YfoYDAAAAAAAAYLuJ1RYmVgMA5hCrAavRAwAA+OimWu3Xc6vvGL0FAAAAAAAAAAYTqy1MrAYAzCFWA0qwBgCw0aZa7dXzVvVto7cAAAAAAAAAwGBitYWJ1QCAOcRqwIMEawAAG2qqE3v146v6K6O3AAAAAAAAAMBgYrWFidUAgDnEasBDCdYAADbQVNfu1S+s6i+M3gIAAAAAAAAAg4nVFiZWAwDmEKsBH0qwBgCwYd5W119bL6q+bPQWAAAAAAAAABhMrLYwsRoAMIdYDfhwTo4eAADAB+zXqaleWn3B6C0AAAAAAAAAMJhYbWGHsdpvJlYDAC6BWA34SARrAAAb4p665f56ZfXZo7cAAAAAAAAAwGDnV/WMU/X60UO2xYU6e7CO1XZHbwEANt9U506L1YCPYDV6AAAAdU895v56VfUZo7cAAAAAAAAAwGAuqy3sIZfVzozeAgBsPpfVgI/lxOgBAADb7u312OrVidUAAAAAAAAAQKy2MLEaADCHWA24FC6sAQAM9PZ67DXrWO3TR28BAAAAAAAAgMHEagsTqwEAc4jVgEslWAMAGOTOetzJdaz2tNFbAAAAAAAAAGAwsdrCxGoAwBxiNWAOwRoAwADn6+NXdXv1x0ZvAQAAAAAAAIDBxGoLE6sBAHOI1YC5BGsAAAvbq09oHat90ugtAAAAAAAAADCYWG1hYjUAYA6xGvBwCNYAABZ0GKv9VvWU0VsAAAAAAAAAYDCx2sLEagDAHGI14OHaGT0AAGBb7NcnVv8isRoAAAAAAAAAiNUWJlYDAOYQqwGXw4U1AIAF7NeTpvVltSeN3gIAAAAAAAAAg4nVFiZWAwDmEKsBl8uFNQCAq+zueupUr0msBgAAAAAAAABitYWJ1QCAOcRqwJVwYvQAAIDj7K765NaX1Z44egsAAAAAAAAADCZWW5hYDQCYQ6wGXCmr0QMAAI6ru+pTTtTt1RNGbwEAAAAAAACAwcRqCxOrAQBziNWAK0mwBgBwFbyjPnVnHas9fvQWAAAAAAAAABhMrLYwsRoAMIdYDbjSBGsAAFfYO+rTDmO1x43eAgAAAAAAAACDidUWJlYDAOYQqwFXw87oAQAAx8l+fdZO/cvEagAAAAAAAAAgVluYWA0AmEOsBlwtgjUAgCtkvz57qldVN4/eAgAAAAAAAACDidUWJlYDAOYQqwFX02r0AACA48CTvgAAAAAAAADwfmK1hXndAgAwh1gNuNpcWAMAuEwX6uzhZTVP+gIAAAAAAACw7cRqCxOrAQBziNWAJbiwBgBwGS7U2YP1k767o7cAAAAAAAAAwGBitYWJ1QCAOcRqwFJcWAMAeJjO1xcc1O2J1QAAAAAAAABArLYwsRoAMIdYDViSC2sAAA/DXn1h9bLqxtFbAAAAAAAAAGAwsdrCxGoAwBxiNWBpLqwBAMy0V1+cWA0AAAAAAAAASqy2OLEaADCHWA0YQbAGADDDfn1J9RuJ1QAAAAAAAABArLYwsRoAMIdYDRhFsAYAcIn260uneml1w+gtAAAAAAAAADCYWG1hYjUAYA6xGjCSYA0A4BKcry+b6mWJ1QAAAAAAAABArLYwsRoAMIdYDRhNsAYA8DGcr2ev6p9Xjxy9BQAAAAAAAAAGE6stTKwGAMwhVgM2wWr0AACATbZXf7p6UXXd6C0AAAAAAAAAMJhYbWFiNQBgDrEasCkEawAAH8Fe/ZnWsdojRm8BAAAAAAAAgMHEagsTqwEAc4jVgE2yM3oAAMAm2qs/m1gNAAAAAAAAAEqstjixGgAwh1gN2DSCNQCAD3G+vjKxGgAAAAAAAACUWG1xYjUAYA6xGrCJToweAACwSc7XV63q56trRm8BAAAAAAAAgMH2d+qZp+p1o4dsC7EaADCHWA3YVKvRAwAANsX5+our+rnq5OgtAAAAAAAAADCYWG1hYjUAYA6xGrDJdkYPAADYBHv11WI1AAAAAAAAAKjEaosTqwEAc4jVgE3nwhoAsPX26muqn6lOjN4CAAAAAAAAAIOJ1RYmVgMA5hCrAUeBC2sAwFY7X3+1+tnEagAAAAAAAAAgVluYWA0AmEOsBhwVgjUAYGudr29c1T/Nz0QAAAAAAAAAIFZbmFgNAJhDrAYcJV6cDQBspfP1Tav6X/PzEAAAAAAAAACI1RYmVgMA5hCrAUfNavQAAICl7dVfr56fn4UAAAAAAAAAQKy2MLEaADCHWA04ilwUAQC2yl7914nVAAAAAAAAAKDEaosTqwEAc4jVgKNKsAYAbI3z9d8mVgMAAAAAAACAEqstTqwGAMwhVgOOMsEaALAVzte3r+qHRu8AAAAAAAAAgA0gVluYWA0AmEOsBhx1gjUA4Njbq+9Y1T8cvQMAAAAAAAAANoBYbWFiNQBgDrEacBwI1gCAY22vvrP6gdE7AAAAAAAAAGADiNUWJlYDAOYQqwHHxWr0AACAq+UwVvv+0TsAAAAAAAAAYAOI1RYmVgMA5hCrAceJC2sAwLF0fv0fbWI1AAAAAAAAABCrLU6sBgDMIVYDjhsX1gCAY+d8fc+q/t7oHQAAAAAAAACwAcRqCxOrAQBziNWA40iwBgAcK3v1fdX/OHoHAAAAAAAAAGwAsdrCxGoAwBxiNeC4EqwBAMfGXv2D6n8YvQMAAAAAAAAANoBYbWFiNQBgDrEacJydHD0AAOByTbXaq39cPWf0FgAAAAAAAADYAGK1hYnVAIA5xGrAcefCGgBwpB3Gas9b1beN3gIAAAAAAAAAG0CstjCxGgAwh1gN2AaCNQDgyJpqtV8/Uv3N0VsAAAAAAAAAYAOI1RYmVgMA5hCrAdtCsAYAHEmHsdo/qb5l9BYAAAAAAAAA2ABitYWJ1QCAOcRqwDYRrAEAR85hrPZj1TeP3gIAAAAAAAAAG0CstjCxGgAwh1gN2DaCNQDgSJlqZ69+YlV/ZfQWAAAAAAAAANgAYrWFidUAgDnEasA2EqwBAEfGVCcOY7VvGL0FAAAAAAAAADaAWG1hYjUAYA6xGrCtBGsAwJEw1Yn9+snq60ZvAQAAAAAAAIANIFZbmFgNAJhDrAZsM8EaALDxDmO1F1RfO3oLAAAAAAAAAGwAsdrCxGoAwBxiNWDbCdYAgI12GKv9dPWXRm8BAAAAAAAAgA0gVluYWA0AmEOsBiBYAwA22FTX7NUvruovjN4CAAAAAAAAABtArLYwsRoAMIdYDWBNsAYAbKSprt2vX6r+i9FbAAAAAAAAAGADiNUWJlYDAOYQqwF8gGANANg4h7HaL1dfPnoLAAAAAAAAAGwAsdrCxGoAwBxiNYAPJlgDADbKYaz2K9WfG70FAAAAAAAAADaAWG1hYjUAYA6xGsB/TLAGAGyMN9cjr69/Vj1r9BYAAOCqeaC650Mfr+qB6QMfb6pppy489Aunet+q3v3Qjx3Uu1Z1/4f8Gfsf8nX3r+pdl7DtndXFS/vHeP/3PqjunvM1Vau676Dunft11T0n1//eAAAAANgS99dbb6m3jN6xLS7U2YN1rLY7egsAsPmmOnembhu9A2DTCNYAgI3wlnrUI+ufT/WM0VsAAOCYeTDCelfrsOs91Xur+1Z174MR2LT+Pe+spj4Qil04/PX7v8dU9+/UAxcP47IT9cDq8PH0kMcH9cDO4eP764FbHhKjAQAAAABsIrEaADCHWA3gIxOsAQDDva2uv6Z+bVV/avQWAAAY4MErY/vVfa0jsrtX66Ds3dU90/rj9xyGZfe1/vy9B3XfVPs7dd9O3buqux+o+07Uux+9/v0ucQEAAAAAXAKxGgAwh1gN4KMTrAEAQ72lHvWI+nWxGgAAR9R9rUOz/Wr/8GLZfdX+dPixnfXje1eHcdmDnzuo/Wvq3kfXhdX6ihkAAAAAAAPs163TOlY7M3oLALD5VnXbbp0bvQNgkwnWAIBh3lbXX1u/Xv3J0VsAANhqHxSd9ZCorMPg7KG/fjA2u7neKjQDAAAAADjaxGoAwBxiNYBLc3L0AABgO52vm1b1suoLRm8BAOBYmaa6a1V3tX5761R37dRdB/W2nXpHtTfV3sXae1ftPXkdrAEAAAAAsGUu1NmDday2O3oLALD5pjp3WqwGcElcWAMAFrdXj65eXn3e6C0AABwJ91Vvr95W3XUYpL11dfh4p952UHc+UHfdsv7cxcF7AQAAAADYcGI1AGCOqc6dqdtG7wA4KgRrAMCiDmO1V1R/YvQWAAA2wn3VW1oHaG+Z6o5VvfWg3nKi7ri/3npzvW1VB6OHAgAAAABwPOzXrdM6VjszegsAsPlWdduuy2oAs5wcPQAA2B4XavdivXJVnzN6CwAAizg/1ZtW9f9Vb67esqo/qt78QL31/nrzE+o9gzcCAAAAALBFXFYDAOaY6txpsRrAbC6sAQCLuFC7U71iqs8dvQUAgCvmvdUfreqOqe7o8P2J9fs/2K0LowcCAAAAAMCDXFYDAOZwWQ3g4XNhDQC46t5ZNz9Qr6o+a/QWAABmeaD6w1W9aao3dfh+qj98RL3pxrpz9EAAAAAAALgULqsBAHO4rAZweVxYAwCuqnvqlvvXsdpnjt4CAMBHdKH6g1XdcVBvqH7/RN1xT73h4+ve0eMAAAAAAOByuKwGAMzhshrA5ROsAQBXzT31mMNY7TNGbwEAoAeq/3dVd0x1x6recLF+/2TdcaruGD0OAAAAAACuBrEaADCHWA3gyjg5egAAcDzdWY+7v26vPm30FgCALTO1jtJ+t/r3O/V7F+uNZ9YX1N43ehwAAAAAACzlQp09WMdqu6O3AACbb6pzp8VqAFeEC2sAwBX39nrsNetY7WmjtwAAHHPvrP5D9YZVvW6q1z1Qr39MvWv0MAAAAAAAGMllNQBgDpfVAK4swRoAcEXdWY87Wa9OrAYAcKW9tcMorfr96g2n642rOhi8CwAAAAAANopYDQCYQ6wGcOUJ1gCAK+Z8ffxqfVntj43eAgBwxL0/TlvV63bqNadqf/QoAAAAAADYdGI1AGAOsRrA1SFYAwCuiL36hNax2ieN3gIAcMTcU/3e4eW011ysf/WYetvoUQAAAAAAcNSI1QCAOcRqAFePYA0AuGyHsdpvVU8ZvQUAYMM9UP0/HcZpU732dL1xVQeDdwEAAAAAwJEmVgMA5hCrAVxdgjUA4LLs1ydO61jtyaO3AABsoHdXr69ec1Cvuqde8+S6b/QoAAAAAAA4TsRqAMAcYjWAq0+wBgA8bPv1pMNY7UmjtwAAbIh3rerfHtRrp3rNmfqXq3rf6FEAAAAAAHBcidUAgDnEagDLEKwBAA/L3fXUi+tY7YmjtwAADHRX9X9Ur9mpVz26/u9VHYweBQAAAAAA20CsBgDMIVYDWM7J0QMAgKPnHfWpF+vV1RNGbwEAWNi7Wv8c9Mqpfvt0vWFV0+hRAAAAAACwbS7U2YN1rLY7egsAsPmmOndarAawGBfWAIBZ7qpPOVG3J1YDALbHHVO9ZKpfP1P/alXvHT0IAAAAAAC2mctqAMAcLqsBLE+wBgBcsnfUp+6sY7XHj94CAHAVvav6F9WvT/WyM/XmwXsAAAAAAIBDYjUAYA6xGsAYJ0cPAACOhr36zOpV1S2jtwAAXGEHq/o/D+rl1ctP179b1cXRowAAAAAAgA92oc4erGO13dFbAIDNN9W502I1gCFcWAMAPqb9+qxpHavdPHoLAMAVcl/1m6t60Yl6yU31jtGDAAAAAACAj0ysBgDMMdW5M3Xb6B0A20qwBgB8VPv12dP6CV+xGgBw1L2nun1VLzyoF5+pd44eBAAAAAAAfGz7devhaxfOjN4CAGy+Vd2267IawFCCNQDgI/KELwBwDOxVL61euFuvXNV7Rw8CAAAAAAAundcuAABziNUANoNgDQD4sDzhCwAcYW+uXla9ZLdevqr7Rw8CAAAAAADm89oFAGAOsRrA5jg5egAAsHneUf/pVK+oTo3eAgBwKVb19oP6xal+/kz9zqqm0ZsAAAAAAICH70KdPVjHarujtwAAm2+qc6fFagAbw4U1AOCDHD7h+8rq9OgtAAAfw33Vq6b66dP1YpfUAAAAAADgeHBZDQCYw2U1gM0jWAMA3u98ff6qXl7dNHoLAMBHcFD9m+qnL9Yv3FL3jB4EAAAAAABcOWI1AGAOsRrAZhKsAQBVna8vWNXLEqsBAJvpDVO9cKdesFt/OHoMAAAAAABw5YnVAIA5xGoAm+vk6AEAwHh79UXVb1Q3jt4CAPAQb6t+tvqZ0/V7o8cAAAAAAABXz4U6e7CO1XZHbwEANt9U506L1QA2lgtrALDlxGoAwAZ67VQ/fLpevKr7R48BAAAAAACuLpfVAIA5XFYD2HyCNQDYYnv1xa1jtRtGbwEAtt6F6pen+pEz9fujxwAAAAAAAMsQqwEAc4jVAI4GwRoAbKn9+pKpXppYDQAY63XV/3Zf/ewT6j2jxwAAAAAAAMsRqwEAc4jVAI4OwRoAbKH9+tKpXpJYDQAY453VL1Y/drp+b/QYAAAAAABgeWI1AGAOsRrA0XJy9AAAYFnn68umenH1yNFbAICt83+t6p/cW7/kmhoAAAAAAGyvC3X2YB2r7Y7eAgBsvqnOnRarARwpLqwBwBY5X8+TaVXGAAAgAElEQVRa1T9LrAYALGda1aun+pHdesmqptGDAAAAAACAcVxWAwDmcFkN4GhyYQ0AtsT5evZhrHbd6C0AwFZ4X/VLUz33dP3+6DEAAAAAAMB4YjUAYA6xGsDR5cIaAGyBvfrT1YsSqwEAV9/dU/3UVD9wc/3R6DEAAAAAAMBmEKsBAHOI1QCONsEaABxzYjUAYCF3rOpH3ls//rh69+gxAAAAAADA5hCrAQBziNUAjr6TowcAAFfPfn35VL9cXTt6CwBwbP3rVf3QqXrxqg5GjwEAAAAAADbLhTp7sI7VdkdvAQA231TnTovVAI48F9YA4Jjaq/+8+tXqEaO3AADH0mur556uXx89BAAAAAAA2EwuqwEAc7isBnB8uLAGAMfQ+fqK6heqa0ZvAQCOHaEaAAAAAADwMYnVAIA5xGoAx4sLawBwzJyvr1zVzydWAwCurNfu1HefqlePHgIAAAAAAGw2sRoAMIdYDeD4EawBwDFyvr7qMFZzRRUAuFKEagAAAAAAwCUTqwEAc4jVAI4nwRoAHBPn6y+u6ucSqwEAV8Zrd+q7TtXto4cAAAAAAABHg1gNAJhDrAZwfHlBOwAcA3v1tdULqhODpwAAR9xUt6/qu0/Xa0ZvAQAAAAAAjo4LdfZgHavtjt4CAGy+qc6dFqsBHFsurAHAEbdXX139TEJ0AODyvHGq7z5TLxw9BAAAAAAAOFpcVgMA5nBZDeD4E6wBwBG2V1/TOlZzWQ0AeLj+qPqe3fqJVV0cPQYAAAAAADhaxGoAwBxiNYDt4BILABxR5+uvVv+02hm9BQA4kt411Q+9p5778XXv6DEAAAAAAMDRI1YDAOYQqwFsD8EaABxB5+ubVvW/JFYDAOZ731TPv6a+76Z6x+gxAJfrfN104vDq9Ik6ebFufPBzB3X9Tl17+MvVA3Xqwc/t1HVTPfIh3+rRq4f8N9aqHjHVoz70z5vqhlVd82GmnFp/2Qes1s+/3vihv3Gq61Yf/GfPcdN0+Ve2H1U94jK/x7XV9Zf5PQAAAACupPMn6s88uv7D6CHb4kKdPVjHarujtwAAm2+qc6fFagBbY/WxfwsAsEn26q9Xz8/f4wDAPFP1yzv1d07VHaPHAEfXfp06UScO6tEP1LUn6/qDeuRBXXeibjioax4aak1146pOruqaqW44/DY3Vienumbn8GNT3bSqE9NDQqgHP9YHx1GP6MOEZAAAAABstfOrevpu/e7oIdtCrAYAzDHVuTN12+gdACzHC90B4AjZq2+ufix/hwMA8/z2QX3HzfU7o4cAV9dUq7vr1MW6YarrT64jr1NTXT+tH99YPbp1AHbjQy59Xb+qa6d69FQnVutrYde0jskeWV13+PjDXRYDAAAAgJHEagsTqwEAc4jVALaTF7sDwBGxV3+j+tH8/Q0AXLo3T/XtZ+qFo4cAH92ddcOJOnUYiu12+HhaB2Y3tg7Jrt9ZR2c3TXVT68fXtw7Qbjx87PIYAAAAANtErLYwsRoAMIdYDWB7ecE7ABwB+/VtUz0vf3cDAJfmvdU/el/9/cfVu0ePgW0w1cm76uadD0Rnp1aH4dlD3x76semDP39y1HYAAAAAOKLEagsTqwEAc4jVALabF70DwIbbr7811T/K39sAwCWY6tVTfevN9cbRW+Aoe3M98rra3andqR5/op5Q7R6sX4ixu1q/PX46/Hj1mOrE0NEAAAAAsD32d+qZp+p1o4dsi/26dVrHamdGbwEANt+qbtutc6N3ADCOF74DwAY7X9++qn84egcAcCS8aVV/a7d+bfQQ2FRvr8desw7LPm5Vj60+blq/PzPVY1Z1S3Vz6xdcPGLkVgAAAADgI3JZbWEuqwEAc7isBkAJ1gBgY4nVAIBLdO9UP/DO+v4n132jx8AIF2r3Yj3hwUto0+Hls50PXEB7fPVx1bWDpwIAAAAAl8dltYW5rAYAzOGyGgAPEqwBwAbaq++svn/0DgBg4714Vf/Nbv3h6CFwtdxTt1ysT5zqEw7qE6tPXNWTpnriah2jPaY6OXgmAAAAAHD1uay2MJfVAIA5XFYD4KEEawCwYfbq71R/f/QOAGCj/cFUf/NMvXz0ELgcU53Yqyes1iHak6pPaP34wfdPqh45bCAAAAAAsCnEagsTqwEAc4jVAPhQgjUA2CD79Xen+t7ROwCAjXVxVc+7t77rCfWe0WPgUtxZN1xTTz2op67qqdP6/ZNbR2kfl+toAAAAAMBHJ1ZbmFgNAJhDrAbAhyNYA4ANsVffWX3/6B0AwMb69wf1jTfXvxs9BD7UVNfcXR//QD1lp54y1afv1NOmekrrK2k7gycCAAAAAEfT/k4981S9bvSQbbFft07rWO3M6C0AwOZb1W27dW70DgA2j2ANADbA+fqeVf290TsAgI10X/W9u/WDq7p/9Bi22349aapPW9UnT/XJD15Ma30tTZQGAAAAAFxJLqstzGU1AGAOl9UA+GgEawAw2Pk6t6rvGr0DANhIrz2ob7q53jh6CNvlQu0e1Ke3vpL24LW0z65uHr0NAAAAANgKLqstzGU1AGAOl9UA+FgEawAw0Pn63lX93dE7AICN885Vfdep+tFVHYwew/E11bV79dSdOjvV0zqM1KqnDJ4GAAAAAGwvsdrCxGoAwBxiNQAuhWANAAbZq+dW/93oHQDAxvm1g/qWm+uPRg/heHlHPfFEfe5BnV3VZ7R+e1K1M3YZAAAAAMD7nV/V03frd0cP2RYX6uzBOlbbHb0FANh8U507U7eN3gHA5hOsAcAAe/WD1d8evQMA2BxT3Vl965n65dFbOPreWTffX5+zU5871edUn1s9fvQuAAAAAICPQqy2MLEaADCHWA2AOQRrALCwvfqfqv9+9A4AYKO87GJ94y31ltFDOHrurBtO1mev6uxUZ1u/fVqe9wEAAAAAjo79nXrmqXrd6CHbYr9undax2pnRWwCAzbeq23br3OgdABwdJ0cPAIBtMdVqr/5x9ZzRWwCAjfHOVT1nt14weghHw1QnLtRnVl80ra+mfU71KdXONHYaAAAAAMDDdX5VTz/lstpiXFYDAOaY6txpsRoAM/k/bQPAAg5jteet6ttGbwEANsa/3qmvP1V/MHoIm2uqk3fXZ031RdUXTvX06vToXQAAAAAAV4jLagtzWQ0AmMNlNQAeLsEaAFxlU63264erbx29BQDYCPe1fkL3B1d1MHoMm+Ut9ajr6o9XX9g6UvuS6qaxqwAAAAAArgqx2sLEagDAHGI1AC6HYA0ArqLDWO1Hq78xegsAsBF+b1Vfv1u/O3oIm+GuunFVf2JVX7SzvqD2xdUjRu8CAAAAALjKxGoLE6sBAHOI1QC4XCdHDwCA42qqnf16fvXXRm8BAIZ7YKp/cLq+b1X3jx7DOFOd3K/Pq5491bNW62tqO4efAwAAAADYBudX9YxT9frRQ7bFhTp7sI7VdkdvAQA231TnTovVALhMLqwBwFVweFntx6pvHr0FABjujuobTtdrRg9hjLfXY6+tZ1V/dqpn5AUBAAAAAMD2clltYS6rAQBzuKwGwJXiwhoAXGFT7ezVj6/qvxq9BQAY7vnvrm//+Lp39BCW86a67qb6kp161lTPrp7mehoAAAAAgMtqS3NZDQCYw2U1AK4kF9YA4Aqa6sRe/cSqvmH0FgBgqP2pvulM/eroISzjrvrkk/Xsw0DtS6tHjd4EAAAAALBBzq/qGbtitcWI1QCAOaY6d6ZuG70DgONDsAYAV8hUJ/brf6++fvQWAGCcVf3Oqr76VN0xegtX1/n69OqrVvVV1dNG7wEAAAAA2FD7O/XMU/W60UO2xX7dOq1jtTOjtwAAm29Vt+26rAbAFXZy9AAAOA4OY7WfrL5u9BYAYJhpqh/drb+9qvtHj+HKm2rn7rr1Yv25nfqaqT559CYAAAAAgA0nVluYWA0AmEOsBsDV4sIaAFymw1jtBdXXjt4CAIwx1Z3VN5ypl4/ewpV1+LPe50/rS2pfUT1x9CYAAAAAgCNCrLYwsRoAMIdYDYCrSbAGAJfh8AXMP1X95dFbAIAxpnr1QX3dLfXW0Vu4MqZ6xPn64tX6ktp/OdVjR28CAAAAADhixGoLE6sBAHOI1QC42gRrAP8/e3f+pnle1/f++a3uGVCW6eoeligGTdzXAVyjUWccxgFEEUFwwwXFXdBoXI7nOt3J8VxiElzihttRNIgoLoCCjAxHoiYaNCRqPCbxcj0EmKmqHnGSANN9nx+qjK2y9N1V/f3Ufd+Px1/w+ml66r4/z/sNV2hR15yv5y7qCaO3AABDvLn6xu36Z1MtRo/hcBa1dVfdeLGeUn1ydb/RmwAAAAAAVtTOVDdv16tHD9kU5+sRF/djte3RWwCA429R587U2dE7AFhvgjUAuAKLuma3njfV40dvAQCG+JPq00/Xr44ewuHcWe891ZOn/VDt3UbvAQAAAABYcXtbdcupetXoIZvCZTUAYBkuqwEwl5OjBwDAqlnUtXv1E1M9bvQWAGB+i/rpqT7vdN01egtX5s/r+gv1adVnLepDRu8BAAAAAFgTO1PdfMpltdm4rAYALGNR506L1QCYiQtrALCEv4zVEqsBwCa6p/rG7fqWqRajx7CcRd1rr26Z9iO1T6quHb0JAAAAAGCNuKw2M5fVAIBluKwGwNwEawBwmQ4eOf9U9QmjtwAAs3vtVE/erl8ePYTl7NSHT/WU6knV6dF7AAAAAADW0M5UN2+7rDYbl9UAgGUs6tyZOjt6BwCb5eToAQCwCg4uqz0/sRoAbKJfuVBPekC9ZvQQLs8f1r1P1acu6iurG0bvAQAAAABYY3tbdespsdps9uphF+sXE6sBAJdhqrOnXVYDYAAX1gDg7Ti4rPaT1WNHbwEAZvd92/XlU71p9BDevrvqPS7UU6svyDU1AAAAAICrbW+rbjlVrxo9ZFPs1cMW+5fVzozeAgAcf1Od3RarATCIYA0A3oaDWO2nclkNADbNXyzq88/UT4wewtu2qK2dummrnl49Jp91AAAAAADMQaw2M7EaALAMsRoAo3nEBQBvxZ/WO9y3fm5Rjxy9BQCY1e9XTzhdvzN6CG/d6+pB19TnVF9cPXTwHAAAAACATSJWm5lYDQBYhlgNgOPg5OgBAHAcvabe8V71wkV93OgtAMCsnn9PPfWB9Rejh/CW7dVHL+pLqk+urh29BwAAAABgw+xMdfOpevXoIZvifD3i4n6stj16CwBw/C3q3GmxGgDHgAtrAPA3HMRqL5rqptFbAIDZ3FN943Z9y1SL0WP46xa1tVePqb6h+vDRewAAAAAANpTLajNzWQ0AWIbLagAcJ4I1ALjEa+s+19bPVx8zegsAMI9FvX6rnrhdrxy9hb9uUffaradUXzPVe4zeAwAAAACwwXamunnbZbXZuKwGACxjUefO1NnROwDgLwnWAODAQaz2ourG0VsAgNn8x6k+abv+aPQQ/srr677X1FMX9dXVQ0bvAQAAAADYcC6rzcxlNQBgGS6rAXAcCdYAoP8Vq724+tjRWwCAeUz1k2+sz31w3T16C/veUA98U33JVF+RX4wFAAAAADgOxGozE6sBAMsQqwFwXAnWANh4B7Haz1cfM3oLADCLRfUt2/UNU10cPYY6X+92oZ4x1RdU7zB6DwAAAAAAlVhtdmI1AGAZYjUAjjPBGgAbbbeuq15affjoLQDALN4w1Wdu1wtHD6F26v2m+t+rJ1QnRu8BAAAAAOB/2Znq5u169eghm+J8PeLifqy2PXoLAHD8LercmTo7egcAvDUnRw8AgFEOYrVfrD5s9BYAYBZ/sKhPOl2/O3rIpturhy7qG6qnJlQDAAAAADhu9rbq1lNitdns1cMu7r9fEKsBAG/XVGdPu6wGwDHnwhoAG2mvTi32L6uJ1QBgM7zymnrC/eqO0UM22U49pPqaqb6wutfoPQAAAAAA/C17W3XLqXrV6CGbYq8etti/rHZm9BYA4Pib6uy2WA2AFeDCGgAbZ69Otf/LZB86egsAMIvv264vm+rNo4dsqj+v6++pr66eXt179B4AAAAAAN4isdrMxGoAwDLEagCsEhfWANgoB7Hayxb1IaO3AABX3RsX9SVn6odGD9lUd9Xpe+orpvrK6v6j9wAAAAAA8FaJ1WYmVgMAliFWA2DVCNYA2BgHlz1uq24YvQUAuLqmet3F+uQz9W9Gb9lEd9T9TtZXLuqrqutG7wEAAAAA4G3amerm7Xr16CGb4nw94uL++4Xt0VsAgONvUefO1NnROwBgGYI1ADbCG+oBb65fqj5w9BYA4Kr7nakeu11/NHrIplnUtbv1ZVN9fXX96D0AAAAAALxdYrWZidUAgGWI1QBYVYI1ANbeQaz28uoDRm8BAK6uqW5b1BNP112jt2yaO+vmrfr26n1HbwEAAAAA4LLsbdUtp+pVo4dsir162GI/VjszegsAcPxNdXa7zo3eAQBX4uToAQBwNb2hHnhwWU2sBgDr7/tP1ZdO9ebRQzbJnfXeW/Ws6lGjtwAAAAAAcNnEajMTqwEAyxCrAbDqtkYPAICr5SBWc1kNANbfherrTtfTxGrzuatO79S3b9VvJ1YDAAAAAFglYrWZidUAgGWI1QBYB9PoAQBwNbyuHnTNfqz2fqO3AABX1V9M9Rnb9cLRQzbFoq7Zq8+tvqm6fvQeAAAAAACWIlabmVgNAFiGWA2AdSFYA2DtHMRqt1fvO3oLAHBV/X9b9Ymn6rdGD9kUd9bNW/Vt+VEAAAAAAIBVJFab2V7dsKhfSqwGAFwGsRoA6+Tk6AEAcJReXw8+uX9ZTawGAOvt1Yt67Kn6s9FDNsEd9V4n6l9Ujxm9BQAAAACAKyJWm5lYDQBYhlgNgHWzNXoAAByVnXrIyfrXidUAYK1N9YL/WR95Rqx21b227rNX//xE/U5iNQAAAACAVbUz1U1itfmcr0cs6vbEagDAZVjUObEaAOtmGj0AAI7CTr3LtP9h77uP3gIAXD2L+o7T9ZVTXRy9Zd3t1qOr76redfAUAAAAAACunMtqM3NZDQBYhstqAKyrk6MHAMBh7dVDD36Z7O+N3gIAXDX3LOqLz9QPjB6y7u6ov3Oyvn1RTxy9BQAAAACAQ9mZ6uZT9erRQzbF+XrExbqt2h69BQA4/hZ17rRYDYA15cIaACttt/5u9YrEagCwzu6unny6Xjx6yDpb1HS+PmtR31qdHr0HAAAAAIBDcVltZi6rAQDLcFkNgHUnWANgZR1cVntF9W6jtwAAV8dUr5vqE3yhfnXt1gdUz64+YvQWAAAAAAAOTaw2M7EaALAMsRoAm+Dk6AEAcCXEagCwEf5gqx51Xf2X0UPW1Z/WO7xjfW319dW1o/cAAAAAAHBoYrWZidUAgGWI1QDYFC6sAbBy9updD2K1dx29BQC4an79mnrs/eqO0UPW1V7dWH3vot5z9BYAAAAAAI6EWG1mYjUAYBliNQA2ydboAQCwjLvqPRb1K4nVAGBtLeqn764bxWpXx/na3q0fXdTtYjUAAAAAgLWxM9VNYrX5nK9HLOr2xGoAwGVY1DmxGgCbxIU1AFbGHfWeJ/Y/7H3n0VsAgKvmX27XM6a6OHrIOtqpW6b6weoho7cAAAAAAHBkXFabmctqAMAyXFYDYBO5sAbASrij3utEvSKxGgCsq8Wizp2urxCrHb3X1Dvu1LdP9dLEagAAAAAA60SsNjOxGgCwDLEaAJvKhTUAjr2DWO326p1GbwEAroo3VZ97up47esg62ql/UP3wVO8xegsAAAAAAEdKrDYzsRoAsAyxGgCbzIU1AI61O+u9Dy6ridUAYD2dn+oWsdrR+8O6925981SvFKsBAAAAAKwdsdrMxGoAwDLEagBsupOjBwDAW7Nb77+ol1cPHL0FALgq/nRRjzpdvzt6yLq5sz5kq36kep/RWwAAAAAAOHI7U918ql49esimOF+PuFi3VdujtwAAx9+izp0WqwGw4VxYA+BYunP/cfVtk1gNANbV71UfdUasdqQWdXK3vnarfjWxGgAAAADAOtrbqlu3xWqz2asbLtYvJlYDAC7DVGfP1NnROwBgtGn0AAD4m3brA9u/rHb96C0AwFXxb0/WJ9y/dkYPWSe79f7Vc6qHjd4CAAAAAMBVsTPVzWK1+bisBgAsY1HnxGoAsM+FNQCOlb36oMRqALC2pvqlC3WLWO1o7dVTql9PrAYAAAAAsK5cVpuZy2oAwDJcVgOAv86FNQCOjb26YbH/y2RiNQBYTz+2XZ831ZtHD1kXu3Vd9ezqSaO3AAAAAABw1ext1S2n6lWjh2yKg/cLv1SdGb0FADj+pjq7XedG7wCA48SFNQCOhUs+7BWrAcAaWtR3bNdni9WOzp31YdW/T6wGAAAAALDOxGozE6sBAMsQqwHAWyZYA2C4vXqYD3sBYG0tFnXuTD19qoujx6yDRU179fSt+tfVu43eAwAAAADAVSNWm5lYDQBYhlgNAN66afQAADbbQax2Wz7sBYB1dGFRX3SmfmD0kHXxunrQNfWc6pbRWwAAAAAAuKrEajMTqwEAyxCrAcDbJlgDYJjz9fCL+7Ha6dFbAIAj98apPn27fnr0kHWxU7ds1XMW9aDRWwAAAAAAuKrEajMTqwEAyxCrAcDbtzV6AACb6Xw9QqwGAGtrr7pZrHY0FnWv3frmqV4iVgMAAAAAWHtitZmJ1QCAZYjVAODyuLAGwOwuidW2R28BAI7cf5vqUdv1H0YPWQd31HueqOdVDxu9BQAAAACAq06sNjOxGgCwDLEaAFw+F9YAmNVOfcTFuj2xGgCso9+vPlysdjR26gkn9h8liNUAAAAAANbfzlQ3idXmc74esdh/vyBWAwDerkWdE6sBwOUTrAEwm536B1O9tLr/6C0AwJH7nQt14+n6k9FDVt2iTuzWN0/1/Op+o/cAAAAAAHDV7W3Vrdv16tFDNsVe3XCxfjE/tgsAXIapzp6ps6N3AMAqmUYPAGAzHMRqL0msBgDr6NdP1KOvq93RQ1bdn9f1F+rHF3Xz6C0AAAAAAMxib6tucVltPnt1w6J+KZfVAIDLMNVZl9UAYHkurAFw1e3WR7qsBgDraVEvv6duFqsd3vn64HvqVWI1AAAAAICNIVabmVgNAFiGWA0ArpxgDYCrarc+qv3LavcbvQUAOHI/e7oe88D6i9FDVt1uPe1i/Wr10NFbAAAAAACYhVhtZmI1AGAZYjUAOBzBGgBXzUGs9guJ1QBgHT1nu5441RtHD1llf1j33qsfrJ5dXTt6DwAAAAAAsxCrzUysBgAsQ6wGAIc3jR4AwHrarX/Yfqx239FbAICjtajvOF3PmGoxessqu6ve/UK9oPrA0VsAAAAAAJiNWG1mYjUAYBliNQA4Gi6sAXDkxGoAsNaeeaaeLlY7nN16zIX6jcRqAAAAAACbRKw2M7EaALAMsRoAHB3BGgBH6nx9XPXSxGoAsG4uVl98ur5u9JBVtqitnfon1Yuq7dF7AAAAAACYzc5UN4nV5nO+HrGo2xOrAQCXYVHnxGoAcHSm0QMAWB979TGL+vnqPqO3AABH6p6pPn+7fmT0kFX2+rrvyfrR6nGjtwAAAAAAMCuX1WbmshoAsAyX1QDg6AnWADgSO/XIqX6ueofRWwCAI/XGqT5tu35m9JBVtlMPOfh/pYeP3gIAAAAAwKzOb9UjxWrzEasBAMsQqwHA1SFYA+DQduqWqX42sRoArJu/2KrHnaqXjx6yynbrI6d6waIeNHoLAAAAAACzEqvNTKwGACxDrAYAV8/W6AEArLadutVlNQBYS3du1ceK1Q5np55a3S5WAwAAAADYODtT3ShWm8/5eviibk+sBgBchkWdE6sBwNUjWAPgih3Eaj9T3Xv0FgDgSL22uulU/eboIatqUSd265un+oHq2tF7AAAAAACY1fmtunW7Xj16yKbYqxsu1suq7dFbAIDjb6qzZ+rs6B0AsM6m0QMAWE1iNQBYW39yom6+rv7L6CGr6o6634l6bvUJo7cAAAAAADC781v1SJfV5rNXNyzql3JZDQC4DFOddVkNAK6+k6MHALB6dutR1U8nVgOAdfP7i3rkdfWno4esqrvq3S/UC6v3Gb0FAAAAAIDZidVmJlYDAJYhVgOA+WyNHgDAajmI1VxWA4D1858u1E1nxGpXbK8++kL9WmI1AAAAAIBNJFabmVgNAFiGWA0A5iVYA+Cy7daj24/V7jV6CwBwpH7zZH30A+o1o4esqt162sGX4g8YvQUAAAAAgNmJ1WYmVgMAliFWA4D5CdYAuCx79bjEagCwjn75Qt14/9oZPWQVLerEbn1n9ezqmtF7AAAAAACY3c5UN4rV5nO+Hr6o2xOrAQCXYVHnxGoAML9p9AAAjr+9evyinpdH2ACwbl5yd33Ku9T/GD1kFb227nNt/Xj12NFbAAAAAAAYwmW1mbmsBgAsw2U1ABjn5OgBABxvO/Upi/2H2GI1AFgvL7yrnvRu9T9HD1lFr68Hn6gXVR88egsAAAAAAEOI1WYmVgMAliFWA4CxXFgD4K3aqSdM9dzEagCwbp67XZ891T2jh6yinXrfqX6heujoLQAAAAAADCFWm5lYDQBYhlgNAMbbGj0AgONJrAYAa+t7t+uzxGpXZq9unOpXE6sBAAAAAGwqsdrMxGoAwDLEagBwPAjWAPhbduqJU/14YjUAWDffsl1fMtXF0UNW0U596mL/stqp0VsAAAAAABhCrDYzsRoAsAyxGgAcH4I1AP6anfrUg8tqJ0dvAQCO1DNP19dOtRg9ZBXt1dOnel5179FbAAAAAAAYQqw2M7EaALAMsRoAHC/T6AEAHB879aSpfiyxGgCsk8Wi/tGZ+tbRQ1bRok7u1XdWXzh6CwAAAAAAw4jVZiZWAwCWIVYDgONHsAZAJVYDgDV1YVFfdKZ+YPSQVfT6uu/Jen71qNFbAAAAAAAYRqw2MytiQEUAACAASURBVLEaALAMsRoAHE+CNQDarSdXP5pYDQDWyT1TPXW7njN6yCq6o97pRL24etjoLQAAAAAADCNWm5lYDQBYhlgNAI4vYQLAhturz17UD1Vbo7cAAEfmf1aful0vGj1kFe3W+1cvrd559BYAAAAAAIbZmermU/Xq0UM2xfl6+MX9WG179BYA4Phb1LnTYjUAOLYEawAbbK8+d1E/kFgNANbJ3Yv65DN12+ghq+jO+rD2L6tdP3oLAAAAAADDnN+qW8Vq89mrGy7WyxKrAQCXYaqzYjUAON4ECgAbaqc+T6wGAGvn/KJuEatdmd167FbdnlgNAAAAAGCTnd+qR56qV40esin26obF/mW1M6O3AADH31Rnt8VqAHDsiRQANtBOPXWq78+/AwCwTnYv1sefqV8bPWQV7dVTqhdU7zh6CwAAAAAAw4jVZiZWAwCWIVYDgNUhVADYMAex2vfl3wAAWCevrT72+vqN0UNW0V49fVE/XF0zegsAAAAAAMOI1WYmVgMAliFWA4DVMo0eAMB8durzp3p2YjUAWCd/fKJuvq7+6+ghq2ZR0159S/XVo7cAAAAAADCUWG1mYjUAYBliNQBYPSdHDwBgHjv1BVN9b2I1AFgnv7/Yj9X+bPSQVbOoa/f2r6p92ugtAAAAAAAMJVabmVgNAFiGWA0AVpMLawAbYLee1n6s5r/7ALA+fvdCPfIB9d9GD1k1r637XFs/Vd06egsAAAAAAEOJ1WYmVgMAliFWA4DVJVwAWHO79YXV9+S/+QCwNhb1qmvq1vvXzugtq+bP68w99eLqw0dvAQAAAABgKLHazMRqAMAyxGoAsNq2Rg8A4OoRqwHAWvrli3WTWG15e/WuF+rXEqsBAAAAAGw6sdrMxGoAwDLEagCw+gRrAGtqr56eWA0A1s3P312PekC9YfSQVbNXH7SoX1vUe47eAgAAAADAUDtT3ShWm8/5eviibk+sBgBchkWdE6sBwOoTMQCsoZ36yqmeNXoHAHCknr9dnznVm0cPWTV31ods1UvyRTgAAAAAwKZzWW1mLqsBAMtwWQ0A1ocLawBrZqe+SqwGAGvnx7brM8Rqy9urj92ql+eLcAAAAACATSdWm5lYDQBYhlgNANaLYA1gjezUP5rqX4zeAQAcqe/Zrs+e6p7RQ1bNbj12sX9Z7X6jtwAAAAAAMJRYbWZiNQBgGWI1AFg/gjWANbFTXz3VPx+9AwA4Us88XV8y1cXRQ1bNbn169YLq3qO3AAAAAAAwlFhtZmI1AGAZYjUAWE+CNYA1cBCr/bPROwCAozPV2dP1daN3rKLd+qLqR6trRm8BAAAAAGAosdrMxGoAwDLEagCwvqbRAwA4nN36mupbRu8AAI7MYqqv2q5vGz1kFe3W11bfPHoHAAAAAADDidVmJlYDAJYhVgOA9XZy9AAArtxu/ePqmaN3AABH5sKinna6fmj0kFWzqGlvP1T7x6O3AAAAAAAwnFhtZmI1AGAZYjUAWH8urAGsKNdDAGDtvGlRn3mmfnL0kFWzqGm3vm2qrxi9BQAAAACA4cRqMxOrAQDLEKsBwGYQrAGsILEaAKydN0715O362dFDVs2iTuzWD0712aO3AAAAAAAwnFhtZmI1AGAZYjUA2BwnRw8AYDk7dbb6P0bvAACOzN0X63HX73+ZyxIWda/deu5Ujx+9BQAAAACA4cRqMxOrAQDLEKsBwGZxYQ1ghezUP53qG0fvAACOzN6iHn2m/u3oIavmjrrfifq56sbRWwAAAAAAGG5nqkdu178fPWRTnK+HX9yP1bZHbwEAjr9FnTuz/2P9AMCGEKwBrIjd+qbqG0bvAACOxqJev1W3bNd/GL1l1ezVqUX9QvURo7cAAAAAADCcWG1mYjUAYBliNQDYTCdHDwDg7dupf5pYDQDWyWsPvjz/ndFDVs352l7US6sPHb0FAAAAAIDhzm/VrafEarPZqxsu1ssSqwEAl2Gqs6fr3OgdAMD8XFgDOOZ26/+s/rfROwCAI/PHJ+rm6+q/jh6yat5QD3xz3VZ94OgtAAAAAAAMd36rHnmqXjV6yKbYqxsW+5fVzozeAgAcf1Od3RarAcDGOjF6AABv3W59U2I1AFgbU/3nRd24XX80esuqeX09uP0vwT9g9BYAAAAAAIYTq81MrAYALEOsBgC4sAZwTB3Eat8wegcAcGR+70Ld/IB6zeghq2an3qV6+VTvMXoLAAAAAADDidVmJlYDAJYhVgMASrAGcCzt1v9Vff3oHQDAkfmtk/Xx9687Rw9ZNXv10EW9vPr7o7cAAAAAADCcWG1mYjUAYBliNQDgL50cPQCAv7KoabeeVT1j9BYA4GhM9e+26tb71+7oLavmjnrPg1jtIaO3AAAAAAAwnFhtZmI1AGAZYjUA4FJbowcAsO8gVvvWSawGAOvklffUx10nVlvanfXeJ+oVidUAAAAAABCrzU6sBgAsQ6wGAPxNgjWAY+AgVvu2qZ4+egsAcGRecnfd+oB6w+ghq2avbtiqV1bvNHoLAAAAAADDidVmJlYDAJYhVgMA3pJp9ACATbeoaa++vfry0VsAgCPzou164lRvHD1k1Zyvh1+sl+VLcAAAAAAAxGqzE6sBAMsQqwEAb40LawADHcRq35FYDQDWyfO26/FiteXt1kderNvzJTgAAAAAAGK12YnVAIBliNUAgLdFsAYwyEGs9t3Vl43eAgAcme/frs+Y6p7RQ1bNXn1s9dLqusFTAAAAAAAYb2eqm8Rq8zlfD1/4UTkA4DIt6pxYDQB4W6bRAwA20UGs9p3Vl4zeAgAcme/eri+f6uLoIatmrz56UT9f3Xf0FgAAAAAAhnNZbWYuqwEAy3BZDQC4HC6sAcxMrAYAa+mZp+tLxWrL26uPWdQvJFYDAAAAAECsNjuxGgCwDLEaAHC5BGsAMzqI1b4rsRoArJNnnq6vGz1iFe3ULYt6SXWf0VsAAAAAABhOrDYzsRoAsAyxGgCwjGn0AIBNcRCrfXf1RaO3AABHYrGorz5Tzxo9ZBXt1MdP9TPVO4zeAgAAAADAcGK1mYnVAIBliNUAgGUJ1gBmsKit3frBqT5n9BYA4Egspnr6dv3L0UNW0U7dehCr3Xv0FgAAAAAAhhOrzUysBgAsQ6wGAFwJwRrAVbaoEwex2meP3gIAHIkLU33+dv3w6CGrSKwGAAAAAMAlxGozE6sBAMsQqwEAV0qwBnAVLerEXv1Q9ZTRWwCAI/GmRX3Gmfqp0UNW0W49qvrpxGoAAAAAAIjVZidWAwCWIVYDAA5DsAZwlRzEav939VmjtwAAR+KNUz15u3529JBVtFuPbj9Wu9foLQAAAAAADCdWm5lYDQBYhlgNADisk6MHAKwjsRoArJ3/vqjHna7bRg9ZRbv1mOoFidUAAAAAABCrzU6sBgAsQ6wGABwFF9YAjthBrPbD1WeO3gIAHIm7qsecrl8dPWQV7dXjF/W86prRWwAAAAAAGE6sNjOxGgCwDLEaAHBUtkYPAFgnB7HajyRWA4B1sXexPl6sdmV26gliNQAAAAAADojVZiZWAwCWIVYDAI6SC2sAR+QgVntO9emjtwAAh7eo10/1yNP1H0dvWUU79YSpnptYDQAAAAAAsdrsxGoAwDLEagDAUXNhDeAILOqa8/vXQ8RqALAe/uxifbRY7crs1JOm+vHEagAAAAAA1M5UN4nV5nO+Hr6o2xOrAQCXYVHnxGoAwFFzYQ3gkBZ1zW49b6rHj94CAByJP96qjztVfzB6yCraqSceXFY7OXoLAAAAAADDuaw2M5fVAIBluKwGAFwtLqwBHMJBrPYTYjUAWBu/v6iPEqtdGbEaAAAAAACXEKvNTKwGACxDrAYAXE2CNYArtKhr9+r5U33y6C0AwJH4TxfqpjP1Z6OHrKKd+lSxGgAAAAAAB8RqMxOrAQDLEKsBAFfbNHoAwCo6iNV+onrc6C0AwJH4rZP18fevO0cPWUUHsdq/SqwGAAAAAIBYbXZiNQBgGWI1AGAOLqwBLOkvL6slVgOAdfEr1U1itSsjVgMAAAAA4BJitZmJ1QCAZYjVAIC5CNYAlnAQq/1k9UmjtwAAR+KXL9SjT9ddo4esIrEaAAAAAACXEKvNTKwGACxDrAYAzEmwBnCZLonVPnH0FgDgSPzC3fWoB9QbRg9ZRWI1AAAAAAAuIVabmVgNAFiGWA0AmNs0egDAKjiI1X6qeuzoLQDAkXjh9n5w9cbRQ1aRWA0AAAAAgEuI1WYmVgMAliFWAwBGcGEN4O1Y1L326gWJ1QBgXTx3uz5FrHZldupJYjUAAAAAAA6I1WYmVgMAliFWAwBGEawBvA2XxGqfMHoLAHAkvm+7Pmuqe0YPWUUHsdqPJVYDAAAAAECsNjuxGgCwDLEaADDSidEDAI6rP613uFgvqm4dvQUAOBLftV1fOtVi9JBVJFYDAAAAAOASYrWZidUAgGWI1QCA0VxYA3gLXlPveN964aJuHr0FADgSzzxdXyZWuzJiNQAAAAAALiFWm5lYDQBYhlgNADgOBGsAf8Nr6h3vJVYDgLUx1dnT9XWjd6yq3XqyWA0AAAAAgANitZmJ1QCAZYjVAIDjYho9AOA4OYjVXjTVTaO3AACHtpjqq7br20YPWVW79eTqRxOrAQAAAAAgVpudWA0AWIZYDQA4Tjw6BDggVgOAtbKovny7vmv0kFUlVgMAAAAA4BJitZmJ1QCAZYjVAIDjxoU1gOq1dZ9r60XVjaO3AACHdmGqp27Xj4wesqoOYrUfq06M3gIAAAAAwHBitZmJ1QCAZYjVAIDjyC/lAxvvIFZ7cfWxo7cAAIf2pkV9+ul6weghq0qsBgAAAADAJcRqMxOrAQDLEKsBAMeVC2vARhOrAcBaeeNUn7pdLxw9ZFWJ1QAAAAAAuIRYbWZiNQBgGWI1AOA4E6wBG+sgVvv56mNGbwEADu3ui/W46/e/xOUK7NanVT+aWA0AAAAAALHa7MRqAMAyxGoAwHEnWAM20k7df6qXVh8xegsAcGh3LerRZ+rXRg9ZVXv1OYv6wWpr9BYAAAAAAIYTq81MrAYALEOsBgCsAsEasHF267r2Y7UPH70FADi0vYt16/X1G6OHrKq9+txF/UBiNQAAAAAAxGqzE6sBAMsQqwEAq0KwBmyUg1jtF6sPG70FADicqV63qEeert8evWVVidUAAAAAALiEWG1mYjUAYBliNQBglXiUCGyMvTo11csSqwHAOvjTe+qjxWpXTqwGAAAAAMAldqe6Saw2n/P18EW9PLEaAHAZFnVOrAYArBIX1oCNsFenql9c1IeO3gIAHNofb9XHnao/GD1kVYnVAAAAAAC4hMtqM3NZDQBYhstqAMAq8jgRWHtiNQBYH1P950V9lFjtyu3U54nVAAAAAAA4IFabmVgNAFiGWA0AWFUeKAJr7SBWe5lYDQDWwu/dUzeeqT8bPWRV7dTnTfX9+VsQAAAAAACx2uzEagDAMsRqAMAqm0YPALha9urUxbptqg8evQUAOLRXX1O33K/uGD1kVYnVAAAAAAC4hFhtZmI1AGAZYjUAYNV5qAispfO1LVYDgLXxmyfrZrHalROrAQAAAABwCbHazMRqAMAyxGoAwDrwWBFYO2I1AFgrv7Kom+5fO6OHrCqxGgAAAAAAlxCrzUysBgAsQ6wGAKwLDxaBtfKGesDF+n+qR4zeAgAc2i/fU486U38+esiqEqsBAAAAAHAJsdrMxGoAwDLEagDAOvFoEVgbb6gHvLleXn3g6C0AwKG95O561APrL0YPWVU79VSxGgAAAAAAB8RqMxOrAQDLEKsBAOtmGj0A4Ci8oR745v0Pej9g9BYA4NBevF1PmOqNo4esqoNY7fsSqwEAAAAAIFabnVgNAFiGWA0AWEceLwIr7yBWe3liNQBYBz+xXY8Xq105sRoAAAAAAJcQq81MrAYALEOsBgCsKw8YgZV2Saz2/qO3AACH9q+26zOnevPoIatKrAYAAAAAwCXEajMTqwEAyxCrAQDrzCNGYGW9rh705ro9sRoArINnb9dTprpn9JBVJVYDAAAAAOASYrWZidUAgGWI1QCAdechI7CSXlcPumY/Vnu/0VsAgEP7ru364qkujh6yqnbq88VqAAAAAAAcEKvNTKwGACxDrAYAbAKPGYGV8/p68EGs9r6jtwAAh/bM0/VlUy1GD1lVB7Has/P3HQAAAAAAYrXZidUAgGWI1QCATTGNHgCwjNfXg0/ux2rvM3oLAHBozzxdXzd6xCoTqwEAAAAAcAmx2szEagDAMsRqAMAmEawBK2OnHjLVK6p3H70FADiUxaK++kw9a/SQVSZWAwAAAADgEmK1mYnVAIBliNUAgE0jWANWwk69y7R/WU2sBgCrbTHVM7brO0YPWWU79QVTfW9iNQAAAAAAxGqzE6sBAMsQqwEAm+jk6AEAb89BrPaK6u+P3gIAHMqFRT3tdP3Q6CGrTKwGAAAAAMAlxGozE6sBAMsQqwEAm8qFNeBY262/2/5lNbEaAKy2C1N93nY9Z/SQVSZWAwAAAADgEmK1mYnVAIBliNUAgE3mwhpwbB3Eaq+o/t7oLQDAobxpUZ9+ul4wesgqO4jVnp0fHgEAAAAAQKw2O7EaALAMsRoAsOk8dASOJbEaAKyNN071pO36udFDVplYDQAAAACAS4jVZiZWAwCWIVYDAHBhDTiG9uqhi/1Y7d1GbwEADuW/L+pxp+u20UNWmVgNAAAAAIBLiNVmJlYDAJYhVgMA2OfBI3CsiNUAYG3cvVWfeKpuHz1kle3W06rvzd9uAAAAAACI1WYnVgMAliFWAwD4Ky6sAcfGXr3rQaz2rqO3AACHcn5Rjz5V/2b0kFUmVgMAAAAA4BJitZmJ1QCAZYjVAAD+Og8fgWNBrAYAa2PvYt16ff3G6CGrTKwGAAAAAMAlxGozE6sBAMsQqwEA/G0ePwLD3VXvcWE/Vnvn0VsAgCs31esW9cjT9dujt6wysRoAAAAAAJcQq81MrAYALEOsBgDwlnkACQwlVgOAtfHaRd18pn539JBVtltfWH1P/lYDAAAAAECsNjuxGgCwDLEaAMBbd2L0AGBz3VHvmVgNANbBH5+oG7fr90cPWWViNQAAAAAALiFWm5lYDQBYhlgNAOBtOzl6ALCZ7qj3OlG3V+80egsAcCh/uFUfd1394eghq0ysBgAAAADAJcRqMxOrAQDLEKsBALx9W6MHAJtHrAYAa+P/vVj/8JRY7VDEagAAAAAAXEKsNjOxGgCwDLEaAMDl8SASmNVBrPaK6u+M3gIAHMqrr6lb7ld3jB6yynbri6rvzt9mAAAAAACI1WYnVgMAliFWAwC4fC6sAbO5s95brAYAa+E3T9bNYrXD2atnJFYDAAAAAGCfWG1mYjUAYBliNQCA5QjWgFncWe+9VbcnVgOAVferi7rp/rUzesgq26tnLOpZidUAAAAAABCrzU6sBgAsQ6wGALA8wRpw1d1Z77PlshoArINXXqhHnak/Hz1klR3Eat+aWA0AAAAAALHa7MRqAMAyxGoAAFdGsAZcVXv1QVv1yurBo7cAAIfy0rvr1gfUG0YPWWWXxGoAAAAAACBWm5lYDQBYhlgNAODKCdaAq2avPujgg97rR28BAA7lxXfVJ79L/Y/RQ1aZWA0AAAAAgEucv1i3iNXmI1YDAJYhVgMAOJxp9ABgPR180HtbYjUAWHXP367PnOrNo4essp36yqmeNXoHAAAAAADHwvmLdcv19e9GD9kUYjUAYBliNQCAw3NhDThyl3zQK1YDgNX23O36DLHa4YjVAAAAAAC4hFhtZmI1AGAZYjUAgKMhWAOO1F49zAe9ALAWvn+7Pmuqe0YPWWViNQAAAAAALiFWm5lYDQBYhlgNAODoCNaAI3MQq92WD3oBYNV993Z94VQXRw9ZZWK1/5+9Ow+y9K7rPf55ejqERTJ9Tk9wRcGrXrxedRx3L4pkkhASQRbJggFcEBEVC0GJKz2KSwBRBBdwAWQTCIJhMclkQQxele0qCrIYYiIhJNPLZF+mz3P/6BNthyz99Jw+v+d5+vWqSnUlNdPnU6nqmq6e532+AAAAAACsI1abMrEaANCEWA0AYLIEa8BErCR7/KAXAHrhBcPkx6ukLj2kyxaTnxarAQAAAAAwJlabMrEaANCEWA0AYPIEa8ARW0n2jNYuqw1LbwEAjsjZw+S5pUd03ThW+63SOwAAAAAAaAWx2pSJ1QCAJsRqAABbQ7AGHJGV5BvFagDQfVXyS8PkrNI7uk6sBgAAAADAOmK1KROrAQBNiNUAALZOVXoA0F3rYrVB6S0AwKbVVfKsQfKS0kO6TqwGAAAAAMA6YrUpE6sBAE2I1QAAttaO0gOAblpMviNrsdpc6S0AwKbVSX5ymLy09JCuW0yeLVYDAAAAAGBMrDZlYjUAoAmxGgDA1nNhDWhsMfmOKvmrJMeU3gIAbNpqlfzwIHl16SFdN47VXlR6BwAAAAAArSBWmzKxGgDQhFgNAGA6ZksPALplKfk/WYvV7l96CwCwabfXyROHyTmlh3SdWA0AAAAAgHXEalMmVgMAmhCrAQBMjwtrwIaJ1QCgF26rktMGydtKD+k6sRoAAAAAAOuI1aZMrAYANCFWAwCYLhfWgA1ZSh6a5F0RqwFAl91UJ48dJheUHtJ1i8lzquSFpXcAAAAAANAKYrUpE6sBAE2I1QAAps+FNeAeLSXfmbVY7fNKbwEANu3GmeR755KLSg/pOrEaAAAAAADriNWmTKwGADQhVgMAKMOFNeBuidUAoBcO1snJc8nflh7SdWI1AAAAAADWEatNmVgNAGhCrAYAUM5M6QFAey0n3xWxGgB03fIoOXFerHbExGoAAAAAAKwjVpsysRoA0IRYDQCgrKr0AKCdlpPvqpN3RqwGAJ1VJ9dUyQnD5J9Kb+m6peRnkryg9A4AAAAAAFpBrDZlYjUAoAmxGgBAeS6sAZ9jMTmhTs6LWA0AuuzqJMeJ1Y6cWA0AAAAAgHXEalMmVgMAmhCrAQC0gwtrwH+zmJxYJW9Lcp/SWwCATbtiR7J3Z/LJ0kO6TqwGAAAAAMA6YrUpE6sBAE2I1QAA2sOFNeA/LSaPqJK/jFgNALrs8pnk4WK1IydWAwAAAABgHbHalInVAIAmxGoAAO0iWAOSJIvJSePLavcuvQUA2LSPjZKHziWXlR7SdUvJz0asBgAAAADAGrHalInVAIAmxGoAAO0jWAPuiNXeGrEaAHTZR1aTh+9KPl16SNeNY7WzS+8AAAAAAKAVxGpTJlYDAJoQqwEAtFNVegBQ1lLyyCR/EbEaAHTZB2eTRxyTHCg9pOvEagAAAAAArCNWmzKxGgDQhFgNAKC9XFiDbUysBgDdVyXv25GcIFY7cmI1AAAAAADWEatNmVgNAGhCrAYA0G6CNdimlpKTk7w1YjUA6LL3HEr27kyWSg/puqXkuRGrAQAAAACwRqw2ZWI1AKAJsRoAQPsJ1mAbWkpOydpltaNLbwEANu38G5OTjk2uLz2k68ax2m+W3gEAAAAAQCuI1aZMrAYANCFWAwDoBsEabDPjWO0tEasBQJe982DymAcmN5ce0nViNQAAAAAA1hGrTZlYDQBoQqwGANAdVekBwPQsJo+vkjckOar0FgBgc6rkzXPJ91fJ7aW3dJ1YDQAAAACAdcRqUyZWAwCaEKsBAHSLC2uwTSwm3ydWA4DOe8Nc8kSx2pETqwEAAAAAsI5YbcrEagBAE2I1AIDuEazBNjCO1V4fsRoAdNkfDZIzq+RQ6SFdt5gsRKwGAAAAAMAasdqUidUAgCbEagAA3SRYg55bTJ7gshoAdN4fDpKnV8mo9JCuW0wWquR5pXcAAAAAANAKYrUpE6sBAE2I1QAAukuwBj22mJw6vqw2W3oLALBpLxwmPyZWO3JiNQAAAAAA1hGrTZlYDQBoQqwGANBtgjXoqXGs9rqI1QCgy84eJj9bekQfiNUAAAAAAFhHrDZlYjUAoAmxGgBA9wnWoIcWk9PEagDQbVXyy8PkrNI7+kCsBgAAAADAOmK1KROrAQBNiNUAAPqhKj0AmKyl5PQkr4lYDQC6qq6Snx4kv1N6SB8sJvuq5JdL7wAAAAAAoBXEalMmVgMAmhCrAQD0h6AFemQpOSNrsdqO0lsAgE2pkzxzkLys9JA+EKsBAAAAALCOWG3KxGoAQBNiNQCAfnFhDXpiOfnBOvnjJDOltwAAm7JaJU8dJK8qPaQPxGoAAAAAAKwjVpsysRoA0IRYDQCgf1xYgx5YTH6oTv4oYjUA6KrVJD8wSF5bekgfiNUAAAAAAFhHrDZlYjUAoAmxGgBAP7mwBh23mPxQJVYDgC67rUpOHyRvLT2kDxaTX6mSXyq9AwAAAACAVhCrTZlYDQBoQqwGANBfgjXosMXkh6vkFRGrAUBX3Volpw6Sc0sP6QOxGgAAAAAA64jVpkysBgA0IVYDAOg3wRp01GLy1Cp5ecRqANBVN46Sx+xa+4tbjpBYDQAAAACAdcRqUyZWAwCaEKsBAPSfYA06aDH5kSr5w4jVAKCrDtbJyfPJ35Ye0gdiNQAAAAAA1hGrTZlYDQBoQqwGALA9CNagY8ax2svj6xcAumpllJy0K/n70kP6YDH51Sr5xdI7AAAAAABoBbHalInVAIAmxGoAANuH4AU6ZCl5WtYuq/naBYAOqpNrZpITB8k/lt7SB2I1AAAAAADWEatNmVgNAGhCrAYAsL2IXqAjlpIfTfIH8XULAF11dZIThsk/lx7SB2I1AAAAAADWEatNmVgNAGhCrAYAsP0IX6ADlpKnJ/n9+JoFgK66Ykdy/M7kE6WH9IFYDQAAAACAdcRqUyZWAwCaEKsBAGxPM6UHAHdvMXlWXFYDgC67fCZ5uFhtMpaS54vVAAAAAAAYE6tNmVgNAGhCrAYAsH0J1qDFFpNnVcmLS+8ANfICigAAIABJREFUADbtY3XynXPJZaWH9MFS8vwkv1B6BwAAAAAArSBWmzKxGgDQhFgNAGB7E6xBSy0mPy1WA4BO++hqctx88h+lh/SBWA0AAAAAgHXEalMmVgMAmhCrAQBQlR4AfK7F5NlV8qLSOwCATfvQbHLiMcmB0kP6QKwGAAAAAMA6YrUpE6sBAE2I1QAASFxYg9ZZTJ4jVgOA7qqT9+9IjherTcZS8msRqwEAAAAAsEasNmViNQCgCbEaAAB3EKxBiywlP1MlLyy9AwDYtL9JsndnslR6SB+MY7WfL70DAAAAAIBWEKtNmVgNAGhCrAYAwHqCNWiJpeRnk7yg9A4AYNPefSg5eT65rvSQPhCrAQAAAACwjlhtysRqAEATYjUAAA4nWIMWWEqem+Ts0jsAgE1718HkkQ9Ibig9pA/EagAAAAAArCNWmzKxGgDQhFgNAIA7U5UeANvdcvK8OlkovQMA2Jwqectc8sQqua30lj5YSl6Y5DmldwAAAAAA0ApLM8kJc8kHSw/ZLlaSPaNkf5Jh6S0AQPvVyb55zz8CAHAnXFiDghaTBbEaAHTan88lp4vVJmMp+fWI1QAAAAAAWLMySk4Sq03PcrJ7lFwQsRoAsAFVsiBWAwDgrgjWoJDFZKFKnld6BwCwaa8dJGdWyaHSQ/pgHKv9XOkdAAAAAAC0wsooOXFX8r7SQ7aL5WR3nVyYZL70FgCg/apkYZDsK70DAID2EqxBAYvJPrEaAHTaHw6Sp1TJaukhfSBWAwAAAABgHbHalInVAIAmxGoAAGyEYA2mbDH5lSr55dI7AIBNe9EgeUaVjEoP6YOl5DciVgMAAAAAYI1YbcrEagBAE2I1AAA2SrAGUzSO1X6p9A4AYNPOHiY/UyV16SF9MI7Vziq9AwAAAACAVhCrTZlYDQBoQqwGAEATgjWYksXkV8VqANBdVfK8obhqYsRqAAAAAACsI1abMrEaANCEWA0AgKZmSw+A7WApeX6SXyi9AwDYlLpOnj1Mfrv0kL4QqwEAAAAAsI5YbcrEagBAE2I1AAA2oyo9APpOrAYAnVZXyU8NkpeWHtIXS8lvJnlu6R0AAAAAALSCWG3KxGoAQBNiNQAANsuFNdhCS8mvJfn50jsAgE1ZrZIfGSSvLD2kD+qkWlq7UvdTpbcAAAAAANAKYrUpE6sBAE2I1QAAOBIurMEWEasBQKetVskPDpLXlB7SB3fEapVYDQAAAACANWK1KROrAQBNiNUAADhSgjXYAkvJryf5udI7AIBNua1Kzhgkf1F6SB+I1QAAAAAAOIxYbcrEagBAE2I1AAAmQbAGE7aU/EaSs0rvAAA25dYqOXWQnFt6SB+MY7XfqZJnlt4CAAAAAEAriNWmTKwGADQhVgMAYFJmSw+APhGrAUCn3VQnjxkm+0sP6QOxGgAAAAAAhxGrTZlYDQBoQqwGAMAkubAGEzB+IPu3q+SnSm8BADblhip59CC5pPSQPhCrAQAAAABwGLHalInVAIAmxGoAAEyaC2twhDyQDQCdt1Injxwmf1d6SB/43ggAAAAAgMOI1aZMrAYANCFWAwBgK7iwBkfAA9kA0HlLo+Qkf0k+GXVSLScvSfKTpbcAAAAAANAKYrUpE6sBAE2I1QAA2CqCNdik8QPZv5vkJ0pvAQA25eo6OX4++ZfSQ/rA90YAAAAAABxmaSY5YS75YOkh28VKsmeU7E8yLL0FAGi/Otk3nyyU3gEAQD/NlB4AXbTueogHsgGgmz5TJ3vFapPheyMAAAAAAA6zMkpOEqtNz3Kye5RcELEaALABVbIgVgMAYCu5sAYNuR4CAJ13xUxy3Fzyb6WH9MG6WO0nS28BAAAAAKAVVkbJibuS95Uesl0sJ7vr5MIk86W3AADtVyULg2Rf6R0AAPSbYA0aGD+Q/dIkP156CwCwKZePY7VPlR7SB0J+AAAAAAAOI1abMrEaANCEWA0AgGmZKT0AukKsBgCd97FR8lCx2mSI1QAAAAAAOIxYbcrEagBAE2I1AACmyYU12IDxA9kvS/KM0lsAgE356Gqy99jkM6WH9IFYDQAAAACAw4jVpkysBgA0IVYDAGDaBGtwD8RqANB5H5pNTjwmOVB6SB+I1QAAAAAAOIxYbcrEagBAE2I1AABKEKzB3Rg/kP17SX6s9BYAYFM+MJs84phksfSQPhh/b/TSJD9eegsAAAAAAK0gVpsysRoA0IRYDQCAUmZKD4C2EqsBQOe9t06OE6tNhlgNAAAAAIDDiNWmTKwGADQhVgMAoCTBGtyJ8QPZvx+xGgB01XtWk0fOJ9eVHtIHYjUAAAAAAA4jVpsysRoA0IRYDQCA0gRrcJg6mVlK/jTJ00tvAQA25fwbk5OOTa4vPaQPxGoAAAAAABxGrDZlYjUAoAmxGgAAbSBYg3XuiNWq5AdKbwEANuWdB5PHPDC5ufSQPhjHai+LWA0AAAAAgDVitSkTqwEATYjVAABoi6r0AGiLdbHaU0pvAQA25e2D5AlVcmvpIX2wLlZ7RuktAAAAAAC0glhtysRqAEATYjUAANrEhTVIUic7xGoA0Gl/PkgeJ1abDLEaAAAAAACHEatNmVgNAGhCrAYAQNsI1tj26mTHslgNALrsdYPkSVVyqPSQPhCrAQAAAABwGLHalInVAIAmxGoAALSRYI1tbRyrvTLJk0tvAQA25RWD5MlitckQqwEAAAAAcBix2pSJ1QCAJsRqAAC0lWCNbWtdrPak0lsAgE35g0Hy9CoZlR7SB2I1AAAAAAAOI1abMrEaANCEWA0AgDYTrLEtjWO1V0WsBgBd9cJh8owqqUsP6QOxGgAAAAAAhxGrTZlYDQBoQqwGAEDbCdbYdtbFameW3gIAbMrZw+RnS4/oi3Gs9nsRqwEAAAAAsEasNmViNQCgCbEaAABdMFt6AExTncwuJ69NclrpLQDApvzcMPnN0iP6ok5mVpKXJ3lq6S0AAFNyc5Jbktya5KYktye5oUpWk1w3/jXL448H62RUJdfXyaF1n+NQkusP+7w3Jrntjn+pk1GSg+t/QZXcPFp77f80+1+v1cRmfg8AAMCGzSQHj0kWS+/YLlaSPaNkf5Jh6S0AQPvVyb6hWA0AgA6oSg+AaRnHaq9LcmrpLQBAY3WdPHs++e3SQ/piHKu9ok5+uPQWAIA7cUPWArLrqrU47GDW3uH/+vF/v75a+3iwTlaq5PqZtWBsZfz7V5LUM8l1o2R1Z3JjtS4oAwAAgDYQqwEATdTJvvlkofQOAADYCMEa20KdzK4kr6+TJ5TeAgA0Vif5iWHy+6WH9IVYDQCYkhuSXFsl19bJgSSLVXKgXnuX/gN1slz9V4B2XbUWoR3cuRag1UWXAwAAwBYTqwEATYjVAADoGsEavVcnR41jte8rvQUAaGxUJ0+bT/6k9JC+GMdqf1QnP1R6CwDQSbcluSbJfyT5bJJPV8lnR2sfr66Sq1aTa+aTA1Vya9mpAAAA0E5iNQCgCbEaAABdNFt6AGylOtmxnLw6YjUA6KLVKvnh4dqf5UxAnVTLye9FrAYA3LVbklxVJZfVyWVJLquSz6wmV80ml+1MLq+SUemRAAAA0FXLye5RckHEagDABlTJwjDZV3oHAAA0JVijt+rkqKXkz6vkcaW3AACN3V4n3z9M3lx6SF/UycxS8sdV8oOltwAAZdXJNVXyiTr5eJV8sk4+MZN88lDyyWOT60vvAwAAgL5yWQ0AaKJO9onVAADoqqr0ANgK41jtjVXy2NJbAIDGbq2S0wbJX5Ye0hdiNQDYluoklyf5lyT/nORfZpKPriafmE+uK7oMAAAAtiGxGgDQRJ3sm08WSu8AAIDNEqzRO3Vyr+XkjUkeU3oLANDYzUkeP0z+qvSQvhCrAcC2cF2SD1bJh0bJv9TJh0fJRx6Q3FB6GAAAACBWAwCaEasBANAHgjV6RawGAJ120yj53l3JhaWH9MU4VvuTKvmB0lsAgIm5Ick/1skHZpIPjJIPDJOPVsmo9DAAAADgcy0nu+u1v/uYL70FAGi/KlkYJPtK7wAAgCMlWKM3xrHam5M8uvQWAKCx65OcMkz+pvSQvhCrAUBvXJ6175HeWyeXDpN/rZLVwpsAAACADXBZDQBowmU1AAD6RLBGL4xjtXOSPKr0FgCgsZU6eeR88nelh/TFOFb70yp5SuktAEAjoyT/nOQ9Sd47Sv5mV/LpwpsAAACATRCrAQBNiNUAAOgbwRqd57IaAHTa8ig5aVfyD6WH9IVYDQC6pU6umUn+uk4uXE3ecWxyVelNAAAAwJFZTnbXyYVJ5ktvAQDar0oWBsm+0jsAAGCSBGt0Wp0cvZy8JckppbcAAM3UyTVVcsIw+afSW/qiTmaWk1cmeXLpLQDAXbolybvr5IIq2T9cu6gGAAAA9ITLagBAEy6rAQDQV7OlB8BmjS+rvSliNQDonCr5bJLjPaA9Oesuq4nVAKB9lqu1d1V/xyh523xyXelBAAAAwOQtJ7tHyQURqwEAG1AlC0OX1QAA6CnBGp00jtXOSfKo0lsAgMaunEn27kw+UXpIX9TJjqXkT6rkKaW3AAD/6Yok5yV5xyA5v0puKz0IAAAA2DrLye567Q1r5ktvAQDar0oWBmI1AAB6rCo9AJoax2pvSfI9pbcAAI39+0yydy75t9JD+qJOdiwnfxqX1QCgDZazdkXtz+aTi6qkLj0IAAAA2HpiNQCgCbEaAADbgQtrdEqdHD2+rCZWA4COqZKPj9Zitf8ovaUvxGoA0Aq3JLmwTv5smLytSm4vPQgAAACYHrEaANCEWA0AgO3ChTU648rkPvdL3prkEaW3AACNfWQ1Of7Y5DOlh/TFOFZ7VZIzS28BgG3q0ip5xe3JWx+Q3FB6DAAAADB9K8meUbI/ybD0FgCg/epk33yyUHoHAABMgwtrdML4stqbI1YDgC4Sq03YustqYjUAmK6DSd6Y5PeGyT+VHgMAAACUs5zsHiUXRKwGAGxAlSwMXVYDAGAbcWGN1rsyuc/nJX9ZJyeU3gIANPaBHcmJO5Ol0kP6wmU1ACji0ip5xUry5gcnt5QeAwAAAJTlshoA0ITLagAAbEeCNVptHKudWyfHl94CADRTJ++fTR4hVpuccaz2yiRPKr0FALaBUZJ3jZLn70r+vvQYAAAAoB2Wk911cmGS+dJbAID2q5KFgctqAABsQ7OlB8BduSq5733WLquJ1QCgey5NcsrO5LrSQ/pCrAYAU3N9nbyySn5rmFxRegwAAADQHmI1AKAJsRoAANuZYI1Wuiq579HJ2+vkuNJbAIBm6uSiW5NHf1FyU+ktfTGO1f4syRNLbwGAHruyTn4nyR/Pi+4BAACAw6wke0bJ/iTD0lsAgPark31DsRoAANtYVXoAHO6OWK0SqwFAF513Y/K4ByY3lx7SF+NY7VVJziy9BQB66ooqefFK8vIHJ7eUHgMAAAC0j8tqAEATLqsBAIBgjZYRqwFAp73zYPJ9HvSeHLEaAGwpoRoAAABwj8RqAEATYjUAAFgjWKM1rk7ud6/knUkeVnoLANDYmwbJmVVye+khfTGO1V6T5IzSWwCgZ/69Tn5tmLy6Sm4rPQYAAABor5VkzyjZn2RYegsA0H51sm8+WSi9AwAA2mC29ABI1i6r3St5e8RqANBFbxgkT66SQ6WH9MW6y2piNQCYnOUkZx9MXuKiGgAAAHBPlpPdo+SCiNUAgA2okoWhy2oAAPCfXFijuPFltbcneXjpLQBAM1Xyx3PJj1bJqPSWvlgXq51ZegsA9MRtSV51VPKL90+uLT0GAAAAaL/lZHedXJhkvvQWAKD9qmRhIFYDAID/xoU1ihrHau9I8t2ltwAAjb18LnmGWG1yxGoAMFF1lZxTJWfNJZeVHgMAAAB0g1gNAGhCrAYAAHdOsEYx1yb335G8K8lDS28BAJqpkhfPJc+pkrr0lr6ok9nl5LVJTiu9BQC6rkr+YTX5iV3J+0pvAQAAALpjJdkzSvYnGZbeAgC0X53sG4rVAADgTgnWKOLq5H47knMjVgOALjp7kJxVekSfrLusJlYDgCOzXCX75pKXVclq6TEAAABAdywnu0fJBRGrAQAbUCULYjUAALhrVekBbD9XJ/e7V/LOJA8rvQUAaOzsoVhtosax2quTfH/pLQDQYXWS1x6VPPv+ybWlxwAAAADdspzsrpMLk8yX3gIAtF+VLAzEagAAcLdcWGOqFpNjquS8JN9eegsA0Nhzh8kLSo/okzqZXU5el+TU0lsAoKuq5H1V8oy55P2ltwAAAADds5LsGSX747IaALABdbLPZTUAALhngjWmZhyrnZ/k20pvAQAaqavkpwfJ75Qe0ifrLquJ1QBgc25Osm8ueVGVrJYeAwAAAHTPcrJ7lFwQsRoAsAFVsiBWAwCAjRGsMRVLyc6sXVYTqwFAt9RJnjlIXlZ6SJ+MY7U/S/LE0lsAoKMuXU2eemzysdJDAAAAgG5aTnbXyYVJ5ktvAQDar0oWBmI1AADYsKr0APpvHKudn+RbS28BABpZrZIfGSSvLD2kT8RqAHBEbkryK4PkhVUyKj0GAAAA6CaxGgDQhFgNAACac2GNLbWczCU5v06+pfQWAKCRQ0mePEjeUHpIn9TJ7Ery+iRPKL0FADrovDp52nxyZekhAAAAQHetJHtGyf4kw9JbAID2q5N9Q7EaAAA05sIaW8ZlNQDorNvq5InzyVtKD+mT8WW11yQ5o/QWAOiYm6vk5+aS362SuvQYAAAAoLtcVgMAmnBZDQAANk+wxpZwWQ0AOuu2KjltkLyt9JA+EasBwKZ9OMn3D9c+AgAAAGyaWA0AaEKsBgAAR2am9AD6R6wGAJ11U508Sqw2WWI1ANiUUZ387iD5JrEaAAAAcKTEagBAE2I1AAA4crOlB9AvK8lglOxP8o2ltwAAjdxQJY8eJpeUHtIndXLUSvKGJI8vvQUAOuRTSZ40n7y39BAAAACg+1aSPePnGIaltwAA7Vcn+4ZiNQAAOGI7Sg+gP8aX1S5I8k2ltwAAjdxQrV1We3fpIX2y7rLaqaW3AECHvG0mOWWQfLz0EAAAAKD7xpfV9sdlNQBgA6pkQawGAACTMVN6AP1wR6xWJ99cegsA0MhKnZwgVpuscaz22iSnl94CAB1xe5KzBsnj5pLl0mMAAACA7hvHahdGrAYAbECVLAzEagAAMDFV6QF030oyWE0uqFxWA4CuWR4lj9iVvK/0kD6pk6OWkjdWyWNLbwGAjriiTk6bT/6u9BAAAACgH8RqAEATYjUAAJg8F9Y4ImI1AOimOrkmycPEapMlVgOAxs6dSXaL1QAAAIBJEasBAE2I1QAAYGsI1ti065Jdo+QSsRoAdM6nR8l3DZMPlx7SJ2I1AGjkUJU8a5A8Zi5ZLj0GAAAA6IeVZE+dXBSxGgCwAXWyT6wGAABboyo9gG66Pjn29rV3JPu60lsAgEau2JHs3Zl8svSQPhGrAUAjB2aS0+fWHh4DAAAAmAiX1QCAJlxWAwCArTVbegDdM47VLkrytaW3AACNXD6zFqtdVnpIn9TJUcvJm6rkMaW3AEAHfKhKHjeXXF56CAAAANAfYjUAoAmxGgAAbL2Z0gPoFrEaAHTWx+rkO+fEahN1R6wWsRoAbMTrbkkeOhCrAQAAABMkVgMAmhCrAQDAdFSlB9AdYjUA6KyPribHH5tcVXpIn4jVAGDDDiX5xWFydukhAAAAQL+I1QCAJsRqAAAwPYI1NuT65AG3Jxcn+ZrSWwCARv7fbHLCMcmB0kP6pE7uNY7Vvrf0FgBoucUqefwg+evSQwAAAIB+WUn2jJL9SYaltwAA7Vcn++aThdI7AABguxCscY/GsdpFSf536S0AQCMfmE0ecUyyWHpIn4xjtTfGZTUAuCefXE2+59jkY6WHAAAAAP3ishoA0ITLagAAMH0zpQfQbmI1AOis99bJcWK1yRKrAcCGXTqbfLtYDQAAAJg0sRoA0IRYDQAAyhCscZfGsdrFEasBQNf8zWryyPnkutJD+mQcq70pYjUAuFtV8ieDtXD+QOktAAAAQL+I1QCAJsRqAABQjmCNO/XZ5PPHsdrXlN4CADTy7kPJyccm15ce0ifrYrXvLb0FAFqsrpN9g+SpVXJ76TEAAABAv4jVAIAmxGoAAFDWbOkBtM+1yRfuWIvVHlJ6CwDQyDsOJk94cHJL6SF9Mo7VzknyqNJbAKDFbkxyxnzy9tJDAAAAgP5ZSfaMkv1JhqW3AADtVyf7hmI1AAAoqio9gHb5bPL5R63Fav+r9BYAoJF3DJLvq5JbSw/pE5fVAGBDFuvk0fPJ35YeAgAAAPSPy2oAQBMuqwEAQDvMlB5Ae4jVAKCz3jRIHidWmyyxGgBsyGWryXeI1QAAAICtIFYDAJoQqwEAQHu4sEaS5JrkC2aTiyJWA4Cuef0geUqVHCo9pE/Gsdqbkzy69BYAaKsq+YfZ5FH3T64pvQUAAADoH7EaANCEWA0AANrFhTXuiNVcVgOA7vmjQfIksdpkidUAYEPOvTl5uFgNAAAA2ApiNQCgCbEaAAC0z2zpAZS1mHxJlVyS5CtKbwEAGnnpIPmpKqlLD+mTOjl6OXlLklNKbwGAFvvDQfITVbJaeggAAADQPyvJnlGyP8mw9BYAoP3qZN9QrAYAAK3jwto2JlYDgM560TB5plhtssaX1d4UsRoA3J2zh8mPidUAAACArbCc7B4lF0SsBgBsQJUszCcLpXcAAACfqyo9gDIWkwdWycURqwFA15w9TM4qPaJvxrHam5M8uvQWAGipuk6eM5+8uPQQAAAAoJ+Wk911cmGS+dJbAID2q5KFgctqAADQWoK1bWgcq12S5H+U3gIAbJwftm4NsRoA3KNDVfK0QfLK0kMAAACAfhKrAQBNeH4CAADab7b0AKZLrAYAnVTXyXOGLppM3DhWOyfJo0pvAYCWuinJEwbJu0oPAQAAAPpJrAYANCFWAwCAbnBhbRtZSr40ycURqwFAl9RV8qxB8pLSQ/pGrAYA92glyaOGyaWlhwAAAAD9JFYDAJoQqwEAQHfsKD2A6VhOvizJXyf58tJbAIANG9XJjw6TPyg9pG8+ldy7Tt6a5JTSWwCgpa5OsneYvK/0EAAAAKCfVpI9YjUAYKPqZN9QrAYAAJ0hWNsGxpfVLkny4NJbAIANW62Spw6TPy09pG/q5F518uaI1QDgrlxdJ3vnk38uPQQAAADop/Fltf0RqwEAG1AlC2I1AADoFsFaz60kD67XLquJ1QCgO26vkzOHyetKD+mb8WW1t0WsBgB35d9nkocNk4+XHgIAAAD0k8tqAEATLqsBAEA3CdZ6bDn5sjq5OMmDSm8BADbstio5Y5icU3pI39TJ0fXa/9eTS28BgJa6fCbZO5dcVnoIAAAA0E8uqwEATbisBgAA3TVbegBbYxyrXRKX1QCgS26tklMHybmlh/RNnRy9vBarfU/pLQDQRlXy8dFarPYfpbcAAAAA/TSO1VxWAwA2pEoWBmI1AADorKr0ACZvHKu9Oy6rAUCX3FQnj5lfe1dRJkisBgD36F9Xk73HJleVHgIAAAD0k1gNAGhCrAYAAN0nWOuZ5eRB48tqDyq9BQDYsBtnkkfPJReXHtI341jtLUlOKb0FAFrqI4eSvQ9Iri49BAAAAOgnsRoA0IRYDQAA+kGw1iNiNQDopIN18sj55P+WHtI3YjUAuEcfnE0ecUxyoPQQAAAAoJ/EagBAE2I1AADojx2lBzAZB5OvHCV/neRLS28BADZsZZSctCv5u9JD+ubK5D6j5O1JTiq9BQDaqE7eP5ucuDNZLL0FAAAA6CexGgDQhFgNAAD6Zab0AI7cweQrV9cuq31J6S0AwIZdWyXfvSv5+9JD+ubK5D6fl5xbJ8eX3gIALXVpkr07k6XSQwAAAIB+EqsBAE2I1QAAoH8Eax23Llb74tJbAICNqZLPJtk7SP6x9Ja+EasBwD16z2py8nxyXekhAAAAQD+J1QCAJsRqAADQT4K1Drs2+SqxGgB0zmdGyXHD5MOlh/TNVcl9xWoAcLfOvzE56djk+tJDAAAAgH4SqwEATYjVAACgv6rSA9ica5Ov2rEWq31R6S0AwIZdMZMcN5f8W+khfXNVct+jk3OrZG/pLQDQUu86mDz+wcktpYcAAAAA/SRWAwCaEKsBAEC/CdY66EDykJnk4iRfWHoLALBhn0yyd5hcUXpI31yV3PfeyTuSPLz0FgBoozp56zA5vUpuK70FAAAA6KeVZM8o2Z9kWHoLANB+dbJvPlkovYPNW0q+tk4eUnpHj43mk7c0+Q0Hkm+pki/bqkHr7UjeP5d8ahqv1QZLycl1cr8pvNT188l5U3gdAJgKwVrHXJv8zx1rsZrLagDQHR8bJXt3JZ8uPaRvxpfV3l4lx5XeAgBtVCd/MY7Vbi+9BQAAAOgnl9UAgCZcVuuHpeQ3kpxVekeP3TpM7t3kNywlr07y5C3a89/UySvnkx+axmuVdm3yRTuSK5PMTOHl/nWYfPUUXgcApmIaf3gyIWI1AOikj64mDxerTZ5YDQDunlgNAAAA2GpiNQCgCbEa9EOVPP7K5D6ld0zDTHJ6PG8PAJviD9COOJA8ZEdyScRqANAlH5pNvuvY5DOlh/SNWA0A7p5YDQAAANhqYjUAoAmxGvTKMfdNTi49YhpmktNKbwCArhKsdcCB5CEza5fVvrD0FgBgwz6wIzn+mORA6SF9c1Vy33sn7xCrAcCdE6sBAAAAW02sBgA0IVaDXnpi6QFbbSX58jr55tI7AKCrBGstJ1YDgE66tE6O25kslR7SN3fEakkeXnoLALSRWA0AAADYamI1AKAJsRr0U5WcspzMld6xlUbJ6Umq0jsAoKsEay02jtUuiVgNALrkPavJyfPJdaWH9I1YDQDunlgNAAAA2GpiNQCgCbEa9NrRo+RxpUdssdNKDwB5SSyEAAAd4ElEQVSALhOstdSB5KvHsdoXlN4CAGzYeTcmJx2bXF96SN9cndxPrAYAd02sBgAAAGw1sRoA0IRYDfpvJjmj9IatciB5SJKvK70DALpMsNZCS8nXzSTviVgNALrknQeTxz4wubn0kL65OrnfvcRqAHCXxGoAAADAVhOrAQBNiNVge6iT4w4kX1x6x1aoktNLbwCArhOstcxy8vVJLkqyq/QWAGBjquScQfLYBye3lN7SN+tite8uvQUA2kisBgAAAGw1sRoA0IRYDbaVmR3JE0qP2ApVcmrpDQDQdYK1FllOvn78Q16xGgB0x5/PJWd4SHzyxGoAcPfEagAAAMBWE6sBAE2I1WBbemLpAZO2nHxDkq8uvQMAuk6w1hLrfsgrVgOA7njdIHlSlRwqPaRvxrHaOyNWA4A7JVYDAAAAtppYDQBoQqwG21OdfPO1yVeV3jFJdXJa6Q0A0AeCtRYQqwFAJ71ikDxZrDZ562K1h5XeAgBtJFYDAAAAtppYDQBoQqwG29tsckbpDZNSJ1UEawAwEYK1wvyQFwA66fcHydOrZFR6SN+I1QDg7onVAAAAgK3mOQYAoAmxGlAnZ5beMClLybcleVDpHQDQB4K1glaSPXVyUfyQFwC65Oxh8uNVUpce0jeLyTH3SvZHrAYAd0qsBgAAAGw1zzEAAE3UyT6xGpDkK1aSbyo9YkJOLT0AAPpCsFbIcvINo+SCJMPSWwCADTt7mJxVekQfLSbHVMn5Sb699BYAaCOxGgAAALDVlpPdnmMAADaqShbmk4XSO4B2qJMzSm84UnUyUyVPKL0DAPpCsFbAcvINdXJhvCMZAHRGlTxPrLY1lpKd41jt20pvAYA2EqsBAAAAW2052e05BgBgo6pkwWU1YL06OaNOdpTecSRWkocl+eLSOwCgL2ZLD9huDiTfXK+9I9lc6S0AwIbUdfIzw+S3Sg/po6VkZ5LzIlYDgDslVgMAAAC22kqyZ5Tsj8tqAMAG1Mm+oVht2xslL5tNzim9I0lGycVJjpnE56qSJ1fJRybxuY5QXXrAJnzhwbXg6+LSQzarTk4tvQEA+kSwNkXjH/KeF7EaAHRFXSXPGiYvKT2kj8ax2vlJvrX0FgBoI7EaAAAAsNWWk92jtTfdFasBAPeoShbEaiTJruTTWfunuKVkdVKfazX5113JByb1+babOjkjHQ3W6mR2KXlcVXoIAPTITOkB28VK8o3ekQwAOqX+/+3dW5AmB33e4bdnVxLGSDvfjFbIBgEyxpxsA8aJHUCgIwgsXEKIHa3EjZTELpdDFdjxoXITOTcJdoIrTuGYxKmikFYrRAmwEZJ1VgkIDoFgoqAQmVKAgKzTHFZC6LQ7nYv5MIOYmZ2e7p7+uud5bqhazffvV7pid+a3neQ9I7FaK8RqALAxsRoAAADQtsXk1WVyS5LZrrcAAJOvSC4fidWADZTJhWVyXNc7tmIhObtITup6BwAMiWBtG4jVAKB3jhTJZTPJB7seMkRiNQDYmFgNAAAAaJtYDQCoQqwGbNL0UvLWrkds0VzXAwBgaARrLVsVq4263gIAbMqRIrl0lHy46yFDJFYDgI2J1QAAAIC2idUAgCrEakBFF3c9oKoyOa5Izu96BwAMjWCtRfPJP1pObotYDQD64ukymRslV3Q9ZIgWkj1FclPEagCwJrEaAAAA0DaxGgBQhVgNqKpM3j7+C617Y/xWuOmudwDA0AjWWjKfvK5I/irJCV1vAQA25aki2TebXNv1kCFaTKaL5KYy+YddbwGASSRWAwAAANomVgMAqhCrAVv0rL69raxM5rreAABDJFhrwThWuyFiNQDoiyeTXDhKPtn1kCFaXPkbiG4UqwHA2sRqAAAAQNvEagBAFWI1oI4y2d/1hs26L3l2kvO63gEAQyRYa9hC8npvVgOAXnlsKvmVmeRTXQ8ZoqVkVCa3iNUAYG1iNQAAAKBti8lryuTWiNUAgE0okz8Qq8HOVST3JClrnjn7geS5Texp23HJ25M8p86N8X8zAOAZBGsNWkhen5U3qx3f9RYAYFMeK5K3T698k5aGLSbTZXJjktd2vQUAJpFYDQAAAGjb+M1qNyeZ6XoLADD5iuTy2eTyrncA3SmT25P8dc0zu45N9jWxp21FclHNE4+WyX9oZAwADIxgrSFiNQDonUNlcs5o5Q9ZaNhiMp3kpjL5B11vAYBJJFYDAAAA2jaO1W6JN6sBAJtQJJd7sxowdqDugTK5uIkhbZpPTkhybp0bZXJtmTze0CQAGBTBWgMWkjdErAYAfbK0nLxlNvl810OGSKwGABsTqwEAAABtE6sBAFWI1YDVdiUHkzxV88wvH0pe0sSetkwlFyR5Vp0bZQNxHwAMlWCtpnGsdn3EagDQFw8VyeknJv+t6yFDtJhMLyc3i9UAYG1iNQAAAKBtYjUAoAqxGvBMe5KFJDfWvbOczDUwpzVl/X33zSa3NzIGAAZIsFaDN6sBQL8UyQNJzholX+l6yxAtJaPl5OYi+cWutwDAJBKrAQAAAG0TqwEAVYjVgPU08eawMrmkiS1teCQ5MclZNc9cVSRHmtgDAEMkWNuiheS0rMRqz+l6CwCwKfcvJ2fNJHd1PWSIlpLRkeQmsRoArE2sBgAAALRNrAYAVCFWAzbySPIXSQ7VPPOyxeTVTexp2uHkwiTH1LlRNBD1AcCQCda2YByrXR+xGgD0xbd2JafNJl/tesgQidUAYGNiNQAAAKBtYjUAoAqxGnA0pyZPlMnH694pk4ub2NOCuZqfv3uU/E0jSwBgoARrFS0mb4xYDQD65JtTyRl7kq93PWSIlpLRcnKzWA0A1iZWAwAAANomVgMAqhCrAZu1q5k3iF1STtjPqz+YnJyVl5fUcUUTWwBgyCbq/wBMusXkjWXy6YjVAKAXiuSeMnnDdHJv11uG6PuxWpLXdr0FACaRWA0AAABom1gNAKhCrAZUsSe5Pcm3a575yaX6cVijjll5u9quGifKIrm6qT0AMFSCtU1aTN5UerMaAPTJ1w4nZ8zW/0MT1vBosnc5uSNiNQBYk1gNAAAAaJtYDQCoQqwGVFUky2kgzCqT/Q3MaUy5EqzVceco+UYTWwBgyARrmzCfnFMmNyT58a63AACbcveR5My9yX1dDxmiR5O9Tye3Jvn5rrcAwCQSqwEAAABtE6sBAFWI1YCtKpIDDZzZVybHNnCntoXkBUl+uc6Nspn/JgAweIK1o5hP3lwkf5Hkx7reAgBsypd3J2/am/xd10OGaFWs9nNdbwGASSRWAwAAANomVgMAqhCrAXWMkr9JclfdM4vJW5rY04D9SYoan39yKvlYU2MAYMgEaxsYx2qfjFgNAPriS7uSs09IHu56yBCJ1QBgY2I1AAAAoG1iNQCgCrEa0JCrGrhxcQM3mjBX58NFct0oWWpqDAAMmWBtHfPJW7xZDQB65XNlcuaeZKHrIUMkVgOAjYnVAAAAgLaJ1QCAKsRqQFOWkytW/qeWX30weU4Te7bqoeSlSV5T88yBJrYAwE4gWFvDOFb7ZJJndb0FANiUO48kb51NHul6yBA9mpwkVgOA9YnVAAAAgLaJ1QCAKsRqQJNOTL6T5M6aZ569Ozm/iT1btTu5qOaJxenk+kbGAMAOIFh7hvnkXLEaAPTKjY8l5+5NHu16yBCJ1QBgY2I1AAAAoG1iNQCgCrEa0IaymTeL7W/gxpaVyb6aJ64pkicbGQMAO4BgbZVxrPaJiNUAoC9uOJScf0ryeNdDhmhVrPazXW8BgEkkVgMAAADaJlYDAKoQqwEtuib1f0brzY8mJzUxpqrF5FVJXlHzTBPRHgDsGIK1sYXkrWI1AOiV60bJO05Nnuh6yBCJ1QBgY2I1AAAAoG1iNQCgCrEa0KbZ5JEi+XTNM7ufTi5sZFBFZTJX88Q3R8lnGxkDADuEYC0rsVqSj0esBgB9cc0oucAr1tsxjtVui1gNANYkVgMAAADaJlYDAKoQqwHbpIk3jF3cwI2teFfNz19ZJGUjSwBgh9jxwdo4VvNmNQDoj4Oj5BI/IN6OVbHaK7veAgCTSKwGAAAAtE2sBgBUIVYDtst0cn2S+ZpnXreUnNrEns16OPmlJD9d50aZHGxoDgDsGDs6WFtI3paVWO24rrcAAEdXJP9llLy7SA53vWWIHkieK1YDgPWJ1QAAAIC2idUAgCrEasB2KpKnknys7pnl5KIm9mzWrmSu5okvzSZfbWQMAOwgOzZYG8dqH49YDQD64kPTya8VyXLXQ4bogeS5xyS3RqwGAGsSqwEAAABtE6sBAFWI1YCOHGjgxrsbuLEpZTJVJvtq3mji3xkAdpwdGayJ1QCgd/50lPyGWK0d41jNm9UAYB1iNQAAAKBtYjUAoAqxGtCVUfK5JPfWPPOKheTnmthzNEvJG5I8r8aJI0eSg03tAYCdZMcFawvJr0SsBgB98kczyW8WSdn1kCFaFau9oustADCJxGoAAABA28RqAEAVYjWgS0VSlslVDZza38CNoyqTuZonbjkpub+RMQCww+yoYG0cq10bsRoA9MX7Z5Lf7XrEUInVAGBjYjUAAACgbWI1AKAKsRowCXYnH2ngzCVlUjRwZ11lsqtI3lnnRpEcaGoPAOw0OyZYW0wuSPKJiNUAoBeK5F/OJL/f9Y6hejA5WawGAOsTqwEAAABtE6sBAFWI1YBJsSf52zL5Ys0zL1hMXt/IoHUsJGeVyXNrnPje0ys/ew4AbMGOCNYWkwvK5Ookx3S9BQA4qrJMfnuU/KuuhwzVg8nJu8VqALAusRoAAADQNrEaAFCFWA2YNFPNvHlsfwM31jWVzNU88YmTku82MgYAdqDBB2vzyTvFagDQG2WRvG82+UDXQ4ZqVaz28q63AMAkEqsBAAAAbROrAQBViNWASbQ7uSrJ4Zpn9pUt/Xx3mRxbJufXPNNElAcAO9agg7X55J1FcjBiNQDogzLJe0bJv+96yFCJ1QBgY2I1AAAAoG1iNQCgCrEaMKmOTx7Myu9t6jhxMTmniT3PtJScm2Rmq58vkwdHyc0NTgKAHWewwdp8cqFYDQB640iRXDaTfLDrIUM1nzx/d/KZiNUAYE1iNQAAAKBtYjUAoAqxGtADTbyBbH8DN35EmczVPHGwqP8GOQDY0QYZrI1jtasiVgOAPjhSJJeOkg93PWSo5pPnF8ntSX666y0AMInEagAAAEDbxGoAQBViNaAPnko+keS7Nc+848HkOU3s+b77kmcn+dU6N8pmYjwA2NEGF6x5sxoA9MrTZTI3Sq7oeshQzSeniNUAYH1iNQAAAKBtYjUAoAqxGtAXJyePJflkzTM/vjt5exN7vu+45LzUiODK5G9PTP57g5MAYEcaVLC2Klbb3fUWAOConiqSfbPJtV0PGSqxGgBsTKwGAAAAtE2sBgBUIVYD+qahN5Htb+DGanN1PjzlL18HgEYMJlibT94lVgOA3ngyyYWj+n/DDutYFau9uOstADCJxGoAAABA28RqAEAVYjWgj2aSm5PcX/PMuY809Pumh5Lji+StNU6URTMRHgDseIMI1sax2lURqwFAH3xvOTlvJvlU10OGSqwGABsTqwEAAABtE6sBAFWI1YC+KpIjZXJ1zTPHHE4ubGLP7uT8JD9W48R/nU7ubWILAOx0vQ/W5pN9YjUA6I3HiuS8E1e+QUsLxGoAsDGxGgAAANA2sRoAUIVYDei7Xc28kWx/AzdSJnM1T3i7GgA0pNfB2jhWOxCxGgD0waEyOWe0ElPRgoXkBWI1AFifWA0AAABom1gNAKhCrAYMwXTyxSRfrXnmjYvJi+ocWEpGSc6pceLp3cnH6mwAAH6gt8GaWA0AemVpOXnzbPL5rocM1ULygojVAGBdYjUAAACgbWI1AKAKsRowJEVydd0TZbKvzoEjyYVJjq1x4voTkofrbAAAfqCXwdp8MidWA4DeeKhITj8x+ULXQ4ZqVaz2U11vAYBJJFYDAAAA2iZWAwCqEKsBA3RFkrLmjf01Pz9X58Plys+mAwAN6V2wNo7VroxYDQAmXpE8kOSsUfKVrrcMlVgNADYmVgMAAADaJlYDAKoQqwFDNEq+meRzNc+8ej555VY++GBycpGcXuPZj3wvua7G5wGAZ+hVsCZWA4BeuX85OXMmuavrIUMlVgOAjYnVAAAAgLaJ1QCAKsRqwMA18Yayi7byoWOSdyXZtdWHFsnHTkke3+rnAYAf1ZtgbWHlB8zEagDQD9/alZw2m9zd9ZChGsdqd0SsBgBrEqsBAAAAbROrAQBViNWAoZtKPprkyTo3iuTiMimqfq5M5uo8N83EdgDAKr0I1hZWavkrIlYDgD74xlRyxp7k610PGarF5IVZidVO7XgKAEwksRoAAADQNrEaAFCFWA3YCaaTxSQ31DzzUwvJL1X5wHxySpLX1Xjmd6aTO2t8HgBYw8QHa+NYzZvVAKAHiuSeMjltOrm36y1DtZi8sExuj1gNANYkVgMAAADaJlYDAKoQqwE7SdnAm8qK5OKKX39RtvBWtlWuLJIjNT4PAKxhooO1hWR/VmK1XV1vAQCO6muHkzNmk293PWSoxGoAsDGxGgAAANA2sRoAUIVYDdhpHkmuS7JU88xFZbUXnczVfF7tyA4A+FETG6wtJpdGrAYAfXH3keTMvcl9XQ8ZqnGsdkfEagCwJrEaAAAA0DaxGgBQhVgN2IlOTZ4okmtrntm7kJy1mS9cSl6c5LU1nvU/Z5K7anweAFjHRAZri8mlZfLnmdB9AMAP+fLu5E17k7/reshQrYrVXtTxFACYSGI1AAAAoG1iNQCgCrEasMM18cay/Zv5ojK5uOZzvF0NAFoycUGYWA0AeuVLu5KzT0ge7nrIUC0mLxKrAcD6xGoAAABA28RqAEAVYjVgp5te+Vmnb9S5USQX3Jc8+2hfVyZzNR6zXCYHa3weANjAREVh88llYjUA6I3PlsmZe5KFrocM1ThWuz1iNQBYk1gNAAAAaJtYDQCoQqwGkBRJmeSjNc8cf1xy3kZfsJD8bJJXbvUBZXLHbPL/tvp5AGBjExOGzSeXFcl/zgRtAgDWdeeR5G2zySNdDxmqQ8lLyuQzEasBwJrEagAAAEDbxGoAQBViNYAfKJOP1L1RJPuP8ow6b1dLkgM1Pw8AbGAi4jCxGgD0yo2PJefuTR7teshQHUpecmTlzWrP73oLAEwisRoAAADQNrEaAFCFWA3gh80mdyf5Ss0zbzuUzGzwz+sEa09MJR+v8XkA4Cg6D8Tmk38sVgOA3rj+UHL+KcnjXQ8ZqlWx2vO63gIAk0isBgAAALRNrAYAVCFWA1hX3TeYHXs4uWCtf7CU/GKRvKTG7b8cJUs1Pg8AHEWnkdg4VvtPXe8AADblulFywanJE10PGSqxGgBsTKwGAAAAtE2sBgBUIVYDWN+RlWDtSM0z+9f6xeV6b1dLUT+mAwCOorNQbD75J2I1AOiNa0bJBUXyZNdDhkqsBgAbE6sBAAAAbROrAQBViNUANrY3ua9M7qhzo0hOn0+ev/rXyqRI8q4aZxemk7+qswsAOLpOYrFxrPahrp4PAFRycJRc4ofD2/NQ8jNiNQBYn1gNAAAAaJtYDQCoQqwGsDlT9d9kNpVnvE1tMXl9khfWuHl1kTxVaxUAcFTbHoyJ1QCgP4rkz0fJu4vkcNdbhuqh5Gd2idUAYF1iNQAAAKBtYjUAoAqxGsDmLSfXJvlenRtFsv8ZvzS35hduUlk/ogMANmFbo7H55J+K1QCgNz40nfx6kSx3PWSoVsVqP9n1FgCYRGI1AAAAoG1iNQCgCrEaQDWzySNJPlXzzGvnk1ckSbnyM+jvrHHrGzPJ52vuAQA2YdvCsXGs9mfb+UwAYMv+dJT8hlitPQ8lLxWrAcD6xGoAAABA28RqAEAVYjWALWvijWb7kmQ+OTPJT2z1SJl8pEjKBvYAAEexLfGYN6sBQK/84Uzym35j3p5xrHZbxGoAsCaxGgAAANA2sRoAUIVYDWDrRskNZfJgnRtF8u4yKXYlc3XuLCdX1fk8ALB5rQdkC8mvjWO1ou1nAQC1vX8m+b2uRwyZWA0ANiZWAwAAANomVgMAqhCrAdRTJIeL5GM1z7x4MXldmbyjxo4v7E3+T80dAMAmtRqsLST/LMmfRawGAH3wL2aS3+96xJA9nLx8V3JHxGoAsCaxGgAAANC2xeQ1ZXJrxGoAwCaUyR+I1QDqK5MrGzjz0dT7vdyBBjYAAJvUWrC2kPx6kj+JWA0AJl1ZJr81k/zrrocM2UPJS6dWvgF+ctdbAGASidUAAACAto3frHZzkpmutwAAk69ILp9NLu96B8AQzCZ/XST31DzzvBqfPfzUSvAGAGyTVoK1caz2HyNWA4BJVxbJe2eTP+56yJA9nLxsV3J7kp/oegsATCKxGgAAANC2cax2S7xZDQDYhCK53JvVAJq1nBzs8PE3PTd5oMPnA8CO03iwJlYDgN4ok7xntPJGVFrycPKyqeS2iNUAYE1iNQAAAKBtYjUAoAqxGkA7didXZuVn1rpwoKPnAsCO1Wiwtpi8N2I1AOiDI0Vy2Uzywa6HDJlYDQA2JlYDAAAA2iZWAwCqEKsBtGdP8vUkX+jg0Y8dTv6yg+cCwI7WWLC2mLy3TD4QsRoATLojRXLpKPlw10OGbByr3R6xGgCsSawGAAAAtE2sBgBUIVYDaF/RzZvOrj0p+W4HzwWAHa2RYG0cq/1xxGoAMOmeLpO5UXJF10OG7OHk5eNY7eSutwDAJBKrAQAAAG0TqwEAVYjVALbH7uTqbPP3ictuIjkA2PFqB2vzyfvGsRoAMNmeKpJ9s8m1XQ8ZsnGsdlvEagCwJrEaAAAA0DaxGgBQhVgNYPscnzyU5Kbtel6RPDCz8rNcAMA2qxWszSfvK5IPNDUGAGjNk0kuHCWf7HrIkInVAGBjYjUAAACgbWI1AKAKsRpAJ7bzjWcHiuTwNj4PABjbcrA2n/yWWA0AeuF7y8l5M8mnuh4yZAvJz08ld0asBgBrEqsBAAAAbROrAQBViNUAuvHYyl+6fmg7nlVsbxwHAKyypWBtHKv9u6bHAACNe6xIzjtx5ZuztGQxeVWSW5Oc2PUWAJhEYjUAAACgbWI1AKAKsRpAd05JHi9XorW2/e/p5H9sw3MAgDVUDtbEagDQG4fK5JxRcnvXQ4ZsMXnV+BvgYjUAWINYDQAAAGibWA0AqEKsBjARtuPNZ1duwzMAgHVUCtbmk98WqwFALywtJ2+eTT7f9ZAhE6sBwMbEagAAAEDbxGoAQBViNYDJMJPcmuQ7LT6inEoOtngfADiKTQdr41jt37Y5BgBoxENFcvqJyRe6HjJkYjUA2JhYDQAAAGibWA0AqEKsBjA5imS5SK5u8RGfmU7+b4v3AYCj2FSwNp/8c7EaAEy+InkgyVmj5CtdbxmyVd8AF6sBwBrEagAAAEDbxGoAQBViNYCJdKCntwGATThqsDaO1f5oO8YAALXcv5ycOZPc1fWQIROrAcDGxGoAAABA28RqAEAVYjWAyTRKvpzkf7Vw+qndybUt3AUAKtgwWFtIfkesBgC98K1dyWmzyd1dDxky3wAHgI2J1QAAAIC2+bN6AKAKsRrAxLuq6YNlct0JyXzTdwGAatYN1haS30nyh9u4BQDYmm9MJWfsSb7e9ZAh8w1wANiYWA0AAABomz+rBwCqEKsB9MKBJMtNHpxauQkAdGzNYG0h+d2I1QBg4hXJPWVy2nRyb9dbhmwxeY1vgAPA+sRqAAAAQNvEagBAFWI1gH6YSb6V5DMNnjy0lFzf4D0AYIt+JFgbx2rv72ALAFDN1w4nZ8wm3+56yJCNY7Wb4xvgALAmsRoAAADQNrEaAFCFWA2gX8pm34j20VOTJxq8BwBs0Q8Fa2I1AOiNuw8nZ+xN7ut6yJB5sxoAbEysBgAAALRNrAYAVCFWA+ifIrkmyeMN3WoyfgMAavj7YG0h+b2I1QCgD768O3nTScn9XQ8ZslWx2kzXWwBgEonVAAAAgLaJ1QCAKsRqAP00kxwqkusbOPWt6eSzDdwBABowlfx9rPZvOt4CABxFmXxxV3L2CcnDXW8ZsqXkF8RqALA+sRoAAADQNrEaAFCFWA2g95p4M9qVRbLcwB0AoAFTYjUA6I3PJjlrT7LQ9ZAhW0p+YTm5OWI1AFiTWA0AAABom1gNAKhCrAbQf9PJp5PM1zxzsIktAEAz/j/bTrIJKzCqjwAAAABJRU5ErkJggg==;" vertex="1" parent="1">
          <mxGeometry x="20" y="220" width="170" height="42.5" as="geometry" />
        </mxCell>
        <mxCell id="k85bz9Jub81MBLHS7Vki-2" value="" style="endArrow=classic;html=1;rounded=0;exitX=1;exitY=0.25;exitDx=0;exitDy=0;entryX=0;entryY=0.5;entryDx=0;entryDy=0;" edge="1" parent="1" source="k85bz9Jub81MBLHS7Vki-1" target="k85bz9Jub81MBLHS7Vki-12">
          <mxGeometry width="50" height="50" relative="1" as="geometry">
            <mxPoint x="400" y="220" as="sourcePoint" />
            <mxPoint x="310" y="230" as="targetPoint" />
          </mxGeometry>
        </mxCell>
        <mxCell id="k85bz9Jub81MBLHS7Vki-3" value="" style="endArrow=classic;html=1;rounded=0;exitX=1;exitY=1;exitDx=0;exitDy=0;" edge="1" parent="1" source="k85bz9Jub81MBLHS7Vki-1">
          <mxGeometry width="50" height="50" relative="1" as="geometry">
            <mxPoint x="400" y="220" as="sourcePoint" />
            <mxPoint x="350" y="340" as="targetPoint" />
          </mxGeometry>
        </mxCell>
        <mxCell id="k85bz9Jub81MBLHS7Vki-4" value="@daily" style="text;html=1;strokeColor=none;fillColor=none;align=center;verticalAlign=middle;whiteSpace=wrap;rounded=0;" vertex="1" parent="1">
          <mxGeometry x="210" y="210" width="60" height="30" as="geometry" />
        </mxCell>
        <mxCell id="k85bz9Jub81MBLHS7Vki-5" value="@minuts" style="text;html=1;strokeColor=none;fillColor=none;align=center;verticalAlign=middle;whiteSpace=wrap;rounded=0;rotation=30;" vertex="1" parent="1">
          <mxGeometry x="240" y="277" width="60" height="30" as="geometry" />
        </mxCell>
        <mxCell id="k85bz9Jub81MBLHS7Vki-10" value="" style="swimlane;startSize=0;" vertex="1" parent="1">
          <mxGeometry x="311" y="141" width="229" height="259" as="geometry" />
        </mxCell>
        <mxCell id="k85bz9Jub81MBLHS7Vki-15" value="real time table" style="swimlane;childLayout=stackLayout;horizontal=1;startSize=20;horizontalStack=0;rounded=1;fontSize=14;fontStyle=0;strokeWidth=2;resizeParent=0;resizeLast=1;shadow=0;dashed=0;align=center;" vertex="1" parent="k85bz9Jub81MBLHS7Vki-10">
          <mxGeometry x="45" y="159" width="110" height="90" as="geometry" />
        </mxCell>
        <mxCell id="k85bz9Jub81MBLHS7Vki-12" value="wearhouse " style="swimlane;childLayout=stackLayout;horizontal=1;startSize=20;horizontalStack=0;rounded=1;fontSize=14;fontStyle=0;strokeWidth=2;resizeParent=0;resizeLast=1;shadow=0;dashed=0;align=center;" vertex="1" parent="k85bz9Jub81MBLHS7Vki-10">
          <mxGeometry x="50" y="49" width="100" height="83" as="geometry" />
        </mxCell>
        <mxCell id="k85bz9Jub81MBLHS7Vki-17" value="" style="shape=image;verticalLabelPosition=bottom;labelBackgroundColor=default;verticalAlign=top;aspect=fixed;imageAspect=0;image=data:image/png,iVBORw0KGgoAAAANSUhEUgAAAOIAAADfCAMAAADcKv+WAAAAbFBMVEX////yyBHxxQDxxAD22Xf667v++er77cP66rb//fb00VH22HD78M3zzTfyyADzyyT23H/33ov89Nr556311F/44pr23IX78dH99+P00U/++/H778jzzj/33IT001j44JT55aX11mjzzC/00EbsrekLAAAG1klEQVR4nO2da5uiIBSAEUrtRllaTjXZ5f//x9XZdgLEBEMB97z7aZ+88A4ejiICQgAAAAAAAAAAuEqY56HtMvRHeL0F5Icgzba2S9MD8ZlgGjyhmKyz3HaRzBIFL78nmATfJ9vlMkdKAhkY43Q3itAMAyw1fF6y9+Rgu4SfkuNmw2dd4kV8tF3MDwjfC/5W5tnfVnYttjONlUnoJLJd2i5MVCqRqcyvq2/JZCtvS99arv1KJuf6ZYppScs161EyOdQqsUwSt8nigWu3ArXKvBdeJJObIILXu9nfX04pabEM/EgmQiWShPltNl3glpTpQTKZ8gYkFjdY7gPSokl/ksnMRvFV2HClx4Vsm222ar1kHU4mK05x3bRZuLuoWDr5ZMJXYu0yZVEIzOoGyLVkMuNaG9IWTwqB6dyTCaeIzwp75AqB6VQy4RTpQm2no0JgupNM+FrcqO8YTdoD041kwtfiRGvfQ7JWqkzLyaTThfoiz85KljaTyYeKqArMtO2GPbCaTD5XrFAJTGvJxIwiqgIzUMolwycTY4pIMTCHTyYmFZFGYA6YTAwrVigF5oDJpAdFpJgxh0om/SiW5NeHguUQ3Vy9KZYc4/bOn6D/ZNKnYkU0oaQ9MHtNJn0rItXA7C+ZDKCINAKzj3cmwyhWJ4pTlVzSQzIZTLEi2qgEpulkMqhiybZQCkyTyWRoRaQcmMaSiQXF6qzxTSkwq8q8fZpM7ChWnNQC8/NkYk8RVYF5V71kP0gmVhVRNSTtS8my1MRZt1PYVkQ6gXnv1MQ6oFjxE5jtvT+kS7Z0RBEpBiaZ6h/YHUWkFJhkqX1UpxSr8kxbAhNrZ0nXFCtOmzdv+KjK2zMOFxXR28DEO81jOaqI3gQm1TyQu4qoKTB1q9FpxYrld0D4usQrvSM4r1hymPPDn4jeTY4PigjFnKPmleqHIj8WUfNltieKaMe0OkoDS174osiN8tJLG94oxowi0drTG0V2UOlYFR/UecWweNAXwUX3VpMZVeqoYiHccFKM9R7hM9cVF5KHo/oI5ncUjivupN+CEJ3XM4njivIHXHrROITjitOGZ/jWIb4MjismDYo6LY7jipOGbjWs0WcIis2AoiFAUQlQbAYUDQGKSoBiM6BoiDEoHuPkl6I+fGQEihOCOcThI94rHmszyeAvfgsTila7pySzkOCU28J3xUz2vMuPkHFHEX9r7ftEWny+W8aqIpq/9qSB3q5/aZhoBbPb2FV8vfLBtNMQs0jeL8O9yjWsiNu35ilbfFr+I2m377R8UER5MV/Nk66jWr1QbOWQ7Z9872tj0seguFxz9y5kwV/QI1DMxBHcQrPkv2JUzwl8cvFfUVY4zM5s5L1iLBVgz+G9orxwmPkIxnvFuVyRKdpYFZlX2KD4AygqAYpvmO0W88uTtP654AgUM4yZMU2YPIS7bP8Vb2L5KOYfqtxRZI6ho1hIike5BwnfFY+ybhe8H5OitHuQP4DvihfpmQkbjb4rruS1yH4/B4qg2JOixgh/UARFUARFUARFUARFUARFUATF/1xxAYqgCIqgCIqgCIr/qWLjaligCIqgCIqgCIqgCIqgCIqgaFQxBUVQBEWPFR/y8rOjp31XnEhLR9gp5H1XPMmG3PIzyLujOO+kiFaSU/Nf5LujyJxGRzGsL6AjLL/sjOKpoyLKKV9ASvb8Bs4osiOgtRQRKoLXl8KEXMRvUVxRXDLNBn3oKZZX6/aX+o+OKM7YA+gsZa7AsIrHpjlhuXaRPbtnillAylCRWIb8dDPE7HKbAyrefw5EyUKUvPJrauiHoiuKv59vUfKImY+aduKcSDrJVIVUrsjMoGVIkf24qVrJbr87HQ7RNZWs42PWUPrhGF9+Q4rCYf7lsfqOelNxK5BLb2PZaOhHsRHTkYga5jRnbxAMKUr/lrJdeli9eF1TIAX7u6nm5q5UjcT4mr4lsy9+hSBMrtzvphSXKtVIOq7B2EZ0Ke9e/xFshK+NjeXFa/u6oSRBNjB3d7OV9yUxxyyQFUzeo2akYcMK2mXxRSMYfdII00ZJfDe6rLYOhh+mthdpSOK+GhoVTg2KbP7Sel7MEyosZlf+P+k2SZ0ZQnljzw3i0n0kPiRnpi+C3mwF4T+kORtzi5Z1eerfTq9FkhTXyFoIvpjKqpFfXc9EJ6NVahN1lIZXbgvvFdFNaOmp2Pz5r4iiFTunIbmIXXkjUCwf2g8v6u37KBTfA4pjABTHwKbhQRD30U1hh12DouYKwy4jneQq0F4n2mm+5T3OeotMOo6sW4aYfU9onbnYY0Etdaf1SPRFWPCi61zsThO+6KHbHgAAAAAAAADc4w+hIJmL1kwE2QAAAABJRU5ErkJggg==;" vertex="1" parent="1">
          <mxGeometry x="610" y="210" width="121.48" height="119.87" as="geometry" />
        </mxCell>
        <mxCell id="k85bz9Jub81MBLHS7Vki-18" value="" style="endArrow=classic;html=1;rounded=0;entryX=0;entryY=0.091;entryDx=0;entryDy=0;entryPerimeter=0;" edge="1" parent="1" target="k85bz9Jub81MBLHS7Vki-17">
          <mxGeometry width="50" height="50" relative="1" as="geometry">
            <mxPoint x="460" y="220" as="sourcePoint" />
            <mxPoint x="450" y="170" as="targetPoint" />
          </mxGeometry>
        </mxCell>
        <mxCell id="k85bz9Jub81MBLHS7Vki-20" value="" style="endArrow=classic;html=1;rounded=0;entryX=-0.003;entryY=0.923;entryDx=0;entryDy=0;exitX=1;exitY=0.25;exitDx=0;exitDy=0;entryPerimeter=0;" edge="1" parent="1" source="k85bz9Jub81MBLHS7Vki-15" target="k85bz9Jub81MBLHS7Vki-17">
          <mxGeometry width="50" height="50" relative="1" as="geometry">
            <mxPoint x="400" y="220" as="sourcePoint" />
            <mxPoint x="450" y="170" as="targetPoint" />
          </mxGeometry>
        </mxCell>
        <mxCell id="k85bz9Jub81MBLHS7Vki-21" value="" style="swimlane;startSize=0;" vertex="1" parent="1">
          <mxGeometry x="20" y="40" width="790" height="410" as="geometry" />
        </mxCell>
        <mxCell id="k85bz9Jub81MBLHS7Vki-9" value="" style="sketch=0;outlineConnect=0;fontColor=#232F3E;gradientColor=none;fillColor=#2E27AD;strokeColor=none;dashed=0;verticalLabelPosition=bottom;verticalAlign=top;align=center;html=1;fontSize=12;fontStyle=0;aspect=fixed;pointerEvents=1;shape=mxgraph.aws4.rds_mysql_instance;" vertex="1" parent="k85bz9Jub81MBLHS7Vki-21">
          <mxGeometry x="390" y="84" width="46" height="46" as="geometry" />
        </mxCell>
        <mxCell id="k85bz9Jub81MBLHS7Vki-23" value="" style="shape=image;verticalLabelPosition=bottom;labelBackgroundColor=default;verticalAlign=top;aspect=fixed;imageAspect=0;image=data:image/jpeg,/9j/4AAQSkZJRgABAQAAAQABAAD/4QCQRXhpZgAASUkqAAgAAAAGABIBAwABAAAAAQAAABoBBQABAAAAWAAAABsBBQABAAAAYAAAACgBAwABAAAAAgAAABMCAwABAAAAAQAAAGmHBAABAAAAaAAAAAAAAAAAAGAAAAABAAAAYAAAAAEAAAACAAGRBwAEAAAAAQIDAAGgAwABAAAA//8AAAAAAAAAAP/hBPNodHRwOi8vbnMuYWRvYmUuY29tL3hhcC8xLjAvADx4OnhtcG1ldGEgeG1sbnM6eD0nYWRvYmU6bnM6bWV0YS8nPgogICAgICAgIDxyZGY6UkRGIHhtbG5zOnJkZj0naHR0cDovL3d3dy53My5vcmcvMTk5OS8wMi8yMi1yZGYtc3ludGF4LW5zIyc+CgogICAgICAgIDxyZGY6RGVzY3JpcHRpb24gcmRmOmFib3V0PScnCiAgICAgICAgeG1sbnM6ZGM9J2h0dHA6Ly9wdXJsLm9yZy9kYy9lbGVtZW50cy8xLjEvJz4KICAgICAgICA8ZGM6dGl0bGU+CiAgICAgICAgPHJkZjpBbHQ+CiAgICAgICAgPHJkZjpsaSB4bWw6bGFuZz0neC1kZWZhdWx0Jz5Db3B5IG9mIGRpbWVuc2lvbiBzaXRlICAtIDE8L3JkZjpsaT4KICAgICAgICA8L3JkZjpBbHQ+CiAgICAgICAgPC9kYzp0aXRsZT4KICAgICAgICA8L3JkZjpEZXNjcmlwdGlvbj4KCiAgICAgICAgPHJkZjpEZXNjcmlwdGlvbiByZGY6YWJvdXQ9JycKICAgICAgICB4bWxuczpBdHRyaWI9J2h0dHA6Ly9ucy5hdHRyaWJ1dGlvbi5jb20vYWRzLzEuMC8nPgogICAgICAgIDxBdHRyaWI6QWRzPgogICAgICAgIDxyZGY6U2VxPgogICAgICAgIDxyZGY6bGkgcmRmOnBhcnNlVHlwZT0nUmVzb3VyY2UnPgogICAgICAgIDxBdHRyaWI6Q3JlYXRlZD4yMDIzLTAxLTIwPC9BdHRyaWI6Q3JlYXRlZD4KICAgICAgICA8QXR0cmliOkV4dElkPjI2NzI2MzNiLWY4NTQtNDkxZS1iNjA4LWFlNTQzMjNmY2ZlOTwvQXR0cmliOkV4dElkPgogICAgICAgIDxBdHRyaWI6RmJJZD41MjUyNjU5MTQxNzk1ODA8L0F0dHJpYjpGYklkPgogICAgICAgIDxBdHRyaWI6VG91Y2hUeXBlPjI8L0F0dHJpYjpUb3VjaFR5cGU+CiAgICAgICAgPC9yZGY6bGk+CiAgICAgICAgPC9yZGY6U2VxPgogICAgICAgIDwvQXR0cmliOkFkcz4KICAgICAgICA8L3JkZjpEZXNjcmlwdGlvbj4KCiAgICAgICAgPHJkZjpEZXNjcmlwdGlvbiByZGY6YWJvdXQ9JycKICAgICAgICB4bWxuczpwZGY9J2h0dHA6Ly9ucy5hZG9iZS5jb20vcGRmLzEuMy8nPgogICAgICAgIDxwZGY6QXV0aG9yPkxhdXJlIEF1ZHVib248L3BkZjpBdXRob3I+CiAgICAgICAgPC9yZGY6RGVzY3JpcHRpb24+CgogICAgICAgIDxyZGY6RGVzY3JpcHRpb24gcmRmOmFib3V0PScnCiAgICAgICAgeG1sbnM6eG1wPSdodHRwOi8vbnMuYWRvYmUuY29tL3hhcC8xLjAvJz4KICAgICAgICA8eG1wOkNyZWF0b3JUb29sPkNhbnZhPC94bXA6Q3JlYXRvclRvb2w+CiAgICAgICAgPC9yZGY6RGVzY3JpcHRpb24+CiAgICAgICAgPC9yZGY6UkRGPgogICAgICAgIDwveDp4bXBtZXRhPv/bAEMABgQFBgUEBgYFBgcHBggKEAoKCQkKFA4PDBAXFBgYFxQWFhodJR8aGyMcFhYgLCAjJicpKikZHy0wLSgwJSgpKP/bAEMBBwcHCggKEwoKEygaFhooKCgoKCgoKCgoKCgoKCgoKCgoKCgoKCgoKCgoKCgoKCgoKCgoKCgoKCgoKCgoKCgoKP/AABEIA+gHgAMBIgACEQEDEQH/xAAfAAABBQEBAQEBAQAAAAAAAAAAAQIDBAUGBwgJCgv/xAC1EAACAQMDAgQDBQUEBAAAAX0BAgMABBEFEiExQQYTUWEHInEUMoGRoQgjQrHBFVLR8CQzYnKCCQoWFxgZGiUmJygpKjQ1Njc4OTpDREVGR0hJSlNUVVZXWFlaY2RlZmdoaWpzdHV2d3h5eoOEhYaHiImKkpOUlZaXmJmaoqOkpaanqKmqsrO0tba3uLm6wsPExcbHyMnK0tPU1dbX2Nna4eLj5OXm5+jp6vHy8/T19vf4+fr/xAAfAQADAQEBAQEBAQEBAAAAAAAAAQIDBAUGBwgJCgv/xAC1EQACAQIEBAMEBwUEBAABAncAAQIDEQQFITEGEkFRB2FxEyIygQgUQpGhscEJIzNS8BVictEKFiQ04SXxFxgZGiYnKCkqNTY3ODk6Q0RFRkdISUpTVFVWV1hZWmNkZWZnaGlqc3R1dnd4eXqCg4SFhoeIiYqSk5SVlpeYmZqio6Slpqeoqaqys7S1tre4ubrCw8TFxsfIycrS09TV1tfY2dri4+Tl5ufo6ery8/T19vf4+fr/2gAMAwEAAhEDEQA/APqmiiigAooooAKKKKACiiigAooooAKKKKACiiigAooooAKKKKACiiigAooooAKKKKACiiigAooooAKKKKACiiigAooooAKKKKACiiigAooooAKKKKACiiigAooooAKKKKACiiigAooooAKKKKACiiigAooooAKKKKACiiigAooooAKKKKACiiigAooooAKKKKACiiigAooooAKKKKACiiigAooooAKKKKACiiigAooooAKKKKACiiigAooooAKKKKACiiigAooooAKKKKACiiigAooooAKKKKACiiigAooooAKKKKACiiigAooooAKKKKACiiigAooooAKKKKACiiigAooooAKKKKACiiigAooooAKKKKACiiigAooooAKKKKACiiigAooooAKKKKACiiigAooooAKKKKACiiigAooooAKKKKACiiigAooooAKKKKACiiigAooooAKKKKACiiigAooooAKKKKACiiigAooooAKKKKACiiigAooooAKKKKACiiigAooooAKKKKACiiigAooooAKKKKACiiigAooooAKKKKACiiigAooooAKKKKACiiigAooooAKKKKACiiigAooooAKKKKACiiigAooooAKKKKACiiigAooooAKKKKACiiigAooooAKKKKACiiigAooooAKKKKACiiigAooooAKKKKACiiigAooooAKKKKACiiigAooooAKKKKACiiigAooooAKKKKACiiigAooooAKKKKACiiigAooooAKKKKACiiigAooooAKKKKACiiigAooooAKKKKACiiigAooooAKKKKACiiigAooooAKKKKACiiigAooooAKKKKACiiigAooooAKKKKACiiigAooooAKKKKACiiigAooooAKKKKACiiigAooooAKKKKACiiigAooooAKKKKACiiigAooooAKKKKACiiigAooooAKKKKACiiigAooooAKKKKACiiigAooooAKKKKACiiigAooooAKKKKACiiigAooooAKKKKACiiigAooooAKKKKACiiigAooooAKKKKACiiigAooooAKKKKACiiigAooooAKKKKACiiigAooooAKKKKACiiigAooooAKKKKACiiigAooooAKKKKACiiigAooooAKKKKACiiigAooooAKKKKACiiigAooooAKKKKACiiigAooooAKKKKACiiigAooooAKKKKACiiigAooooAKKKKACiiigAooooAKKKKACiiigAooooAKKKKACiiigAooooAKKKKACiiigAooooAKKKKACiiigAooooAKKKKACiiigAooooAKKKKACiiigAooooAKKKKACiiigAooooAKKKKACiiigAooooAKKKKACiiigAooooAKKKKACiiigAooooAKKKKACiiigAooooAKKKKACiiigAooooAKKKKACiiigAooooAKKKKACiiigAooooAKKKKACiiigAooooAKKKKACiiigAooooAKKKKACiiigAooooAKKKKACiiigAooooAKKKKACiiigAooooAKKKKACiiigAooooAKKKKACiiigAooooAKKKKACiiigAooooAKKKKACiiigAooooAKKKKACiiigAooooAKKKKACiiigAooooAKKKKACiiigAooooAKKKKACiiigAooooAKKKKACiiigAooooAKKKKACiiigAooooAKKKKACiiigAooooAKKKKACiiigAooooAKKKKACiiigAooooAKKKKACiiigAooooAKKKKACiiigAooooAKKKKACiiigAooooAKKKKACiiigAooooAKKKKACiiigAooooAKKKKACiiigAooooAKKKKACiiigAooooAKKKKACiiigAooooAKKKKACiiigAooooAKKKKACiiigAooooAKKKKACiiigAooooAKKKKACiiigAooooAKKKKACiiigAooooAKKKKACiiigAooooAKKKKACiiigAooooAKKKKACiiigAooooAKKKKACiiigAooooAKKKKACiiigAooooAKKKKACiiigAooooAKKKKACiiigAooooAKKKKACiiigAooooAKKKKACiiigAooooAKKKKACiiigAooooAKKKKACiiigAooooAKKKKACiiigAooooAKKKKACiiigAooooAKKKKACiiigAooooAKKKKACiiigAooooAKKKKACiiigAooooAKKKKACiiigAooooAKKKKACiiigAooooAKKKKACiiigAooooAKKKKACiiigAooooAKKKKACiiigAooooAKKKKACiiigAooooAKKKKACiiigAooooAKKKKACiiigAooooAKKKKACiiigAooooAKKKKACiiigAooooAKKKKACiiigAooooAKKKKACiiigAooooAKKKKACiiigAooooAKKKKACiiigAooooAKKKKACiiigAooooAKKKKACiiigAooooAKKKKACiiigAooooAKKKKACiiigAooooAKKKKACiiigAooooAKKKKACiiigAooooAKKKKACiiigAooooAKKKKACiiigAooooAKKKKACiiigAooooAKKKKACiiigAooooAKKKKACiiigAooooAKKKKACiiigAooooAKKKKACiiigAooooAKKKKACiiigAooooAKKKKACiiigAooooAKKKKACiiigAooooAKKKKACiiigAooooAKKKKACiiigAooooAKKKKACiiigAooooAKKKKACiiigAooooAKKKKACiiigAooooAKKKKACiiigAooooAKKKKACiiigAooooAKKKKACiiigAooooAKKKKACiiigAooooAKKKKACiiigAooooAKKKKACiiigAooooAKKKKACiiigAooooAKKKKACiiigAooooAKKKKACiiigAooooAKKKKACiiigAooooAKKKKACiiigAooooAKKKKACiiigAooooAKKKKACiiigAooooAKKKKACiiigAooooAKKKKACiiigAooooAKKKKACiiigAooooAKKKKACiiigAooooAKKKKACiiigAooooAKKKKACiiigAooooAKKKKACiiigAooooAKKKKACiiigAooooAKKKKACiiigAooooAKKKKACiiigAooooAKKKKACiiigAooooAKKKKACiiigAooooAKKKKACiiigAooooAKKKKACiiigAooooAKKKKACiiigAooooAKKKKACiiigAooooAKKKKACiiigAooooAKKKKACiiigAooooAKKKKACiiigAooooAKKKKACiiigAooooAKKKKACiiigAooooAKKKKACiiigAooooAKKKKACiiigAooooAKKKKACiiigAooooAKKKKACiiigAooooAKKKKACiiigAooooAKKKKACiiigAoqhr2pJo+i3uoSoXW2iaTYDjdgcD8TXgtz8WPE8tw7xTW0MZPEawghR9Tk1zV8VToNKXU9PAZTiMenKlay7n0TRXzqvxY8UAcz2p+sApf8AhbPif/nraf8AfgVh/adHzO//AFYxneP3v/I+iaK+el+LniUdfsLfWE/41PH8Y/EK/ftdMce8Tg/+h01mVHzJfDONXb7z36ivCl+M+rj72m2B+hcf1qaP403w/wBZpFs3+7Kw/oar+0KHf8DN8OY9fZX3o9vorxqP42H/AJa6CD7rd/8A2FW4/jVZn/W6NcL/ALsyt/QVSx1B/a/MzeQZgv8Al3+K/wAz1qivL4vjNop/1un6iv8AuhG/9mFXYPi94akxvW/i/wB+EH+TGqWLov7SMZZPjo70meh0VxcHxO8Jy9dTaM+j28n9FrRt/HPhm4/1etWY/wCuj7P/AELFaKvSe0l95hLAYqHxUpL5M6OiqFtrWl3WPsupWU2enlzo38jV8EEAg5BrRNPY5pQlHSSsFFFFMkKKKKACiiigAooooAKKKKACiiigAooooAKKKKACiiigAooooAKKKKACiiigAooooAKKKKACiiigAooooAKKKKACiiigAooooAKKKKACiiigAooooAKKKKACiiigAoorhfGvjoaTcGy0pYprpT+9d+Vj/wBnjqf5fy0pUpVZcsEcmNx1HA0va13Zfn6HdUVyHgHxZJ4gE9veRJHdwgPmPIV1zjoehHH5119FWnKlLkluVhMXSxlJVqLvFhRRRWZ0hRRRQAUUUUAFFFFABRRRQAUUUUAFFFFABRRRQAUUUUAFFFFABRRRQAUUUUAFFFFABRRRQAUUUUAFFFFABRRRQAUUUUAFFFFABRRRQAUUUUAFFFFABRRRQAUUUUAFFFFABRRRQAUUUUAFFFFABRRRQAUUUUAFFFFABRRRQAUUUUAFFFFABRRRQAUUUUAFFFFABRRRQAUUUUAFFFFABRRRQAUUUUAFFFFABRRRQAUUUUAFFFFABRRRQAUUUUAFFFFABRRRQAUUUUAFFFFABRRRQAUUUUAFFFFABRRRQAUUUUAFFFFABRRRQAUUUUAFFFFABRRRQAUUUUAFFFFABRRRQAUUUUAFFFFABRRRQAUUUUAFFFFABRRRQAUUUUAFFFFABRRRQAUUUUAFFFFABRRRQAUUUUAFFFFABRRRQAUUUUAFFFFABRRRQAUUUUAFFFFABRRRQBBf2kN/ZT2l0gkgnQxyL6qRg181/EDwXd+E77PzTabK37m4x/463o38+3cD6bqrqen2uqWE1nfwrNbTLtdG7/4H3rlxWFjiI+a2PVyrNZ5fUvvB7r9V5nyDRXY/EPwRdeFL3fHun0uVv3M+OVP9xvQ/z/MDjq+dqU5U5OMlqfpGHxFPEU1VpO6YUUUVBsFFFFABRRRQAUUUUAFFFFABU1vdXFsc288sR9Ucr/KoaKL2BpPRm3beK/EFtjyda1EAdjcMR+ROK2LT4meK7bA/tPzlHaWFG/XGf1rjKK1jWqR2k/vOaeCw9T46cX8ken2Pxk1qLAvLGxuF9VDIx/HJH6V0Fj8abF8fbtIuYvUwyLJ/PbXiFFbRx1eP2jhq5DgKn/Lu3o2j6RsPij4WuyA95LbMe08LD9RkfrXTadruk6lgWGpWdwx/hjmVm/LOa+SKK6IZpUXxJM86rwrh5fw5tetn/kfZFFfJuneI9a03H2HVb2FR0RZm2/8AfPSus0v4teI7TaLo2t6g6+bFtb81x/I11QzOm/iTR5dbhbEw1pyUvw/r7z6GoryzSfjLpk21dU0+5tWPVomEq/0P6Gu10jxh4f1faLHVbZnPSN28t/8AvlsGuuniaVT4ZHjYjLMXh/4lNpfevvRvUUUVucIUUUUAFFFFABRRRQAUUUUAFFFFABRRRQAUUUUAFFFFABRRRQAUUUUAFFFFABRRRQAUUUUAFFFFABRRRQAUUUUAFFFFABRRXC/EDxiNMR9O0yQG+YYkkH/LEf8AxX8q0pUpVZcsTkxuNpYGi61Z2S/F9kM+IPjIaesmm6VJm8IxLKp/1Q9B/tfy+vTyUkkkk5J6k0MxZizElicknvSV9Hh6EaEeWJ+UZnmdXMa3tKm3Rdl/W7O++Dw/4nt6f+nb/wBmWvWq8n+Do/4m9+fSAD/x4V6xXi5h/HfyP0DhZf8ACdH1f5hRRRXEfRBRRRQAUUUUAFFFFABRRRQAUUUUAFFFFABRRRQAUUUUAFFFFABRRRQAUUUUAFFFFABRRRQAUUUUAFFFFABRRRQAUUUUAFFFFABRRRQAUUUUAFFFFABRRRQAUUUUAFFFFABRRRQAUUUUAFFFFABRRRQAUUUUAFFFFABRRRQAUUUUAFFFFABRRRQAUUUUAFFFFABRRRQAUUUUAFFFFABRRRQAUUUUAFFFFABRRRQAUUUUAFFFFABRRRQAUUUUAFFFFABRRRQAUUUUAFFFFABRRRQAUUUUAFFFFABRRRQAUUUUAFFFFABRRRQAUUUUAFFFFABRRRQAUUUUAFFFFABRRRQAUUUUAFFFFABRRRQAUUUUAFFFFABRRRQAUUUUAFFFFABRRRQAUUUUAFFFFABRRRQAUUUUAFFFFABRRRQAUUUUAFFFFABRRRQAUUUUAFFFFABRRRQAUUUUAV9RsrbUbKa0voUmtpV2ujDgj/PevnP4i+BrnwreGaDfPpMrfupu6H+4/v6Hv+lfSlQX1pb39pLa3kSTW8q7XjcZDCuXE4WNeOu/c9TK80qZfUutYvdfqvM+PqK7j4j+BLjwvcm5tA82kSN8knUxE/wt/Q964evnalOVOXLJan6RhsTTxNNVaTumFFFFQbhRRRQAUUUUAFFFFABRRRQAUUUUAFFFFABRRRQAUUUUAFFFFAG/oXjDXtD2rp+pTrEv/LFzvT/vlsgfhXoOifGeVdqa3piuO8tq2D/3y3+Irx+iuiniqtL4ZHBicrwmK1qQV++z+9H1P4e8ZaFr4VdPv4/PP/LCX5JPyPX8M10NfHA4PFdl4a+I+v6Hsj+0/bbVePJuctgezdR+ePavRo5mnpUX3HzeM4Wa97Cyv5P/ADPpWiuE8L/E/QtZKRXTnTbtuNk5+Qn2fp+eK7sEMAVIIPIIr0qdWFRXg7ny+IwtbDS5K0WmFFFFaHOFFFFABRRRQAUUUUAFFFFABRRRQAUUUUAFFFFABRRRQAUUUUAFFFFABRRRQAUUUUAFFFFABRRXF+PfGCaNE1lp7K+ouOT1EIPc+/oPx+ulKlKrLlicuMxlLBUnWrOyX4+S8xnj7xgukxvYac4bUGHzOORCD/7N7fjXkDszuzuxZ2OSxOST60SO8sjSSMzuxLMzHJJPc02vosPh40I2W5+U5pmlXMq3tJ6JbLt/we7Ciiiug8w9E+DY/wCJjqR9IlH6mvVK8v8Agyv+kaq3okY/Vq9Qr53H/wAd/L8j9U4YVstp/P8ANhRRRXGe+FFFFABRRRQAUUUUAFFFFABRRRQAUUUUAFFFFABRRRQAUUUUAFFFFABRRRQAUUUUAFFFFABRRRQAUUUUAFFFFABRRRQAUUUUAFFFFABRRRQAUUUUAFFFFABRRRQAUUUUAFFFFABRRRQAUUUUAFFFFABRRRQAUUUUAFFFFABRRRQAUUUUAFFFFABRRRQAUUUUAFFFFABRRRQAUUUUAFFFFABRRRQAUUUUAFFFFABRRRQAUUUUAFFFFABRRRQAUUUUAFFFFABRRRQAUUUUAFFFFABRRRQAUUUUAFFFFABRRRQAUUUUAFFFFABRRRQAUUUUAFFFFABRRRQAUUUUAFFFFABRRRQAUUUUAFFFFABRRRQAUUUUAFFFFABRRRQAUUUUAFFFFABRRRQAUUUUAFFFFABRRRQAUUUUAFFFFABRRRQAUUUUAFFFFABRRRQAUUUUAFFFFABRRRQAUUUUARXdtDeW0tvdRJLBKpV0cZDA9jXzz8SvAU3hm4a8sA82kSNw3VoSf4W9vQ/geev0XUdzBFdW8kFzGksMilXRxkMD1BFc2Jw0a8bPfuenlmZ1Mvqc0dYvdd/+CfHdFegfEzwBL4bma/01Xl0iRvq0BP8AC3t6H8Dz18/r52rSlSlyy3P0jC4qniqaq0ndMKKKKzOgKKKKACiiigAooooAKKKKACiiigAooooAKKKKACiiigAooooAKKKKACup8JeOdZ8NOiW05nsgebWYlkx/s91/D8jXLUVcJyg+aLszKtQp14OFWN15n094O8daT4oRY7eT7PfYy1rKfm99p/iH059QK6qvjmN3ikV42ZHU5VlOCD6g1614C+K0tuY7HxOzSw/dS8Ay6/747j36/WvYw2YqXu1dH3PjMz4blTvUwmq7dfl3/P1PbKKjt54rmCOa3kSWGRQyOhyrA9wakr1D5Vq2jCiiigQUUUUAFFFFABRRRQAUUUUAFFFFABRRRQAUUUUAFFFFABRRRQAUUUUAFFFcj468Wx6FAbWzKvqUg4HURD+8ff0H+TpTpyqy5Y7nNi8XSwdJ1qzsl/Vl5jPHni5NEhNpYsr6k4+ohB7n39B+P18blkeaV5JXZ5HJZmY5JJ7mlnlknmeWZ2klclmZjkknuajr6LDYeNCNluflObZrVzKrzz0itl2/4IUUUV0HlhRRRQB6b8GF41dv+uQ/9Dr0uvOvg0uLPU29ZEH5A/416LXzmO/jy/rofq/DitltL5/+lMKKKK5D3AooooAKKKKACiiigAooooAKKKKACiiigAooooAKKKKACiiigAooooAKKKKACiiigAooooAKKKKACiiigAooooAKKKKACiiigAooooAKKKKACiiigAooooAKKKKACiiigAooooAKKKKACiiigAooooAKKKKACiiigAooooAKKKKACiiigAooooAKKKKACiiigAooooAKKKKACiiigAooooAKKKKACiiigAooooAKKKKACiiigAooooAKKKKACiiigAooooAKKKKACiiigAooooAKKKKACiiigAooooAKKKKACiiigAooooAKKKKACiiigAooooAKKKKACiiigAooooAKKKKACiiigAooooAKKKKACiiigAooooAKKKKACiiigAooooAKKKKACiiigAooooAKKKKACiiigAooooAKKKKACiiigAooooAKKKKACiiigAooooAKKKKACiiigAooooAZPDHcQyQzxrJFIpV0cZDA9QRXz98Tvh/J4elfUdKRpNJc/MvVrcnsfVfQ/gfU/QlNljSaJ45UV43BVlYZDA9QRXPiMNGvGz3PRy3MquAqc8NU913/AOCfHNFek/E/4evoTyano6NJpTHLxjk25P8ANfft0PrXm1fOVaUqUuWR+k4TF0sXSVWk7p/h5MKKKKzOkKKKKACiiigAooooAKKKKACiiigAooooAKKKKACiiigAooooAKKKKACiiigDsfAPjq+8K3KxOWudLdv3luT93/aT0Pt0P6j6J0XVrLWtOivtNnWa3k6EdQe4I7H2r5Fro/BPiy98KamJ7YmS1kIE9uT8sg/oR2NehhMa6XuT1j+R89nGRwxidWjpU/P/AIPn959S0VnaBrNlrumRX2nSiSFxyP4kPdSOxrRr3oyUldH5/OEqcnCas0FFFFMkKKKKACiiigAooooAKKKKACiiigAooooAKKKKACiiigAoorl/G3iuHw/a+VDtk1GQfu4+yD+83t7d6unTlUkox3OfFYqlhaTrVnaKGeOfFkeg2/kWxWTUZF+VeojH95v6CvFriaW5nkmndpJZCWZ2OSTS3VxNd3Mk9zI0k0h3M7Hkmoq+iw2GjQjZb9T8qzfNquZVeaWkVsv66hRRRXSeSFFFFABRRRQB6z8HVxo18/rcY/JR/jXf1w/whTb4auG/vXTH/wAdSu4r5rGO9aR+uZDHly+kvL9QooormPXCiiigAooooAKKKKACiiigAooooAKKKKACiiigAooooAKKKKACiiigAooooAKKKKACiiigAooooAKKKKACiiigAooooAKKKKACiiigAooooAKKKKACiiigAooooAKKKKACiiigAooooAKKKKACiiigAooooAKKKKACiiigAooooAKKKKACiiigAooooAKKKKACiiigAooooAKKKKACiiigAooooAKKKKACiiigAooooAKKKKACiiigAooooAKKKKACiiigAooooAKKKKACiiigAooooAKKKKACiiigAooooAKKKKACiiigAooooAKKKKACiiigAooooAKKKKACiiigAooooAKKKKACiiigAooooAKKKKACiiigAooooAKKKKACiiigAooooAKKKKACiiigAooooAKKKKACiiigAooooAKKKKACiiigAooooAKKKKACiiigAooooAKKKKACiiigAooooAbIiyRskiq6MCrKwyCD1BFeDfFD4eNozSarosbPppO6WEcmD3Hqv8q97pGVXUq4DKRggjIIrDEYeNePLI9DLsxq4Cpz09uq7/13PjiivUvil8O20sy6voURbTz801uoyYP9of7P8vp08tr5ytRlRlyyP0nB4yljKSq0np+XkwooorI6gooooAKKKKACiiigAooooAKKKKACiiigAooooAKKKKACiiigAooooAKKKKAOr+H/AIouvDuqr5L5glIDxsflb2P+Pb86+jtE1a11ixW5tHyOjIfvIfQ18jV6L4J8RXVj5d3bP+8X5JkPSQe/+Nd+Dxbovll8J89neURxa9rT0n+fqfQdFZ2g6xa61ZC4tW5HDxn7yH0P+NaNe/GSkrrY+AqU5U5OE1ZoKKKKZAUUUUAFFFFABRRRQAUUUUAFFFFABRRRQAUUVznjPxRB4es8LtlvpB+6i9P9pvb+f8rhCVSSjHcwxOJp4am6tV2ihvjXxTD4ftNke2TUJR+7j7KP7ze3868SvLqa9upLi6kaWeQ7mdupNLfXc99dy3N3I0s8h3Mzd6gr6HC4aNCPmflecZxUzKrd6QWy/V+YUUUV1HjhRRRQAUUUUAFFFFAHtPwrTZ4SjP8Afmdv1x/SuvrmfhumzwZp+erb2/8AH2rpq+XxLvVl6s/Y8pjy4Giv7q/IKKKKxPQCiiigAooooAKKKKACiiigAooooAKKKKACiiigAooooAKKKKACiiigAooooAKKKKACiiigAooooAKKKKACiiigAooooAKKKKACiiigAooooAKKKKACiiigAooooAKKKKACiiigAooooAKKKKACiiigAooooAKKKKACiiigAooooAKKKKACiiigAooooAKKKKACiiigAooooAKKKKACiiigAooooAKKKKACiiigAooooAKKKKACiiigAooooAKKKKACiiigAooooAKKKKACiiigAooooAKKKKACiiigAooooAKKKKACiiigAooooAKKKKACiiigAooooAKKKKACiiigAooooAKKKKACiiigAooooAKKKKACiiigAooooAKKKKACiiigAooooAKKKKACiiigAooooAKKKKACiiigAooooAKKKKACiiigAooooAKKKKACiiigAooooAKKKKACiiigAooooAKKKKAAgMCCAQeCDXh3xT+HRsDNrGgxE2fLz2yD/U+rKP7vqO306e40EZGD0rCvQjXjyyO7L8wq4Cr7Snt1XRnxvRXrfxT+HP2XztZ8Pw5t+XuLVB/q/VkH931Hb6dPJK+crUZUZcsj9KwWNpY2kqtJ/wCa9QooorI6wooooAKKKKACiiigAooooAKKKKACiiigAooooAKKKKACiiigAooooAK1/Ddz5N/5RPySjH49v8+9ZFPicxSpIv3lIYfhQKUeZWPT9F1W60e9W5s3ww4ZT91x6EV7F4e1u11yyE9sdrrgSRE/NGf8PQ9/zFeGROJIkdfusAw/Gr+kanc6TfJdWT7ZF4IP3XHdSO4rvwuLdF2fwnzOZ5XHGR5o6TXXv5M94orK8Oa5ba7Yie3OyVcCWEnLRn+o9D3+uRWrXvRkprmjsfDVKcqUnCas0FFFFUQFFFFABRRRQAUUUUAFFFFABRRWD4u8SW/h6x3viS7kH7mHPX3PoBVQhKclGO5jiK9PD03Vqu0UM8Y+Jrfw9ZZ+WS9kH7mHP/jx9v514jqF7caheS3V5I0s8hyzH/PSl1K+uNSvZbu8kMk8hySf5D0FVa+hwuFjQj5n5ZnOc1MyqdoLZfq/P8gooorrPFCiiigAooooAKKKKACiiigD33wTH5XhPS19YA358/1rbqhoEfk6Fp0f9y2jX8lFX6+UqO82/M/a8JDkoQj2S/IKKKKg6AooooAKKKKACiiigAooooAKKKKACiiigAooooAKKKKACiiigAooooAKKKKACiiigAooooAKKKKACiiigAooooAKKKKACiiigAooooAKKKKACiiigAooooAKKKKACiiigAooooAKKKKACiiigAooooAKKKKACiiigAooooAKKKKACiiigAooooAKKKKACiiigAooooAKKKKACiiigAooooAKKKKACiiigAooooAKKKKACiiigAooooAKKKKACiiigAooooAKKKKACiiigAooooAKKKKACiiigAooooAKKKKACiiigAooooAKKKKACiiigAooooAKKKKACiiigAooooAKKKKACiiigAooooAKKKKACiiigAooooAKKKKACiiigAooooAKKKKACiiigAooooAKKKKACiiigAooooAKKKKACiiigAooooAKKKKACiiigAooooAKKKKACiiigAooooAKKKKACiiigAooooAK8X+Kfw58rztZ8Pw/u+XuLVB931dB6eo7dvb2iisa9CNePLI7cBj6uBq+0pv1XRnxvRXs3xT+HG7ztZ8PQ88vcWiDr6ug/mPyrxmvnK9CVGXLI/SsDjqWOpe0pP1XVBRRRWJ2BRRRQAUUUUAFFFFABRRRQAUUUUAFFFFABRRRQAUUUUAFFFFABRRRQB2egyebpcOeqgr+RrQrF8KvmylX+7Jn8wK2qtHBUVpMuaVqNzpV6l1ZSbJV4IPRh3BHcV7F4b16212y82D5JkwJYSeUP9R6GvEataZf3OmXsd1ZyFJU/Jh3BHcV14XFOg7PY8jMsshjY3Wk1s/0Z73RWN4Z1+21203xYjuEH72EnlT6j1HvWzXvwmprmjsfDVaU6M3Cas0FFFFUZhRRRQAUUUUAFFFY3inxBa+H7AzT/PO+RFCDy5/oPU1UIOb5Y7mVatToU3Vqu0VuxvivxFbeHrDzZcSXD5EMIPLH1PoB614bquo3OqX0t3eyGSaQ8nsB2AHYU7V9SutWv5Lu9kLyufwUdgB2FUq+hwuFVCN3ufludZ1UzKpZaU1sv1fn+QUUUV1nhhRRRQAUUUUAFFFFABRRRQAUqqWYKvUnApKvaHD9o1rT4f8AnpcRr+bAUpOyuVThzzUV1Z9ERIIokjXoqhR+FOoor5I/cEraBRRRQMKKKKACiiigAooooAKKKKACiiigAooooAKKKKACiiigAooooAKKKKACiiigAooooAKKKKACiiigAooooAKKKKACiiigAooooAKKKKACiiigAooooAKKKKACiiigAooooAKKKKACiiigAooooAKKKKACiiigAooooAKKKKACiiigAooooAKKKKACiiigAooooAKKKKACiiigAooooAKKKKACiiigAooooAKKKKACiiigAooooAKKKKACiiigAooooAKKKKACiiigAooooAKKKKACiiigAooooAKKKKACiiigAooooAKKKKACiiigAooooAKKKKACiiigAooooAKKKKACiiigAooooAKKKKACiiigAooooAKKKKACiiigAooooAKKKKACiiigAooooAKKKKACiiigAooooAKKKKACiiigAooooAKKKKACiiigAooooAKKKKACiiigAooooAKKKKACiiigAooooAKKKKACiiigAryL4p/Dnz/O1nw/D++5e4tUH3/V0Hr6jv256+u0VlWoxrR5ZHZgsdVwVVVaT9V0fqfG9Fe4fFP4dC983WNAhxdcvcWyD/W+rKP73qO/16+IEEEgjBFfOV6EqEuWR+lYDMKWOpe0p/NdUJRRRWB2hRRRQAUUUUAFFFFABRRRQAUUUUAFFFFABRRRQAUUUUAFFFFAHR+Ej8lyPQqf510Fc74S/wCXr/gH9a6KrWxxVvjYUUUUzIs6dfXGnXkdzaSGOZDwR39j6ivYPC3iG3121yuI7pB+9iz09x6ivFqsWN5PYXcdzaSNHNGcqw/zyK6sNipUH5HmZllsMbDtJbP9H5HvtFYPhPxHBr1rg7Yr2MfvYs/+PL6j+X5E71e/CcZx5o7Hw1ajOhN06is0FFFFUZBRRWV4k1210DT2ubo5c8RRA/NI3oPb1PaqjFzfLHczq1YUYOpUdkt2N8T6/a+H9PNxcndK2RFCDzI39B6mvDNZ1S61i/ku72TfI3AA6KOwA7Cna5q11rWoPd3r7nbhVH3UXsoHpWfX0GEwioK7+I/Ls7zueZVOWOlNbLv5v+tAooorsPBCiiigAooooAKKKKACiiigAooooAK3/AkPn+LtMT0l3/8AfILf0rArsfhTB5vixXx/qYXf+S/+zVjiJctKT8md+V0/aY2lH+8vzPZ6KKK+XP2QKKKKACiiigAooooAKKKKACiiigAooooAKKKKACiiigAooooAKKKKACiiigAooooAKKKKACiiigAooooAKKKKACiiigAooooAKKKKACiiigAooooAKKKKACiiigAooooAKKKKACiiigAooooAKKKKACiiigAooooAKKKKACiiigAooooAKKKKACiiigAooooAKKKKACiiigAooooAKKKKACiiigAooooAKKKKACiiigAooooAKKKKACiiigAooooAKKKKACiiigAooooAKKKKACiiigAooooAKKKKACiiigAooooAKKKKACiiigAooooAKKKKACiiigAooooAKKKKACiiigAooooAKKKKACiiigAooooAKKKKACiiigAooooAKKKKACiiigAooooAKKKKACiiigAooooAKKKKACiiigAooooAKKKKACiiigAooooAKKKKACiiigAooooAKKKKACiiigAooooAKKKKACiiigAooooAKKKKACvK/il8OhqQl1fQYgL7lp7dRxN6sv8Ate3f69fVKKyrUY1o8sjqweMq4OqqtJ6/n5M+OGUqxVgQwOCD2pK95+KPw7XVll1bQ4wuogbpoF4E/uP9v+f16+EOrI7I6lWU4IIwQfSvnMRh5UJcsj9Ky/MaWPpc9Pfquw2iiisDvCiiigAooooAKKKKACiiigAooooAKKKKACiiigAooooA6PwkPkuT6lR/OugrF8Kriylb1kx+graq1scNX42FFFFMzCiiigCazup7K6juLWRopozlXXt/n0r1/wAJeJYNdttr7Yr6MfvIux/2l9v5fkT41UtpczWlzHcW0jRTRncrr1Brpw2JlQl5HnZjl0MbDtJbP9H5H0BRXO+EfE0OuW/ly7Yr9B88fZh/eX29u361o6/rNroenvd3jYA4RB9529BX0NKSrJOnrc+BxcXg+b6x7vLvcZ4i1u10LT2urtsnpHGD80jeg/x7V4Zr2sXWt6g93evljwqD7qL6Cn+Idautd1F7q7b2SMfdjX0FZdfRYTCKgrv4j8qzzO55jPkp6U1su/m/07BRRRXafPhRRRQAUUUUAFFFFABRRRQAUUUUAFFFFABXovwbg3X2pXGPuRpHn/eJP/stedV638H7fZod5ORgy3G36hVH+Jrjx8uWg/M97hml7TMYPtd/h/md7RRRXzp+qhRRRQAUUUUAFFFFABRRRQAUUUUAFFFFABRRRQAUUUUAFFFFABRRRQAUUUUAFFFFABRRRQAUUUUAFFFFABRRRQAUUUUAFFFFABRRRQAUUUUAFFFFABRRRQAUUUUAFFFFABRRRQAUUUUAFFFFABRRRQAUUUUAFFFFABRRRQAUUUUAFFFFABRRRQAUUUUAFFFFABRRRQAUUUUAFFFFABRRRQAUUUUAFFFFABRRRQAUUUUAFFFFABRRRQAUUUUAFFFFABRRRQAUUUUAFFFFABRRRQAUUUUAFFFFABRRRQAUUUUAFFFFABRRRQAUUUUAFFFFABRRRQAUUUUAFFFFABRRRQAUUUUAFFFFABRRRQAUUUUAFFFFABRRRQAUUUUAFFFFABRRRQAUUUUAFFFFABRRRQAUUUUAFFFFABRRRQAUUUUAFFFFABRRRQAUUUUAFFFFABRRRQAUUUUAFFFFABRRRQAUUUUAFFFFABRRRQAUUUUAFFFFABRRRQAUUUUAFeWfGDwXZXVnLrlo8VrepjzVbhbj/wCz/n39a9J1O/ttMsZbu9kEcEYySe/sPU14b4u8SXPiK/8AMkzHaxkiGHPCj1PqTXbhMp/tF8s/gW7/AMvM4MZxE8jaq0X+8ey6fPy/pd1x1vpMSqDMxdvQcCpm0y1IwEK+4Y1dor6mnkmX04cioxfqrv73qfE1+Ls6r1fbSxU0+ybS+5WX4GPNpBAJhkz7N/jWbNDJC22VCp9+9dVTJY0lQrIoZT2NeNmHCOFrJyw3uS+9f5r5fcfU5L4m5hhJKGPXtYd9FJejVk/mte5ylFaV9pjR5eDLJ3XuP8aza/P8bgK+Bqeyrxs/wfoz9ryjOsHnFD6xg58y6rqn2a6f1YKKKK4z1AooooAKKKKACiiigAooooAKKKKAOx8PJs0qI92Jb9a0qgsI/KsoE7qgB+uKnqzz5O8mwooopkhRRRQAUUUUAS208trcRz28jRzRncrKeQaTxJq99rF8J7+QNhdqKowqj2FR1XvB8in3r2cixEqWLjDpLQ+H8Qcuhi8nqVdpU7SXnrqn99/UqUUUV+gH85hRRRQAUUUUAFFFFABRRRQAUUUUAFFFFABRRRQAV7p8Orb7N4QsARhpA0h/Fjj9MV4YAScDkmvo7S7YWWmWlqP+WMSR/kAK8vNJWhGPdn2PBtHmxFSr2Vvvf/ALNFFFeKfoQUUUUAFFFFABRRRQAUUUUAFFFFABRRRQAUUUUAFFFFABRRRQAUUUUAFFFFABRRRQAUUUUAFFFFABRRRQAUUUUAFFFFABRRRQAUUUUAFFFFABRRRQAUUUUAFFFFABRRRQAUUUUAFFFFABRRRQAUUUUAFFFFABRRRQAUUUUAFFFFABRRRQAUUUUAFFFFABRRRQAUUUUAFFFFABRRRQAUUUUAFFFFABRRRQAUUUUAFFFFABRRRQAUUUUAFFFFABRRRQAUUUUAFFFFABRRRQAUUUUAFFFFABRRRQAUUUUAFFFFABRRRQAUUUUAFFFFABRRRQAUUUUAFFFFABRRRQAUUUUAFFFFABRRRQAUUUUAFFFFABRRRQAUUUUAFFFFABRRRQAUUUUAFFFFABRRRQAUUUUAFFFFABRRRQAUUUUAFFFFABRRRQAUUUUAFFFFABRRRQAUUUUAFFFFABRRRQAUUUUAFFFFABRRRQAUUUUAFFFFABRRRQAUUUUAFV9RvbfTrKW7vJVigjGWY/y9z7Ut/eW9hZy3V5KsUEQ3O7dv8AE+3evD/Gfii48RXvG6KwiP7mHP8A483q38ug7k+hl+Xzxk+0Vu/09Tyc2zanl1O+83sv1fkM8Y+JrjxFfbjuisoz+5hz0/2m9W/l0+vP0UV9tSpQowUIKyR+Z169TEVHVqu7YUUUVoYhRRRQAVnahp6zZkhAWXuOzVo0VyY3BUcdSdGurr8V5o9LKc3xWUYhYnCS5ZL7muzXVf0tTkmUqxVgQw4INJXQajYi5XemBKP19qwGUoxVgQw4INflGb5RVyyryy1i9n3/AOCf0nwxxPhuIMN7Sn7tSPxR7ea7p9H8nqJRRRXkH0wUUUUAFFFFABRRRQAVNZxeddQx4zucA/nUNa3hqHzNSDkcRqW/p/WgUnZNnW0UUVoecFFFFABRRRQAUUUUAFVrxvur+NWaz5X3yE9u1e9w9hnVxXtekfzeiPz3xJzSOEyr6qn71VpfJNNv8l8xlFFFfdn8+hRRRQAUUUUAFFFFABRRRQAUUUUAFFFFABRRRQBq+FrT7d4j063IyrTqWH+yDk/oDX0HXjnwns/P8TNcEfLbQswPuflH6E17HXhZnO9RR7I/R+EKHJhJVX9p/gv+DcKKKK84+sCiiigAooooAKKKKACiiigAooooAKKKKACiiigAooooAKKKKACiiigAooooAKKKKACiiigAooooAKKKKACiiigAooooAKKKKACiiigAooooAKKKKACiiigAooooAKKKKACiiigAooooAKKKKACiiigAooooAKKKKACiiigAooooAKKKKACiiigAooooAKKKKACiiigAooooAKKKKACiiigAooooAKKKKACiiigAooooAKKKKACiiigAooooAKKKKACiiigAooooAKKKKACiiigAooooAKKKKACiiigAooooAKKKKACiiigAooooAKKKKACiiigAooooAKKKKACiiigAooooAKKKKACiiigAooooAKKKKACiiigAooooAKKKKACiiigAooooAKKKKACiiigAooooAKKKKACiiigAooooAKKKKACiiigAooooAKKKKACiiigAooooAKKKKACiiigAooooAKKKKACiiigAooooAKKKKACob27gsbSW5u5VigiG53boB/ntS3dxDaW0lxcyLFDGNzOx4ArxLxv4rm8Q3XlQ7o9Oib93H3Y/3m9/btXfgMBPGTstIrd/11PKzXNaeXUrvWT2X9dBnjXxTP4ivNqbotPiP7qE9z/eb3/l09Seaoor7ejRhRgqdNWSPzPEYipiajq1XdsKKKK0MAooooAKKKKACiiigArP1OyE6+ZGP3oH/fQrQorlxuDpY2i6FZXT/DzXmejlWaYjKcVHF4WVpR+5rqn3T/rU5I8HBpK19Xs+s8Q/3wP51kV+QZll1XLq7o1Pk+67n9QZBnmHzzBxxdD0a6xfVf5PqtQooorzz2gooooAKKKKACun8Kw7baWYjl22j6D/APXXMV3WmwfZrGGLGCq8/U8mmjGvK0bFmiiirOMKKKKACiiigAoopkriNcn8BV06cqs1CCu2YYrE0sJRlXry5YxV2/IjupNq7B1PX6VTpWYsxJ6mkr9Hy7BRwVBU1vu/U/mLifPqme4+WJekFpFdor9XuwooorvPnwooooAKKKKACiiigAooooAKKKKACiiigAooooA9Z+D9l5Wk3t4wwZ5Qg+ij/Fj+Vd/WP4Psf7O8NafbEYcRB3HozfMf1NbFfMYmftKspH7FlOG+rYKlSe6Wvq9X+LCiiisD0QooooAKKKKACiiigAooooAKKKKACiiigAooooAKKKKACiiigAooooAKKKKACiiigAooooAKKKKACiiigAooooAKKKKACiiigAooooAKKKKACiiigAooooAKKKKACiiigAooooAKKKKACiiigAooooAKKKKACiiigAooooAKKKKACiiigAooooAKKKKACiiigAooooAKKKKACiiigAooooAKKKKACiiigAooooAKKKKACiiigAooooAKKKKACiiigAooooAKKKKACiiigAooooAKKKKACiiigAooooAKKKKACiiigAooooAKKKKACiiigAooooAKKKKACiiigAooooAKKKKACiiigAooooAKKKKACiiigAooooAKKKKACiiigAooooAKKKKACiiigAooooAKKKKACiiigAooooAKKKKACiiigAooooAKKKKACiiigAooooAKKKKACiiigAooooAKKKKACiiigAooooAKKKKACo7meK2gkmuJFjijUszscAAUs8scELyzuscSKWZ2OAoHUk14t478XSa9ObWzLR6bG3A6GUj+I+3oPxPPTuwOBnjJ8q0S3Z5maZnTy+lzS1k9l3/4Azxz4sl1+58i2LR6bG3yL0Mh/vN/QVylFFfb0KEKEFTpqyR+ZYrE1MVUdWq7thRRRWpzhRRRQAUUUUAFFFFABRRRQAUUUUAIRkYPSuf1O0+zTZUfum6e3tXQ1FcQrPC0b9D39K8bO8pjmWHcF8a1i/09H/wT6rhHiSeQY1VHrSlpNeXdea6fNdTlqKkmiaGVo3GGU1HX5DOEqcnCSs0f09SqwrQjUpu8WrprqnswoooqSwooooAu6Pb/AGnUYUIyoO5voOa7asDwrb4SW4Yck7F+nf8Ap+Vb9UjjryvKwUUUVRiFFFFABRRTXYIuWPFOEJTkoxV2zOtWp0IOrVklFatvZIHYIpLdKoyyGRsn8BSyyGRsnp2FR195k+UrBx9pU1m/w8v8z+feNOMZZ1U+q4V2oRf/AIE+78uy+b12KKKK9w+BCiiigAooooAKKKKACiiigAooooAKKKKACiiigArU8M2H9qa/Y2mMrJKN4/2Ry36A1l16H8H9O8zULzUHX5YUESE/3m5P5AfrWGIqezpSkehlWF+t4ynR6N6+i1f4HqtFFFfMH7GFFFFABRRRQAUUUUAFFFFABRRRQAUUUUAFFFFABRRRQAUUUUAFFFFABRRRQAUUUUAFFFFABRRRQAUUUUAFFFFABRRRQAUUUUAFFFFABRRRQAUUUUAFFFFABRRRQAUUUUAFFFFABRRRQAUUUUAFFFFABRRRQAUUUUAFFFFABRRRQAUUUUAFFFFABRRRQAUUUUAFFFFABRRRQAUUUUAFFFFABRRRQAUUUUAFFFFABRRRQAUUUUAFFFFABRRRQAUUUUAFFFFABRRRQAUUUUAFFFFABRRRQAUUUUAFFFFABRRRQAUUUUAFFFFABRRRQAUUUUAFFFFABRRRQAUUUUAFFFFABRRRQAUUUUAFFFFABRRRQAUUUUAFFFFABRRRQAUUUUAFFFFABRRRQAUUUUAFFFFABRRRQAUUUUAFFFFABRRRQAUUUUAFFFFABRRRQAUUUUAFFFFABRRRQAUUUUAFFFFABRRRQAUUUUAFFFFABRRRQAU2WRIYnkldUjQFmZjgKB1JPYUSOkUbSSMqIgLMzHAAHUk1434+8YvrUrWWnsyaYh5PQzkdz/s+g/E9gO3A4KeMnyx26vsebmeZUsvpc89W9l3/AOB3GePfF765MbOxZk0yNvoZiP4j7eg/E84A46mu6RrmRlUepOKpy6pax8By5/2RmvuMPho0IKnSWiPzPE4itjarq1NW/wAPIvUVjSa2v/LOEn3ZsVC2tzfwxxj65NdKpSM1h5vob9Fc7/bNz6R/98//AF6Ua1c90iP4H/Gn7GQ/q0zoaKwF1ub+KKM/TIqZdcH8cB/Bv/rUvZSE8PPsbNFZkes2zfeEifUZq1HfWsn3Zk/E4/nUuEl0IdOS3RZopAQRkEEeopakgKKKKACiiigAooooAzdYtfNi81B86Dn3FYdddXOalbfZ7ghR8jcr/hX59xdlXJJY6ktHpL16P57P5dz9t8MuI/aweUYh6xu4enWPy3XlfsVKKKK+HP14KUAkgAZJ6Ulafh+2+0agrMMpF85+vb/PtQKT5Vc6iwtxa2cUI6qvP171Yooqzz276hRRRTEFFFQzThOF5b+Vb4fDVcTP2dJXZ5+Z5phcroPEYuajFfe/JLqx8sixjJ69hVKSQyNk/lTWYscscmkr7rLMop4Jc0tZ9+3ofz9xVxlic+n7KF4UFtHq/OX+Wy83qFFFFewfGBRRRQAUUUUAFFFFABRRRQAUUUUAFFFFABRRRQAUUUUAFe7+AtM/srwxaRuuJpR58n1bp+QwPwryPwbpR1jxDa2zLmEN5kv+4vJ/PgfjXvteRmdXamvU+44PwWs8XL/Cvzf6fiFFFFeQfdhRRRQAUUUUAFFFFABRRRQAUUUUAFFFFABRRRQAUUUUAFFFFABRRRQAUUUUAFFFFABRRRQAUUUUAFFFFABRRRQAUUUUAFFFFABRRRQAUUUUAFFFFABRRRQAUUUUAFFFFABRRRQAUUUUAFFFFABRRRQAUUUUAFFFFABRRRQAUUUUAFFFFABRRRQAUUUUAFFFFABRRRQAUUUUAFFFFABRRRQAUUUUAFFFFABRRRQAUUUUAFFFFABRRRQAUUUUAFFFFABRRRQAUUUUAFFFFABRRRQAUUUUAFFFFABRRRQAUUUUAFFFFABRRRQAUUUUAFFFFABRRRQAUUUUAFFFFABRRRQAUUUUAFFFFABRRRQAUUUUAFFFFABRRRQAUUUUAFFFFABRRRQAUUUUAFFFFABRRRQAUUUUAFFFFABRRRQAUUUUAFFFFABRRRQAUUUUAFFFFABRRRQAUUUUAFFFFABRRRQAUUUUAFFFFABRRRQAUjsqIzuwVFGSxOAB60rEKpZiAAMkntXhXxT+I/295NJ0KT/RFOJZx/y1PoPb+dduBwNTG1OSG3V9jix+OhgqfPLV9F3/AK6lz4k+O475msbOUpp6n5iPvTke3930/OvLrrWJZMiACNfU8msx3Z2LOxZj1JpK/QcLgqWFpqnBH57iKk8VVdas7t/cvJDpHaRt0jFm9Sc02iiuskKKKKACiiigAooooAKKKKAHxyyRHMbsh/2TirkWrXUf3mVx/tCqFFJxT3JlCMt0bsGtRniaNlPqvIrQguoJ/wDVSKx9Oh/KuSorN0YvYxlhovbQ7SiuWg1G5hwFkLL6NzWjb60h4njK+68isnSkjnlh5x21NiiooLiKcZikVvoealrO1jFq24VW1C3+027KPvjlfrVmisMRQhiaUqNRXUlZnTgcZVwGIhiqDtKDTXy/Tv5HJHg4PWkrQ1i38qfzFHyyc/Q1n1+L47CTwWInQnvF/wDDP5o/q/KMzpZrgqeNo7TV/R9V8noFdd4dtfIsA7D55fmP07f5965rTrY3d5FCOhPzew713IAUAAYA4ArmR1V5acotFFFUcoUjMFGWOBUUtwq8L8xqo7s5yxzXuYDIq2JtOr7sfxfoj4DiLj/A5WnRwtqtXy+Fer6+i+bRNLcFuE4Hr3qvRRX2mFwlLCw5KSsvz9T8NzXOMZm9b2+MnzPp2Xkl0/q4UUUV0nmBRRRQAUUUUAFFFFABRRRQAUUUUAFFFFABRRRQAUUUUAFFFaPh/S5dZ1e2sYcjzG+Zv7qjkn8qmUlFXZdOnKrNU4K7eiPSvhNpH2XS5dSlXEl0dseeyA/1P8hXe1HawR2ttFBAoWKJQiKOwAwKkr5itVdWbm+p+yZfg44LDQoR6L8ev4hRRRWR2BRRRQAUUUUAFFFFABRRRQAUUUUAFFFFABRRRQAUUUUAFFFFABRRRQAUUUUAFFFFABRRRQAUUUUAFFFFABRRRQAUUUUAFFFFABRRRQAUUUUAFFFFABRRRQAUUUUAFFFFABRRRQAUUUUAFFFFABRRRQAUUUUAFFFFABRRRQAUUUUAFFFFABRRRQAUUUUAFFFFABRRRQAUUUUAFFFFABRRRQAUUUUAFFFFABRRRQAUUUUAFFFFABRRRQAUUUUAFFFFABRRRQAUUUUAFFFFABRRRQAUUUUAFFFFABRRRQAUUUUAFFFFABRRRQAUUUUAFFFFABRRRQAUUUUAFFFFABRRRQAUUUUAFFFFABRRRQAUUUUAFFFFABRRRQAUUUUAFFFFABRRRQAUUUUAFFFFABRRRQAUUUUAFFFFABRRRQAUUUUAFFFFABRRRQAUUUUAFFFFABRRRQAUUUUAFFFFABRRRQAUUUUAFFFFABRRXkfxl8dGzjk0DSJcXLjF1Mp/1an+Ae57+g478dWDwlTF1VSp/wDDLuc2LxUMLSdWf/DmT8XPiGbxptD0Kb/RQdlzcIf9ae6Kf7vqe/06+R0UV+i4PCU8JSVKmv8AgnwGLxVTFVHUqf8ADBRRRXUcwUUUUAFFFFABRRRQAUUUUAFFFFABRRRQAUUUUAFFFFACqxVgVJBHcVoW2rzxYEmJV9+v51nUUnFPcmUIy3R09tqVvPgbtj+j8Vdri6tWt9PbYCPlf7rcisZUexzTw38rOivoBcWzp36g+9ci95bo2GlXPtzR4j1uS5jS2iBjGMyYP3vb6VztfnfElCji8UraSirN9/8Ahj9T4KzDGZRgZQdnGb5knfTo+vXT+mem+Eoo2gkulZWLHYMHOB3/AM+1dBXkWh6pNpV8k0THYSBInZlr05rkyqChwjDIx3FfP0ckq16nLTa5e7Pp8y45wmX0FVxMXzvaK6289kvx7JluSZE4zk+gqrJMz8dB6CoqK+pwOTYfCWlbml3f6Lofj+fccZlnF6d/Z0n9mPX1e7/BeQUUUV658cFFFFABRRRQAUUUUAFFFFABRRRQAUUUUAFFFFABRRRQAUUUUAFFFFABXr3ws0L7DpjalcJi4ux+7z1WPt+fX6YrhfAvh9te1dRKp+xQYeZvX0X8f5Zr3NVCKFUBVAwAOgFeVmOIsvZR+Z9rwnlblL67UWi0j69X8tv+GFooorxj74KKKKACiiigAooooAKKKKACiiigAooooAKKKKACiiigAooooAKKKKACiiigAooooAKKKKACiiigAooooAKKKKACiiigAooooAKKKKACiiigAooooAKKKKACiiigAooooAKKKKACiiigAooooAKKKKACiiigAooooAKKKKACiiigAooooAKKKKACiiigAooooAKKKKACiiigAooooAKKKKACiiigAooooAKKKKACiiigAooooAKKKKACiiigAooooAKKKKACiiigAooooAKKKKACiiigAooooAKKKKACiiigAooooAKKKKACiiigAooooAKKKKACiiigAooooAKKKKACiiigAooooAKKKKACiiigAooooAKKKKACiiigAooooAKKKKACiiigAooooAKKKKACiiigAooooAKKKKACiiigAooooAKKKKACiiigAooooAKKKKACiiigAooooAKKKKACiiigAooooAKKKZcTR28Ek07rHFGpd3Y4CqBkk0JX0QN2OW+JPixPCmgNNGVbUJ8x2yH+93Yj0H88DvXzBPNJcTyTTu0ksjF3djksSckmug8feJZfFHiKe9YsLZf3dtGf4YwePxPU/Wucr9DyjL1gqPvfHLf/AC+R8FmuPeLre78K2/z+YUUUV6x5YUUUUAFFFFABRRRQAUUUUAFFFFABRRRQAUUUUAFFFFABRRRQAUUUUAFFXLTTprjDEbI/7zf0FbVpYQW2Cq7n/vNXgZlxHhMDeCfPPsv1fT8/IwqYiENN2cJrNvLDOryIyrIMqSOuKoV6VqdnBe2rR3S5Qchh1U+ori30Vt58uVdv+0Oa+BnmEcTUlVmrNu59fk2f4eWHVOu+WUdPJroZkMTzzJFEpeR2Cqo6kmvVYYWt4Y4WByihefYVn+BtGs4Fa6JMt4h25bogPcD8+a6+SNJBh1BHvX0GWUUqftb/ABHzXE2cU8dVjSo/DC+vdv8AQwqK0JrAdYm/A1TlieI/OpHvXpHzKdyOiiigYUUUUAFFFFABRRRQAUUUUAFFFFABRRRQAUUUUAFFFFABRRRQAVb0uwuNTv4bOzTfNKcAdh6k+wqCCGS4mSGBGklchVVRkkntXtvgbwvH4fsfMmCvqEw/ev12j+6Pb19T+FcuKxKoRv16HsZNlM8yrcu0Fu/0XmzT8N6NBoWlRWcHzEfNI+MF3PU/57VqUUV87KTk3J7n6vSpQowVOmrJaIKKKKk0CiiigAooooAKKKKACiiigAooooAKKKKACiiigAooooAKKKKACiiigAooooAKKKKACiiigAooooAKKKKACiiigAooooAKKKKACiiigAooooAKKKKACiiigAooooAKKKKACiiigAooooAKKKKACiiigAooooAKKKKACiiigAooooAKKKKACiiigAooooAKKKKACiiigAooooAKKKKACiiigAooooAKKKKACiiigAooooAKKKKACiiigAooooAKKKKACiiigAooooAKKKKACiiigAooooAKKKKACiiigAooooAKKKKACiiigAooooAKKKKACiiigAooooAKKKKACiiigAooooAKKKKACiiigAooooAKKKKACiiigAooooAKKKKACiiigAooooAKKKKACiiigAooooAKKKKACiiigAooooAKKKKACiiigAooooAKKKKACiiigAooooAKKKKACiiigAooooAKKKKACvKfjx4l+xaVDodq+J7z95Pg8iIHgf8AAiPyU+tepXM8VrbS3Fw4SGJC7ueiqBkn8q+TPFutS+IPEV7qUuQJpDsU/wACDhR+AAr3sgwXt8R7WXww1+fT/M8TPMX7Ch7OO8vy6/5GRRRRX3Z8SFFFFABRRRQAUUUUAFFFFABRRRQAUUUUAFFFFABRRRQAUUUUAFFKoLMAoJJ6AVr2Wk5w91/3wP61wY/M8Pl8OevK3ZdX6L+kZ1KkaavIzbW1luWxEuR3Y9BW5ZabFb4Z/wB5J6kcD6CrqIqKFRQqjoBTq/Os04lxOOvTp+5Dst36v9F+JwVcTKei0QUUUV82cxR1WbbEIweW6/SsmpruXzrhm7dB9KhrVKyPQpR5Y2NDQ737FfqzHET/ACv9PWu4rzeuy8OXv2qyEbnMsXyn3HY19JkWLs3h5eq/VHJjKX20a1BAIwRkUUV9MeeVZbKJ+V+Q+3SqktlKnIG8e1atFKw02YJBBwQQfekrdeNHGHUN9RVWSwjb7hKn8xRYrmMyirMlnMnQBh7VXZSpwwIPvSHcSiiigYUUUUAFFFFABRRRQAUUUUAFFFL16UAJUkEMk8qxQozyMcKqjJJqxbWEszKCCMnAGMk/hXrvgfwnHpES3d2gN6w+VTz5Y/xrnxGIjQjzPc9LKsrq5lW9nT0S3fb/AIPZCeA/CKaJCLu9VX1Fx9RED2Hv6n8Pr2FFFfO1asqsuaR+r4PB0sHSVGirJfj5vzCiiiszqCiiigAooooAKKKKACiiigAooooAKKKKACiiigAooooAKKKKACiiigAooooAKKKKACiiigAooooAKKKKACiiigAooooAKKKKACiiigAooooAKKKKACiiigAooooAKKKKACiiigAooooAKKKKACiiigAooooAKKKKACiiigAooooAKKKKACiiigAooooAKKKKACiiigAooooAKKKKACiiigAooooAKKKKACiiigAooooAKKKKACiiigAooooAKKKKACiiigAooooAKKKKACiiigAooooAKKKKACiiigAooooAKKKKACiiigAooooAKKKKACiiigAooooAKKKKACiiigAooooAKKKKACiiigAooooAKKKKACiiigAooooAKKKKACiiigAooooAKKKKACiiigAooooAKKKKACiiigAooooAKKKKACiiigAooooAKKKKACiiigAooooAKKKKACiiigAooooAKKKKACiiigDzX46a9/ZvhlNNhfFxqDbWweREuC35nA+ma+e67H4s63/bfjW9ZG3W9r/osXphSdx/Fi34Yrjq/Rsnwv1bCxT3er+f/APgM2xP1jEya2Wi+QUUUV6Z5oUUUUAFFFFABRRRQAUUUUAFFFFABRRRQAUUUUAFFFFABU9payXUm2McDqx6Cp9P097oh3ysXr3P0roIYkhjCRqFUdhXy2d8SU8Fejh/eqfgvXu/L7zlrYhQ0juQWVjFajKjdJ3Y1aoor82xGIq4mo6taV5Pqzz5ScndhRRRWJIVW1CXyrZsfeb5RVmsjVJd84QdEH604q7NaUeaRSooorU7wq3pV4bG9SUZK9HHqKqUVdOpKnJTjuhSipKzPR0ZXRWQgqwyCO4pa53wtf7lNnKeRzGT3HcV0Vfe4TExxNJVI/0zxatN05OLCiiiukzCiiigApGUMMMAR70tFAFd7SF/4Np9uKgfTx/BJ+Yq/RRYd2ZTWMw6bW+hqM20w6xt+HNbNFKw+Ywijr1Vh9RSVvUUWDmMClAJ6Ct3A9BS0WDmMRYZG6RsfwqVLOZuqhfqa1qKLBzFGPTwP9Y+fYVbhgRCBEnzHgdyaeOTxXpHgvwv9jCX+op/pR5jjb/ln7n/AGv5fXphiK8aEeaR6OV5ZWzKt7Knt1fRL+tkP8GeGBYKt7foDdkZRD/yyH+P8q66iivnK1WVaXPI/WsDgaOBoqjRVkvxfdhRRRWR1hRRRQAUUUUAFFFFABRRRQAUUUUAFFFFABRRRQAUUUUAFFFFABRRRQAUUUUAFFFFABRRRQAUUUUAFFFFABRRRQAUUUUAFFFFABRRRQAUUUUAFFFFABRRRQAUUUUAFFFFABRRRQAUUUUAFFFFABRRRQAUUUUAFFFFABRRRQAUUUUAFFFFABRRRQAUUUUAFFFFABRRRQAUUUUAFFFFABRRRQAUUUUAFFFFABRRRQAUUUUAFFFFABRRRQAUUUUAFFFFABRRRQAUUUUAFFFFABRRRQAUUUUAFFFFABRRRQAUUUUAFFFFABRRRQAUUUUAFFFFABRRRQAUUUUAFFFFABRRRQAUUUUAFFFFABRRRQAUUUUAFFFFABRRRQAUUUUAFFFFABRRRQAUUUUAFFFFABRRRQAUUUUAFFFFABRRRQAUUUUAFFFFABRRRQAUUUUAFFFFABRRRQAUUUUAFFFFABRRRQAUUUUAFFFFABRRRQAVjeMdXGheGNR1HIDwxHy893PC/wDjxFbNeR/tB6t5WmadpMbfNPIZ5AP7q8AH6kn/AL5rty/D/WcTCl0b19Fqzkx9f6vh51OqWnr0PDWJZizEkk5JPeiiiv0w/OQooooAKKKKACiiigAooooAKKKKACiiigAooooAKKKKACtPTNOM2JZwRH2X+9/9al0rT/NImnH7v+FT/F/9at2vieIuIvYt4XCP3ur7eS8+76eu3HiMRb3YiABQAAABwAKWiivz5u+rOAKKKKQgooooAbI4RGY9AM1zzsXcs3UnJrW1WTbAEHVz+grIrSKOzDxsrhRRRVHQFFFFAD4ZHhlSSM7XU5Bru9NvEvrRJk4PRl9D6VwNaOi6gbC6BYkwvw4/rXq5VjvqtTln8L38vM5sTR9pG63R29FIrB1DKQVIyCO9LX2h5IUUUUAFFFFABRRRQAUUUUAFFFFABRRRQAUUV6H4K8LeR5eoakn7770MLD7n+0ff0Hb69MMRXjQjzSPRyzLK2Y1lSpbdX0S/rZDvBfhb7KE1DUo/9I+9FEw/1f8AtH/a9u316dpRRXzdatKtLmkfrWAwFHAUVRorT8W+7CiiisjtCiiigAooooAKKKKACiiigAooooAKKKKACiiigAooooAKKKKACiiigAooooAKKKKACiiigAooooAKKKKACiiigAooooAKKKKACiiigAooooAKKKKACiiigAooooAKKKKACiiigAooooAKKKKACiiigAooooAKKKKACiiigAooooAKKKKACiiigAooooAKKKKACiiigAooooAKKKKACiiigAooooAKKKKACiiigAooooAKKKKACiiigAooooAKKKKACiiigAooooAKKKKACiiigAooooAKKKKACiiigAooooAKKKKACiiigAooooAKKKKACiiigAooooAKKKKACiiigAooooAKKKKACiiigAooooAKKKKACiiigAooooAKKKKACiiigAooooAKKKKACiiigAooooAKKKKACiiigAooooAKKKKACiiigAooooAKKKKACiiigAooooAKKKKACiiigAooooAKKKKACiiigAooooAK+Z/jFqn9p+PL4K26K0C2qf8AAeW/8eLV9I391HZWNxdzHEUEbSufZRk/yr4+vbmS8vJ7mY5lmkaRz6knJ/nX0/DNDmqzrPorff8A8MfOcR1uWnCkurv93/DkNFFFfZHyIUUUUAFFFFABRRRQAUUUUAFFFFABRRRQAUUUUAFX9KsvtMm+QfulPPufSqtrA1xOsad+p9BXUwxrDEsaDCqMCvluJc5eBpewov8AeS/Bd/V9DmxNbkXKt2PAAAAGAKKKK/MDzAooooAKKKKACiikdgqMx6AZoGY+pyb7kgdFGKqUrsWdmPUnNJWqPRiuVJBRRRTKCiiigAooooA6Lw1qe0iznbg/6tj/ACrpq83BwcjrXYaBqgvIxDMf9IQdf749frX0+T5jzJYeq9en+X+R52KoW9+PzNiiiivojhCiiigAooooAKKKKACiiigAoorvfBXhfHl6jqUfP3oYWH/jx/oKxr140I80jvy7Lq2Y1lRpL1fRLuP8FeF/L8vUdSj+f70MLD7v+0R6+g7fy7miivm69aVaXNI/W8vy+jl9FUaK9X1b7sKKKKxO4KKKKACiiigAooooAKKKKACiiigAooooAKKKKACiiigAooooAKKKKACiiigAooooAKKKKACiiigAooooAKKKKACiiigAooooAKKKKACiiigAooooAKKKKACiiigAooooAKKKKACiiigAooooAKKKKACiiigAooooAKKKKACiiigAooooAKKKKACiiigAooooAKKKKACiiigAooooAKKKKACiiigAooooAKKKKACiiigAooooAKKKKACiiigAooooAKKKKACiiigAooooAKKKKACiiigAooooAKKKKACiiigAooooAKKKKACiiigAooooAKKKKACiiigAooooAKKKKACiiigAooooAKKKKACiiigAooooAKKKKACiiigAooooAKKKKACiiigAooooAKKKKACiiigAooooAKKKKACiiigAooooAKKKKACiiigAooooAKKKKACiiigAooooAKKKKACiiigAooooAKKKKACiiigAooooA4z4wah/Z/gHUdpxJcbbdffcef8Ax0NXzJXtv7RF9ts9H09T9+R52HptAUf+hNXiVfe8PUfZ4Tm/mbf6fofEZ9V58Vy/ypL9f1CiiivcPFCiiigAooooAKKKKACiiigAooooAKKKKACiipLaLzriOP8AvMBUVJxpwc5bLUTdldm5ott5Vv5rD55OfoK0aQAAAAYApa/Fcdi54zETrz3k/wAOi+SPHnNzk5MKKKK5CAooooAKKKKACqupPstW9W+WrVZusPzGn1Jprc0pK80ZtFFFanoBRRRQAUUUUAFFFFABTopHikV42KupyCO1NooTad0B2ujaol/FtfC3Cj5l9fcVp151FI8MiyRMVdTkEdq7HRtWjvkEcmEuAOV7N7ivrsszRV0qVV+9+f8AwTzMRhuT3o7GpRRRXtnGFFFFABRRRQAUUV2/grwt5/l6hqSfufvQwsPv/wC0fb0Hf6dcq1aNGPNI7svy+tmFZUaK9X0S7sf4J8L+Z5eo6knyfehiYdf9o+3oK7+iivmq9eVeXNI/Wsty6jl1FUqS9X1bCiiisT0AooooAKKKKACiiigAooooAKKKKACiiigAooooAKKKKACiiigAooooAKKKKACiiigAooooAKKKKACiiigAooooAKKKKACiiigAooooAKKKKACiiigAooooAKKKKACiiigAooooAKKKKACiiigAooooAKKKKACiiigAooooAKKKKACiiigAooooAKKKKACiiigAooooAKKKKACiiigAooooAKKKKACiiigAooooAKKKKACiiigAooooAKKKKACiiigAooooAKKKKACiiigAooooAKKKKACiiigAooooAKKKKACiiigAooooAKKKKACiiigAooooAKKKKACiiigAooooAKKKKACiiigAooooAKKKKACiiigAooooAKKKKACiiigAooooAKKKKACiiigAooooAKKKKACiiigAooooAKKKKACiiigAooooAKKKKACiiigAooooAKKKKACiiigAooooAKKKKACiiigAooooAKKKKACiiigAooooA+dfjtffavHJgB4tLeOLHucv/JhXndbvjy8+3+M9ZuM5U3Tqp9VU7R+gFYVfp+Bpeyw1OHZI/N8bU9riJz7thRRRXUcwUUUUAFFFFABRRRQAUUUUAFFFFABRRRQAVd0YA6hHnsD/ACqlUtpN5FzHL/dPP071x5hSlXwtWlDdxaXzRFRNxaR1lFNjdZEV0OVIyDTq/FJRcW4yVmjx9gooopCCiiigAooooAKxdSbddt/sgCtqufuG3zyN6saqO50Yde82R0UUVodgUUUUAFFFFABRRRQAUUUUAFKrMjBlJVgcgjqKSijYDp9J14PtiviFboJOx+vpXQAggEHIPevOK0NN1a4sSFU74u8bdPw9K+gwOduFoYjVd+vz7nDWwiesDuKKzLLWrO5ADP5L/wB2Tj9elaSkMAVIIPcV9JSr06y5qckzglCUHaSFoorW8CNo+qeITaXlyjSxjdHCfuzN3Ge+OuO/4GlXxEKEeab/AOCdGDwk8ZWjRp7vvsb3gvwv9qKahqSf6P8AeiiYf6z/AGj/ALPt3+nX0WgDAwOlFfOYivKvLmkfruWZZRy2j7Klv1fVv+tkFFFFYHohRRRQAUUUUAFFFFABRRRQAUUUUAFFFFABRRRQAUUUUAFFFFABRRRQAUUUUAFFFFABRRRQAUUUUAFFFFABRRRQAUUUUAFFFFABRRRQAUUUUAFFFFABRRRQAUUUUAFFFFABRRRQAUUUUAFFFFABRRRQAUUUUAFFFFABRRRQAUUUUAFFFFABRRRQAUUUUAFFFFABRRRQAUUUUAFFFFABRRRQAUUUUAFFFFABRRRQAUUUUAFFFFABRRRQAUUUUAFFFFABRRRQAUUUUAFFFFABRRRQAUUUUAFFFFABRRRQAUUUUAFFFFABRRRQAUUUUAFFFFABRRRQAUUUUAFFFFABRRRQAUUUUAFFFFABRRRQAUUUUAFFFFABRRRQAUUUUAFFFFABRRRQAUUUUAFFFFABRRRQAUUUUAFFFFABRRRQAUUUUAFFFFABRRRQAUUUUAFFFFABRRRQAUUUUAFFFFABRRRQAUUUUAFFFFABRRRQAUUUUAFFFFABRRRQAVDfXC2llcXL/dhjaQ/QDP8ASpq5v4kXf2PwJrcucZtmiz/v/J/7NWtGn7SpGHdpGdafs6cp9k2fK8jtJI0jnLsSxPqTTaKK/VD8yCiiigAooooAKKKKACiiigAooooAKKKKACiiigAr0P4XeAJPElwuoamrR6PG30Nww/hH+z6n8B7R/DDwDL4nuhe6grxaPE3J6Gcj+Ffb1P4Dnp9F20EVrbxwW8aRQxqEREGAoHQAV83nOcewToUH73V9v+D+R9BlGU+2tXrL3ei7/wDA/M5fxf4NtNa09BZxxWt5boEhZVwpUdEIHb09P0rxW9tZ7G6ltruJop4jtdG6g19LVzPjXwpb+IrXem2HUIx+6mxwR/db2/l+YP5/icP7T347/mdOeZDHFp18OrTXTv8A8E8Ioqe/s7iwvJbW8iaKeI7XRu3/ANb3qCvMasfnkouLcZKzQUUUUiQooooARztRj6DNc5W/dHFtKf8AZP8AKsCrgdeGWjCiiirOkKKKKACiiigAooooAKKKKACiiigAooooAKkinlhOYpXjP+yxFR0U03F3Qmrk0l1cSjEk8rj0ZyajikeKVJInZJEIZWU4KkdCDTaKJScndsErbHvfwy+ICa4iaZq7qmqKMJIeBcD+je3ftXo1fIEbtG6vGzK6kFWU4II7ivdPhj8QV1dY9K1qRV1EDbFMeBP7H/a/n9a7aFe/uyPs8mzr2tqGIfvdH38n5/n67+l0UUV1n04UUUUAFFFFABRRRQAUUUUAFFFFABRRRQAUUUUAFFFFABRRRQAUUUUAFFFFABRRRQAUUUUAFFFFABRRRQAUUUUAFFFFABRRRQAUUUUAFFFFABRRRQAUUUUAFFFFABRRRQAUUUUAFFFFABRRRQAUUUUAFFFFABRRRQAUUUUAFFFFABRRRQAUUUUAFFFFABRRRQAUUUUAFFFFABRRRQAUUUUAFFFFABRRRQAUUUUAFFFFABRRRQAUUUUAFFFFABRRRQAUUUUAFFFFABRRRQAUUUUAFFFFABRRRQAUUUUAFFFFABRRRQAUUUUAFFFFABRRRQAUUUUAFFFFABRRRQAUUUUAFFFFABRRRQAUUUUAFFFFABRRRQAUUUUAFFFFABRRRQAUUUUAFFFFABRRRQAUUUUAFFFFABRRRQAUUUUAFFFFABRRRQAUUUUAFFFFABRRRQAUUUUAFFFFABRRRQAUUUUAFFFFABRRRQAUUUUAFFFFABRRRQAUUUUAFeffHO6+z+ApY84+0XEcX1wS/wD7JXoNeSftD3O3R9Its/6yd5Mf7q4/9nr0cphz4ymvO/3anBmk+TCVH5W+/Q8Mooor9IPz0KKKKACiiigAooooAKKKKACiiigAooooAK7v4ZeA5vFN2Lq9DxaPC3zuODMf7i/1Pb61H8NfAtx4rvfPuQ8OkQt+9lHBkP8AcX39T2r6QsbS3sLSK1s4kht4lCpGgwFFfO5znCw6dCi/f6vt/wAH8j38oyl4hqtWXu9F3/4A60tobO2it7WJIoIlCIiDAUDsKloor4ltt3Z9ilbRBRRRSGc3408K2/iOzyNsV/EP3U2Ov+y3qv8ALqO4Ph2oWVxp15La3sTRTxnDK3+eR719K1z3jHwvbeI7PB2xXsY/dTY6f7Leo/l/PkxGH9p70dz5rPMijjU69DSovx/4Pn954HRVrU7C50y9ltL2IxTxnBB7+49RVWvMatoz85nCUJOMlZoKKKKRJDe/8esv+7WDW9e/8esv+7WDVxOzD/CwoooqzoCiiigAooooAKKKKACiiigAooooAKKKKACiiigAooooAKVWKsGUkMDkEdQaSigD3L4YfEIamItJ1yULfj5YZ2PE3+yf9r+f16+n18fgkEEHBHQivbPhf8Qxf+VpGvSgXfCwXLH/AFvorH+96Hv9evbQr392R9hk2dc9sPiHr0ffyfmeqUUUV2H1IUUUUAFFFFABRRRQAUUUUAFFFFABRRRQAUUUUAFFFFABRRRQAUUUUAFFFFABRRRQAUUUUAFFFFABRRRQAUUUUAFFFFABRRRQAUUUUAFFFFABRRRQAUUUUAFFFFABRRRQAUUUUAFFFFABRRRQAUUUUAFFFFABRRRQAUUUUAFFFFABRRRQAUUUUAFFFFABRRRQAUUUUAFFFFABRRRQAUUUUAFFFFABRRRQAUUUUAFFFFABRRRQAUUUUAFFFFABRRRQAUUUUAFFFFABRRRQAUUUUAFFFFABRRRQAUUUUAFFFFABRRRQAUUUUAFFFFABRRRQAUUUUAFFFFABRRRQAUUUUAFFFFABRRRQAUUUUAFFFFABRRRQAUUUUAFFFFABRRRQAUUUUAFFFFABRRRQAUUUUAFFFFABRRRQAUUUUAFFFFABRRRQAUUUUAFFFFABRRRQAUUUUAFFFFABRRRQAUUUUAFFFFABRRRQAUUUUAFFFFABRRRQAV4b+0RPu1XR7fP+rgeTH+8wH/ste5V88fHqfzfG8aZ/1NpGn5szf1r2+H4c2NT7J/5fqePnsuXBtd2v8zziiiivvj4YKKKKACiiigAooooAKKKKACiiigArtPhv4HufFl95s2+HSYW/fTDq5/uL7+/b8gY/h14JuvFuobn3Q6XC37+fHX/YX1b+XX0B+ldNsLXTLGGzsIUgtoV2oi9AP8fevn84zhYVOjRfv/l/wT3cpyl4l+2qr3Pz/wCALp9lbadZQ2llCkNtCu1I0HAFWKKK+Hbbd2fZpJKyCiiikMKKKKACiiigDA8XeGbXxFZbJMR3cY/czgcr7H1FeG6tp11pV9JaX0RjmQ9OxHYg9xX0jWH4s8N2viKx8qYCO5QEwzgcofQ+o9RXLiMOqnvR3PnM8yOOOj7ajpUX4+vn2f3+Xz9RV3WNMutIv5LO+jMcyfkw7MD3BqlXltNOzPzicJU5OE1ZojuBut5R6qf5Vz9dIRkEHoa5xhtYg9QcVUDowz3QlFFFWdIUUUUAFFFFABRRRQAUUUUAFFFFABRRRQAUUUUAFFFFABRRRQAUDg8UUUAe0/C/4h/afK0fX5v3/CW905/1norn+96Hv9evrFfH1eyfC74ieZ5Wj+IJvn4S3unP3vRHPr6H867aFf7Mj67Js6vbD4h+j/R/5nrtFFFdh9WFFFFABRRRQAUUUUAFFFFABRRRQAUUUUAFFFFABRRRQAUUUUAFFFFABRRRQAUUUUAFFFFABRRRQAUUUUAFFFFABRRRQAUUUUAFFFFABRRRQAUUUUAFFFFABRRRQAUUUUAFFFFABRRRQAUUUUAFFFFABRRRQAUUUUAFFFFABRRRQAUUUUAFFFFABRRRQAUUUUAFFFFABRRRQAUUUUAFFFFABRRRQAUUUUAFFFFABRRRQAUUUUAFFFFABRRRQAUUUUAFFFFABRRRQAUUUUAFFFFABRRRQAUUUUAFFFFABRRRQAUUUUAFFFFABRRRQAUUUUAFFFFABRRRQAUUUUAFFFFABRRRQAUUUUAFFFFABRRRQAUUUUAFFFFABRRRQAUUUUAFFFFABRRRQAUUUUAFFFFABRRRQAUUUUAFFFFABRRRQAUUUUAFFFFABRRRQAUUUUAFFFFABRRRQAUUUUAFFFFABRRRQAUUUUAFFFFABRRRQAV8y/GObzviJqnOQnlIPwjXP65r6ar5U+I03n+Otcf0unT/AL5O3+lfR8MxviJS7R/VHz/EUrYeMfP9Gc5RRRX2x8cFFFFABRRRQAUUUUAFFFFABXW/D3wXdeLdR/ih02Ejz7jH/jq+rH9Op7As+H/g278W6lsTdDp8RH2i4x0H91fVj+nX6/TGj6ZaaPp0Njp0Kw20Qwqj+ZPcn1rwc4zdYReypfG/w/4J7mU5U8U/a1fgX4/8AXStOtdJ0+Gy0+FYbaFdqIv8/c+9W6KK+FlJyd3ufaJKKstgooopDCiiigAooooAKKKKACiiigDF8VeHbTxFYGC5GydMmGcD5oz/AFHqP64NeFa1pV3o2oSWd/HslXkEcq69mU9wf8819H1j+KPD9p4h08290Nkq5MMwHzRt/Ueo7/XBHNiMOqiutz57O8jjj4+1paVF+Pk/0Z89Vh36bLuQdic/nXWa5pF3ouoSWd9HtkXlWHKuvZlPcf561z2rx8JIP9015iTi7M/PIRlRqunNWexmUUUVZ1hRRRQAUUUUAFFFFABRRRQAUUUUAFFFFABRRRQAUUUUAFFFFABRRRQAUUUUAevfC/4ibPJ0fxBN8vCW9056eiuf5H869jr4+r1r4XfEP7P5Oj6/N+44S3unP3PRXPp6Ht346dlCv9mR9Xk2dWth8Q/R/o/8z2eiiiu0+uCiiigAooooAKKKKACiiigAooooAKKKKACiiigAooooAKKKKACiiigAooooAKKKKACiiigAooooAKKKKACiiigAooooAKKKKACiiigAooooAKKKKACiiigAooooAKKKKACiiigAooooAKKKKACiiigAooooAKKKKACiiigAooooAKKKKACiiigAooooAKKKKACiiigAooooAKKKKACiiigAooooAKKKKACiiigAooooAKKKKACiiigAooooAKKKKACiiigAooooAKKKKACiiigAooooAKKKKACiiigAooooAKKKKACiiigAooooAKKKKACiiigAooooAKKKKACiiigAooooAKKKKACiiigAooooAKKKKACiiigAooooAKKKKACiiigAooooAKKKKACiiigAooooAKKKKACiiigAooooAKKKKACiiigAooooAKKKKACiiigAooooAKKKKACiiigAooooAKKKKACiiigAr5F8Uy+f4n1eX/npeTN+bk19dV8b3kvnXk8vXfIzfmc19VwvH36kvT9T5niSXu016/oQ0UUV9efKBRRRQAUUUUAFFFFABXT+A/CF54t1TyYcxWcRBuLgjhB6D1Y9hTPA3hK98WaqLe2BjtY8Ge4Iysa/1Y9h/SvprQdHstC0uGw02IRW8Y/Fj3Zj3Jrw83zdYOPsqWs3+H9dD2sqyp4p+0qaQX4jtE0qz0XTYbDToRFbxDAA6k9yT3J9avUUV8JKTm3KTu2fbRiopRirJBRRRUjCiiigAooooAKKKKACiiigAooooAKKKKAMjxNoFp4g08212u11yYplHzRt6j29R3/I14P4m0K70i6lsb9NrYyjj7rjswNfR9ZfiPQ7TXtPa1vF5HMcg+9G3qP8O9c1fDqorrc8DOsljj4+0p6VF17+T/RnymwKsQRgg4NJXSeNvDl5oGpNHdJweVkUfK4/vD/PFc3Xn2a0Z8NKMoNxmrNboKKKKBBRRRQAUUUUAFFFFABRRRQAUUUUAFFFFABRRRQAUUUUAFFFFABRRRQAUUUUAeq/C/4hmy8rSNelJtOFguXP+q9FY/3fQ9vp09sBBAIOQe9fH1eo/DD4hHTTFpGuSk2J+WC4Y8w/7Lf7Pv2+nTroV7e7I+pybOuS2HxD06Pt5P8AzPcKKRSGUMpBUjII70tdx9gFFFFABRRRQAUUUUAFFFFABRRRQAUUUUAFFFFABRRRQAUUUUAFFFFABRRRQAUUUUAFFFFABRRRQAUUUUAFFFFABRRRQAUUUUAFFFFABRRRQAUUUUAFFFFABRRRQAUUUUAFFFFABRRRQAUUUUAFFFFABRRRQAUUUUAFFFFABRRRQAUUUUAFFFFABRRRQAUUUUAFFFFABRRRQAUUUUAFFFFABRRRQAUUUUAFFFFABRRRQAUUUUAFFFFABRRRQAUUUUAFFFFABRRRQAUUUUAFFFFABRRRQAUUUUAFFFFABRRRQAUUUUAFFFFABRRRQAUUUUAFFFFABRRRQAUUUUAFFFFABRRRQAUUUUAFFFFABRRRQAUUUUAFFFFABRRRQAUUUUAFFFFABRRRQAUUUUAFFFFABRRRQAUUUUAFFFFABRRRQAUUUUAFFFFABRRRQAUUUUAFFFFABRRRQAUUUUAFFFFABRRRQAUUUUAQ3snlWc8n9yNm/IV8b19feI38rw9qkn921lb8kNfINfX8Lr3ar9P1PlOJH71Nev6BRRRX1R8yFFFFABRRRQAV0Pgnwpe+K9WFraAx26Yae4IysS/1J7D+mTTfBnhe+8VastpZDZEuGnnYfLEvqfU+g7/ma+m/DehWPh3SYtP02PZEnLMfvSN3Zj3JrxM3zaODj7OnrN/h5v8AQ9jKsreLl7SppBfj5DvD2i2Xh/SotP02Ly4Y+pP3nbuzHuTWlRRXwc5ynJyk7tn28YqCUYqyQUUUVJQUUUUAFFFFABRRRQAUUUUAFFFFABRRRQAUUUUAFFFFAGX4j0Oy8QabJZX8e5G+64+8h9RXzf4w8M3vhjU2trxS0TZMM4HyyL/j6ivqSs3xDotlr+mSWOoxb4n5BHDI3ZlPY1hWoqpqtzx81ymGNjzx0muvfyZ8oUV0fjTwlfeFb/yrkebayE+TcKPlceh9G9q5yvOcXF2Z8FVpTozdOorNBRRRSMwooooAKKKKACiiigAooooAKKKKACiiigAooooAKKKKACiiigAooooAKKKKAPTPhh8QW0lotK1qQtpxO2KZuTB7H/Z/l9K90R1kRXRgyMMhgcgj1r4/r0f4ZfEB9EePTNYdn0xjiOQ8m3P9V9u3auuhXt7sj6fJs69nbD4h+70fbyfl+Xoe9UU2KRJY0kidXjcBlZTkEHoQadXcfZBRRRQAUUUUAFFFFABRRRQAUUUUAFFFFABRRRQAUUUUAFFFFABRRRQAUUUUAFFFFABRRRQAUUUUAFFFFABRRRQAUUUUAFFFFABRRRQAUUUUAFFFFABRRRQAUUUUAFFFFABRRRQAUUUUAFFFFABRRRQAUUUUAFFFFABRRRQAUUUUAFFFFABRRRQAUUUUAFFFFABRRRQAUUUUAFFFFABRRRQAUUUUAFFFFABRRRQAUUUUAFFFFABRRRQAUUUUAFFFFABRRRQAUUUUAFFFFABRRRQAUUUUAFFFFABRRRQAUUUUAFFFFABRRRQAUUUUAFFFFABRRRQAUUUUAFFFFABRRRQAUUUUAFFFFABRRRQAUUUUAFFFFABRRRQAUUUUAFFFFABRRRQAUUUUAFFFFABRRRQAUUUUAFFFFABRRRQAUUUUAFFFFABRRRQAUUUUAFFFFABRRRQAUUUUAFFFFABRRRQAUUUUAY3jV/L8Ha63cWM+P+/bV8lV9WfER9ngbXD/ANOjj8xivlOvs+GF+5m/P9D5HiN/vYLy/UKKKK+mPnAooooAK3PB/hm+8U6sllYLtUfNNMw+WJfU+/oO9M8J+HL7xPq8djp6f7UspHyxL3Y/4d6+nfCnh2x8M6THY6emAOZJD96Vu7H/ADxXjZtm0cFHkhrN/h5s9fK8rljJc89IL8fJDvDGgWPhvSYrDTo9qLy7n70jd2Y+ta1FFfAznKpJzm7tn3EIRhFRirJBRRRUlBRRRQAUUUUAFFFFABRRRQAUUUUAFFFFABRRRQAUUUUAFFFFABRRRQBU1XTrTVbGWz1CBJ7eQYZGH6j0PuK8G8efDu98PtJd6eHu9L67gMvCP9oen+0PxxX0JQRkYPSsqlKNRannY/LaOOjaekls/wCuh8fUV7x41+F1lqnmXehlLG9PJix+6kP0H3T9OPbvXi2s6Rf6LeNa6nbSW8w6Bhww9QehHuK8+pSlT3PhsdltfBP94tO62KFFFFZnAFFFFABRRRQAUUUUAFFFFABRRRQAUUUUAFFFFABRRRQAUUUUAFFFFABRRRQB6H8M/H8mgyJp2qu0mlMcK3U25Pceq+o/Eeh97hljnhSWF1kidQyupyGB6EGvkGu/+Gvj2Xw9MthqTNLpLtwerQE9x/s+o/Ee/VQr8vuy2Ppcnzn2NqGIfu9H2/4H5eh9BUVHbzRXMEc1vIskMihkdDkMD0INSV3n2id9UFFFFABRRRQAUUUUAFFFFABRRRQAUUUUAFFFFABRRRQAUUUUAFFFFABRRRQAUUUUAFFFFABRRRQAUUUUAFFFFABRRRQAUUUUAFFFFABRRRQAUUUUAFFFFABRRRQAUUUUAFFFFABRRRQAUUUUAFFFFABRRRQAUUUUAFFFFABRRRQAUUUUAFFFFABRRRQAUUUUAFFFFABRRRQAUUUUAFFFFABRRRQAUUUUAFFFFABRRRQAUUUUAFFFFABRRRQAUUUUAFFFFABRRRQAUUUUAFFFFABRRRQAUUUUAFFFFABRRRQAUUUUAFFFFABRRRQAUUUUAFFFFABRRRQAUUUUAFFFFABRRRQAUUUUAFFFFABRRRQAUUUUAFFFFABRRRQAUUUUAFFFFABRRRQAUUUUAFFFFABRRRQAUUUUAFFFFABRRRQAUUUUAFFFFABRRRQAUUUUAFFFFABRRRQAUUUUAFFFFAHLfFBtngDWj/0xx+bAV8tV9QfFttvw71k/7CD85FFfL9fbcMr/AGaT/vfoj47iJ/7RFf3f1YUUUV9GfPhWv4W8P33iXVo7DTo8ueXkP3Y17sx9P503wzoN94j1aKw02PdI3LOfuxr3Zj2FfTng3wxY+FdJWzsV3SNhpp2HzSt6n0HoO35mvHzXNY4KHLHWb2XbzZ62WZZLGS5paQW/n5Id4R8NWPhfSUsrBcsfmlmYfNK3qf6DtW3RRXwNSpKrJzm7tn3FOnGnFQgrJBRRRUFhRRRQAUUUUAFFFFABRRRQAUUUUAFFFFABRRRQAUUUUAFFFFABRRRQAUUUUAFFFFABVLV9JsNYtDbanaxXMJ52uOQfUHqD7irtFDV9yZRU1yyV0eNeKPhDIhefw5cCRev2a4OGHsr9D+OPrXl+q6XfaTcm31K1mtph/DIuM+4Pce4r61qtqFhaajbNb39tDcwt1SVAw/WuWeFi9Y6Hz+M4doVfeovlf4f8D+tD5Hor3HxF8ItPui8uiXL2Uh5EUmZI/wAD94frXmuveBfEGilmuLB5oF/5bW/7xcevHI/ECuWdGcN0fM4rKcVhtZxuu61X9epzFFFFZHnBRRRQAUUUUAFFFFABRRRQAUUUUAFFFFABRRRQAUUUUAFFFFABRRRQB3fw38eTeG51sr8vLpEjcjqYCf4l9vUfiOev0Da3EN3bR3FtKksEihkdDkMD3FfIddx8OPHU/hm4FreF5tJkb5k6mIn+Jf6iuqhX5fdlsfR5PnLw9qFd+70fb/gfkfRNFQ2V1BfWkVzaSpNbyruR0OQwqau8+1TTV0FFFFAwooooAKKKKACiiigAooooAKKKKACiiigAooooAKKKKACiiigAooooAKKKKACiiigAooooAKKKKACiiigAooooAKKKKACiiigAooooAKKKKACiiigAooooAKKKKACiiigAooooAKKKKACiiigAooooAKKKKACiiigAooooAKKKKACiiigAooooAKKKKACiiigAooooAKKKKACiiigAooooAKKKKACiiigAooooAKKKKACiiigAooooAKKKKACiiigAooooAKKKKACiiigAooooAKKKKACiiigAooooAKKKKACiiigAooooAKKKKACiiigAooooAKKKKACiiigAooooAKKKKACiiigAooooAKKKKACiiigAooooAKKKKACiiigAooooAKKKKACiiigAooooAKKKKACiiigAooooAKKKKACiiigAooooAKKKKACiiigAooooAKKKKAOM+MZx8ONX9/JH/kZK+ZK+mPjP/wAk61T/AHof/Rq18z19xw1/usv8T/JHxnEX+8x/wr82Fafh3RL7xDqsVhpsW+Z+ST91F7sx7AU3w/o17r2qQ2GmxGSeQ/8AAUHdmPYCvprwP4TsvCelC2tQJLmTBnuCMNI39AOw/rXXmuaQwMLR1m9l+r/rU5csy2WNnd6QW7/RD/BXhWx8KaStpZjfM+GnnYfNK39AOw7fXJroKKK/P6tWdWbnN3bPuqdONKKhBWSCiiioLCiiigAooooAKKKKACiiigAooooAKKKKACiiigAooooAKKKKACiiigAooooAKKKKACiiigAooooAKKKKACiiigDE1rwroetFm1HTbeSRusqrsf8A76XBrhdX+DljKWfSdRmtz1CTqJF+mRgj9a9VorOVKEt0cWIy7DYjWpBN99n96PnbVvhf4lsNzRW8V7GP4reQE/8AfLYP5ZrkL6wvNPl8u+tZ7aT+7NGUP619cUyaKOeMxzRpJGequoIP4GsJYSL2Z49fhmjLWlNr11/yPkGivpvUvAfhnUCTNpMEbH+KDMX/AKCQK5jUPg9pE2TY315bMez7ZFH4YB/WsnhZrY8qrw5iofA1L52/M8Lor07UPg7q0WTY39ncqOzho2P4YI/Wuevvh34otMltLeVR3hdXz+AOf0rJ0prdHnVMsxdL4qb+6/5HJUVdvdJ1Gxz9tsLu3x/z1hZP5iqVZtWOKUXF2krBRRRQIKKKKACiiigAooooAKKKKACiiigAooooA7T4d+OLjwvdiC43zaVK37yLOTGf7y+/qO9fQ1heW+oWcV3ZTJNbyruR0PBFfItdh8PvG1z4WvPLl3T6XK372HPKn++vv7d/yI6aFfk92Wx9Dk+cvDNUaz9zv2/4B9I0VW02+ttSsYbyxmWa2lXcjr0P+B9qs16G59umpK62CiiigYUUUUAFFFFABRRRQAUUUUAFFFFABRRRQAUUUUAFFFFABRRRQAUUUUAFFFFABRRRQAUUUUAFFFFABRRRQAUUUUAFFFFABRRRQAUUUUAFFFFABRRRQAUUUUAFFFFABRRRQAUUUUAFFFFABRRRQAUUUUAFFFFABRRRQAUUUUAFFFFABRRRQAUUUUAFFFFABRRRQAUUUUAFFFFABRRRQAUUUUAFFFFABRRRQAUUUUAFFFFABRRRQAUUUUAFFFFABRRRQAUUUUAFFFFABRRRQAUUUUAFFFFABRRRQAUUUUAFFFFABRRRQAUUUUAFFFFABRRRQAUUUUAFFFFABRRRQAUUUUAFFFFABRRRQAUUUUAFFFFABRRRQAUUUUAFFFFABRRRQAUUUUAFFFFABRRRQAUUUUAFFFFABRRRQAUUUUAFFFFABRRRQAUUUUAFFFFABRRRQAUUUUAcx8TNMudY8D6pZ2SGS5ZFdEHVtrqxA9yAa+atG0PUdY1VNOsbWR7ottZSpHl+pb0Ar68or2cuzieBpSpRje+q8n+v4Hk4/KYY2rGpKVraeq/Q5rwJ4RsvCWliCDEt3IAbi4I5c+g9FHYV0tFFeVVqzrTdSo7tnpUqUKUFCCskFFFFZmgUUUUAFFFFABRRRQAUUUUAFFFFABRRRQAUUUUAFFFFABRRRQAUUUUAFFFFABRRRQAUUUUAFFFFABRRRQAUUUUAFFFFABRRRQAUUUUAFFFFABRRRQAVQu9F0u8z9r02ynz3kgVv5ir9FJq+5MoRkrSVzl7nwB4XuCTJo8A/65s0f/oJFZdz8KfDM2fLiu4P+uc5P/oWa7yipdOD6HLPL8LP4qcfuR5dc/BvS2z9m1K9j/66BH/kBWXcfBiYf8e2tRt7SW5X9Qxr2WioeHpvoc08kwUv+Xf4v/M8Jm+DuuL/AKm905x/tM6n/wBBNUJvhT4mj+5Fay/7k4H88V9C0VLwsDnlw7g3tdfM+bJfhx4rj66SzD1WeM/+zVVk8DeJo/vaNdH/AHQG/ka+naKn6pHuYvhnDdJS/D/I+WJPCniCP72ial+Fs5/kKqyaJqsX+t0y+T/et3H9K+saKX1RdzJ8MUulR/cfIklrcRf6yCVP95CKhr7BprIrfeVT9RS+qeZm+F+1X8P+CfIFFfXTWds33reE/VBUTaXp7fesbU/WFf8ACl9Ufch8Ly6Vfw/4J8lUV9YNoekt97S7A/W3T/Ck/sHR/wDoFaf/AOAyf4Uvqj7k/wCrFT/n4vuPPPgHHerpmpvKHFg8ieTu6FwDvK/+O5+ntXqtNjRIo1SNVRFGAqjAA9hTq66cOSKifT4LDfVaEaN726hRRRVnUFFFFABRRRQAUUUUAFFFFABRRRQAUUUUAFFFFABRRRQAUUUUAFFFFABRRRQAUUUUAFFFFABRRRQAUUUUAFFFFABRRRQAUUUUAFFFFABRRRQAUUUUAFFFFABRRRQAUUUUAFFFFABRRRQAUUUUAFFFFABRRRQAUUUUAFFFFABRRRQAUUUUAFFFFABRRRQAUUUUAFFFFABRRRQAUUUUAFFFFABRRRQAUUUUAFFFFABRRRQAUUUUAFFFFABRRRQAUUUUAFFFFABRRRQAUUUUAFFFFABRRRQAUUUUAFFFFABRRRQAUUUUAFFFFABRRRQAUUUUAFFFFABRRRQAUUUUAFFFFABRRRQAUUUUAFFFFABRRRQAUUUUAFFFFABRRRQAUUUUAFFFFABRRRQAUUUUAFFFFABRRRQAUUUUAFFFFABRRRQAUUUUAFFFFABRRRQAUUUUAFFFFABRRRQAUUUUAFFFFABRRRQAUUUUAFFFFABRRRQAUUUUAFFFFABRRRQAUUUUAFFFFABRRRQAUUUUAFFFFABRRRQAUUUUAFFFFABRRRQAUUUUAFFFFABRRRQAUUUUAFFFFABRRRQAUUUUAFFFFABRRRQAUUUUAFFFFABRRRQAUUUUAFFFFABRRRQAUUUUAFFFFABRRRQAUUUUAFFFFABRRRQAUUUUAFFFFABRRRQAUUUUAFFFFABRRRQAUUUUAFFFFABRRRQAUUUUAFFFFABRRRQAUUUUAFFFFABRRRQAUUUUAFFFFABRRRQAUUUUAFFFFABRRRQAUUUUAFFFFABRRRQAUUUUAFFFFABRRRQAUUUUAFFFFABRRRQAUUUUAFFFFABRRRQAUUUUAFFFFABRRRQAUUUUAFFFFABRRRQAUUUUAFFFFABRRRQAUUUUAFFFFABRRRQAUUUUAFFFFABRRRQAUUUUAFFFFABRRRQAUUUUAFFFFABRRRQAUUUUAFFFFABRRRQAUUUUAFFFFABRRRQAUUUUAFFFFABRRRQAUUUUAFFFFABRRRQAUUUUAFFFFABRRRQAUUUUAFFFFABRRRQAUUUUAFFFFABRRRQAUUUUAFFFFABRRRQAUUUUAFFFFABRRRQAUUUUAFFFFABRRRQAUUUUAFFFFABRRRQAUUUUAFFFFABRRRQAUUUUAFFFFABRRRQAUUUUAFFFFABRRRQAUUUUAFFFFABRRRQAUUUUAFFFFABRRRQAUUUUAFFFFABRRRQAUUUUAFFFFABRRRQAUUUUAFFFFABRRRQAUUUUAFFFFABRRRQAUUUUAFFFFABRRRQAUUUUAFFFFABRRRQAUUUUAFFFFABRRRQAUUUUAFFFFABRRRQAUUUUAFFFFABRRRQAUUUUAFFFFABRRRQAUUUUAFFFFABRRRQAUUUUAFFFFABRRRQAUUUUAFFFFABRRRQAUUUUAFFFFABRRRQAUUUUAFFFFABRRRQAUUUUAFFFFABRRRQAUUUUAFFFFABRRRQAUUUUAFFFFABRRRQAUUUUAFFFFABRRRQAUUUUAFFFFABRRRQAUUUUAFFFFABRRRQAUUUUAFFFFABRRRQAUUUUAFFFFABRRRQAUUUUAFFFFABRRRQAUUUUAFFFFABRRRQAUUUUAFFFFABRRRQAUUUUAFFFFABRRRQAUUUUAFFFFABRRRQAUUUUAFFFFABRRRQAUUUUAFFFFABRRRQAUUUUAFFFFABRRRQAUUUUAFFFFABRRRQAUUUUAFFFFABRRRQAUUUUAFFFFABRRRQAUUUUAFFFFABRRRQAUUUUAFFFFABRRRQAUUUUAFFFFABRRRQAUUUUAFFFFABRRRQAUUUUAFFFFABRRRQAUUUUAFFFFABRRRQAUUUUAFFFFABRRRQAUUUUAFFFFABRRRQAUUUUAFFFFABRRRQAUUUUAFFFFABRRRQAUUUUAFFFFABRRRQAUUUUAFFFFABRRRQAUUUUAFFFFABRRRQAUUUUAFFFFABRRRQAUUUUAFFFFABRRRQAUUUUAFFFFABRRRQAUUUUAFFFFABRRRQAUUUUAFFFFABRRRQAUUUUAFFFFABRRRQAUUUUAFFFFABRRRQAUUUUAFFFFABRRRQAUUUUAFFFFABRRRQAUUUUAFFFFABRRRQAUUUUAFFFFABRRRQAUUUUAFFFFABRRRQAUUUUAFFFFABRRRQAUUUUAFFFFABRRRQAUUUUAFFFFABRRRQAUUUUAFFFFABRRRQAUUUUAFFFFABRRRQAUUUUAFFFFABRRRQAUUUUAFFFFABRRRQAUUUUAFFFFABRRRQAUUUUAFFFFABRRRQAUUUUAFFFFABRRRQAUUUUAFFFFABRRRQAUUUUAFFFFABRRRQAUUUUAFFFFABRRRQAUUUUAFFFFABRRRQAUUUUAFFFFABRRRQAUUUUAFFFFABRRRQAUUUUAFFFFABRRRQAUUUUAFFFFABRRRQAUUUUAFFFFABRRRQAUUUUAFFFFABRRRQAUUUUAFFFFABRRRQAUUUUAFFFFABRRRQAUUUUAFFFFABRRRQAUUUUAFFFFABRRRQAUUUUAFFFFABRRRQAUUUUAFFFFABRRRQAUUUUAFFFFABRRRQAUUUUAFFFFABRRRQAUUUUAFFFFABRRRQAUUUUAFFFFABRRRQAUUUUAFFFFABRRRQAUUUUAFFFFABRRRQAUUUUAFFFFABRRRQAUUUUAFFFFABRRRQAUUUUAFFFFABRRRQAUUUUAFFFFABRRRQAUUUUAFFFFABRRRQAUUUUAFFFFABRRRQAUUUUAFFFFABRRRQAUUUUAFFFFABRRRQAUUUUAFFFFABRRRQAUUUUAFFFFABRRRQAUUUUAFFFFABRRRQAUUUUAFFFFABRRRQAUUUUAFFFFABRRRQAUUUUAFFFFABRRRQAUUUUAFFFFABRRRQAUUUUAFFFFABRRRQAUUUUAFFFFABRRRQAUUUUAFFFFABRRRQAUUUUAFFFFABRRRQAUUUUAFFFFABRRRQAUUUUAFFFFABRRRQAUUUUAFFFFABRRRQAUUUUAFFFFABRRRQAUUUUAQ311DY2U93cuEggjaWRj2VRkn8hXzDqnxi8XXV9NLZX0dlbsx8uFLeN9q9gSykk+9eq/tA6/wD2X4NXT4nxcanJ5fHXy1wXP/oI/wCBGvmeNGkkVI1LOxAVQMkk9qQz0LTfjD4vtr2KW7v47yBWG+CS3jUOO4yqgg19O6deQ6jp9te2rboLiJZYz6qwyP518QzRPBM8UylJEYqykYII4INfSf7Pevf2l4Qk0yZ83GmybQCefKbJX9dw/AUAep0UUUxBRRRQAUUUUAFFFFABRRRQAUUUUAFFFFABRRRQAUUUUAFFFFABRRRQAUUUUAFFFFABRRRQAVQ1+6kstB1K6gIEsFtJKhIz8yqSP5VfrJ8Xf8iprX/XlN/6LagD5Fl8U6/NK0kmt6mzsck/an/xr6J+Aus3+teCZZNUuZLmW3u3gSSVtzFAiMMk8nlj1r5dr6S/Zs/5Ea+/7CUn/oqKkM9XooopiCiiigAooooAKKKKACiiigAooooAKKKKACiiigAooooAKKKKACiiigAooooAKKKKACiiigAooooAKKKKACiiigAooooAKKKKACiiigAooooAKKKKACiiigAooooAKKKKACiiigAooooAKKKKACiiigAooooAKKKKACiiigAooooAKKKKACiiigAooooAKKKKACiiigAooooAKKKKACiiigAooooAKKKKACiiigAooooAKKKKACiiigAooooAKKKKACiiigAooooAKKKKACiiigAooooAKKKKACiiigAooooAKKKKACiiigAooooAKKKKACiiigAooooAKKKKACiiigAooooAKKKKACiiigAooooAKKKKACiiigAooooAKKKKACiiigAooooAKKKKACiiigAooooAKKKKACiiigAooooAKKKKACiiigAooooAKKKKACiiigAooooAKKKKACiiigAooooAKKKKACiiigAooooAKKKKACiiigAooooAKKKKACiiigAooooAKKKKACiiigAoorE8a62vh3wrqWqMRugiJjB7yHhB/wB9EUAfOPxw17+2/Hd1FG+6208fZUweNwPzn67iR+ApPghoP9t+PLWSRc22nj7XJnplT8g/76IP0BrgpZHlkeSRizuSzMepJ6mvpb9nzQf7M8HPqUqYuNSk3jPXylyF/XcfoRSGeVfHPQf7F8dXE8SYttRX7UmBxuJw4+u4Z/4EKh+Cevf2H48tFlfbbXw+ySZPGWPyH/voD8Ca9f8Aj/oP9q+C/t8SbrnTZPNyBz5bcOP/AEFv+A18yo7RuroxVlOQR1BoA+56KwvAuuL4j8J6bqYIMk0QEoHaQcOPzB/DFbtMQUUUUAMlmiix5siJnpuYDNLHIki7o3V19VORXyf8aJpZviVrIlkdxGyIgY5Cr5a8D0HJrV+CXii28MXOuXWp3DpZLaBxCpyZJN4ChR3bk/hnPAoA+nenWsS+8W+HbGUxXeuabFKOCjXKbh9RnIr5j8b/ABE1zxXPIs1w9pp54WzgYhMf7R6sfrx6AVxtIZ9kWvjfwxdMqw6/phZuga4VSfzI5rfikSaNZInV42GVZTkEexr4Yrc8L+K9Z8MXQm0e9kiXOXhJ3Rv/ALynj8evvRcLH2bRXI/DfxvaeNNIM0aiC/gwtzb5ztJ6MPVTg/yrrqYgoornvHHi3T/B+jtfagS8jHbBAp+aVvQeg9T2/IEA6GsW/wDFfh+wkMd7remwyA4KPcpuH4ZzXy/4y+Iev+KZZFurprexJ+W0tyVQD/a7t+P6VykEMtxII4InlkPRUUsfyFK4z7Bi8d+FZGwviDTQc7fmnVf59vetuwv7PUIvNsLu3uov78MgcfmDXxTcade20fmXFncxR5xukiZR+ZFNsb26sLlbixuZradfuyQuUYfiOaLgfcNFeK/CT4rT6new6J4mdGuJTst7zAXe3ZHHTJ7HvwOpzXtVMQUUUdOtABVa+v7PT4fNv7q3tYv780gRfzJrxb4m/GCSC5m0vwk6fISkt/gNz0IjHT/gX5eteI6hfXeo3LXF/czXM7dZJnLsfxNAH15J478KxttbxBphOcfLcKw/Mfzq5YeKNB1BwljrWnTyE4CJcoW/LOa+LqKQ7H3TRXyL4P8AiH4g8LyItrdtcWQ62lwS8ePbuv4frX0r4F8Y6d4x0s3WnkxzR4We2c/PE39Qex7+xyKYjpayfF3/ACKmtf8AXlN/6Latasnxd/yKmtf9eU3/AKLagD4sr6S/Zs/5Ea+/7CUn/oqKvm2vXfhx4+s/Bfw3vBsFzqc+oSGC3zwB5UXzv6Ln8+g7kIZ9EzSxwRNLPIkcajLO5AA+pNYFz448L27Msuv6ZuXqFuFbH5E18peJvFGseJroz6xeyzjOViziNP8AdXoP51i0AfaGn+KdA1GURWOtadPKTgRpcIWP0Gc1s18LV33gH4nax4XuIobmWS/0nIDW8rZZB6xsen06fzoEfVdFUtF1Sz1rS7fUNNmE1rOu5GH6g+hB4I9au0wCiisvxLrth4b0ebUtUl8u3j4AHLO3ZVHcn/PFAGpWTqXiXQ9MkMeo6xp9tIOCktwit+Wc180+OPihrniWeSOCeTTtNyQtvA5BYf7bDlvp09q4REeVwsas7noFGSaQz7Di8deFZW2r4g0wHOPmuFUfmTW7Z3ltewiWzuIbiI/xxOHX8xXxNcWF5bJvubS4hT+9JGyj9RT9K1S/0i6W50y8ntJx/HC5Un2OOo9jRcD7dorx/wCFfxZGs3EWkeJTHFfvhYLpRtWY/wB1h0DHtjg9ODjPsFMQUUUUAFFFFABRRRQAUUUUAFFFFABRRRQAUUUUAFFFFABRRRQAUUUUAFFFFABRRRQAUUUUAFFFFABRRRQAUUUUAFFFFABRRRQAUUUUAFFFFABRRRQAUUUUAFFFFABRRRQAUUUUAFFFFABRRRQAUUUUAFFFFABRRRQAUUUUAFFFFABRRRQAUUUUAFFFFABRRRQAUUUUAFFFFABRRRQAUUUUAFFFFABRRRQAUUUUAFFFFABRRRQAUUUUAFFFFABRRRQAUUUUAFFFFABRRRQAUUUUAFFFFABRRRQAUUUUAFFFFABRRRQAUUUUAFFFFABRRRQAUUUUAFFFFABRRRQAUUUUAFFFFABRRRQAUUUUAFFFFABRRRQAUUUUAFFFFABRRRQAUUUUAFFFFABRRRQAUUUUAFFFFABRRRQAUUUUAFFFFABRRRQAUUUUAFFFFABRRRQAUUUUAFFFFABRRRQAUUUUAFFFFABRRRQAUUUUAFFFFABRRRQAUUUUAFeGftJ6/hNN0GF+Sftc4H4qg/8AQj+Ve5OyojO7BVUZJJwAK+NvHmut4j8W6lqeSYpZSIge0a/Kv6AfiTQBn6Dpk2ta1ZabbD97dSrEDjOMnk/QDJ/CvtPT7SHT7C3s7VNlvbxrFGvoqjA/lXz7+zjoP2vxBea1MmY7GPy4iR/y0cYJH0XP/fQr6JoAhvbaK9s57W5QPBPG0UinurDBH5Gvi3xHpUuh69f6ZPkyWszR5/vAHhvxGD+NfbFfPX7SGg/ZtasdbhTEd2nkTEf89E6E/VeP+A0AaH7Nmvc6loEz/wDT3ACforj/ANBOPrXutfGfgfXG8OeK9N1QEiOCUeaB3jPDj/vkmvstHWRFdGDIwyCOhFAC0UUUAfJPxj/5KXrn/XRP/Ra1xldn8Y/+Sl65/wBdE/8ARa1X+FuiJ4g8daXZTrutg5mmBGQVQbsH2JAH40hnpfwt+EdrPp9vq/iqN5GmAkhsslVCnoX75PXb+eeg9ftfDui2kQjttI0+JB2S3Qf0rU6dKKYjk/EXw88M67bulzpcEErDie1QRSKfXIGD+INfNHxB8I3fg3XWsblvNt3HmW84GBIn9COhH9CK+w681+P2jLqXgOS8Cjz9OlWZT32k7WH6g/8AAaAPA/h94kl8K+KbPUUZhBuEdyg/jiJ+YY9uo9wK+xI3SWNZI2DIwDKwOQQehFfDFfXnwm1FtU+HeiTucukHkNzz+7JTn8FB/GkM62vlb446vcan8QL2CbcsFiFt4UPYYBJ/Ekn6Y9K+qazNQ8PaLqVx5+o6Rp13PjHmT2ySNj6kZpiPmX4T+A38Z6pI90zxaVakee68M7Hoin19T2H1FfTuiaLp2h2a2uk2cNrAoxiNcFvcnqT7mp9P0+z023+z6daW9pBkt5cEaxrk9TgDFWaAAgMCGAIPBBryH4zfDrT7nQrvW9GtY7W/tFM0yRKFSaMfeJHQMBzkdcHrxj16s3xDPaR6ReR3tzBAksDpmVwvVSO9AHxSrFWDKSGByCO1fYXw211/EfgvTNRmINwyGOb3dSVJ/HGfxr48r6V/ZwkL+A7pTjCahIo+nlxn+tIZ6pXmHx68VSaF4ZTTrNyl5qRaMsDykQ++fqcgfQmvT6+Yf2gtQa7+IUtsT8llbxxAehI3n/0MflTEeaV9BfDL4Q2UNjBqXiuA3F3IA6Wb5CRDtvH8Tex4HTBryv4TaQmteP8ASbaZA8CSGeQEZBCAtg+xIA/GvrukMp22lafaxCK1sLSGMdEjhVQPwArG8ReB/DviCB47/TLcSN0nhQRyqfXcOv45FdLRTEfH3xD8IXXg3XmsZ3863kXzLefGBInv6EdCP8aj+Hviabwp4ptNQRm+z7vLuUH8cRPzcdyOo9wK+j/ix4Mbxl4fjgtHij1C2k8yB5MhTnhlJAOARj8QK8dX4IeKSwDS6YoJ5PnNx/47SGfS6sGUMpBUjII71leLv+RU1r/rym/9FtVzSrVrHS7O0eTzXghSIvjG4qoGfxxVPxd/yKmtf9eU3/otqYj4srR8PaNeeINYttM02PfczttGeijuxPYAcms6vd/2aNJj8rV9YdQZdy2sbf3Rjc355T8qQzsvB/wp8O6DbRteWsep3+AXmuV3Ln/ZQ8AfXJ967A6JpJTYdMsSmMbfs6Yx+VaFFMR5n45+Eei61Zyy6JbxaZqSgmPyhthc+jKOAPcYx79K+ab60nsLye0vImiuIXMciMMFWBwRX3FXzX+0XpSWXjO3vol2i+twz8dXU7Sf++dtIZe/Z08Svba1ceH7iQm3u1M0Ck/dlUZIH1UE/wDARX0NXxr4BvGsPG2hXCHG28iDf7pYBv0Jr7KpiCvlj41eLX8R+KpbW3kJ0zT2MMSg8O44d/xPA9gPU19HeM9TbR/Cer6hGcS29s7xn/bx8v64r4vJJJJOSaQzr/hp4Ln8Z679mDNDYQAPczgcqueFH+0ecfQntivqTw94c0nw7aLb6PYw2yAcsoy7+7MeT+JrjvgHpUdh8Pre5CgTX8rzOe+AxRR+S5/GvR6YhHRZEZHUMjDBUjIIryT4q/Cuy1KwuNU8OWy22pxAyPbwrhLgdwF7N6Y69+TmvXKKAPhcZRuMqwP0INfV3wd8Vv4p8JRtduX1GzPkXDHq/Hyv+I/UGvAvi9pCaN8QdVggULBK4uIwOgDgMR7fMSK6X9nLU2tfGV1YFv3V7bH5c9XQ5B/Iv+dIZ9JUUUUxBRRRQAUUUUAFFFFABRRRQAUUUUAFFFFABRRRQAUUUUAFFFFABRRRQAUUUUAFFFFABRRRQAUUUUAFFFFABRRRQAUUUUAFFFFABRRRQAUUUUAFFFFABRRRQAUUUUAFFFFABRRRQAUUUUAFFFFABRRRQAUUUUAFFFFABRRRQAUUUUAFFFFABRRRQAUUUUAFFFFABRRRQAUUUUAFFFFABRRRQAUUUUAFFFFABRRRQAUUUUAFFFFABRRRQAUUUUAFFFFABRRRQAUUUUAFFFFABRRRQAUUUUAFFFFABRRRQAUUUUAFFFFABRRRQAUUUUAFFFFABRRRQAUUUUAFFFFABRRRQAUUUUAFFFFABRRRQAUUUUAFFFFABRRRQAUUUUAFFFFABRRRQAUUUUAFFFFABRRRQAUUUUAFFFFABRRRQAUUUUAFFFFABRRRQAUUUUAFFFFABRRRQAUUUUAFFFFABRRRQAUUUUAFFFFABRRRQAUUUUAFFFFAHB/GvX/7C8B3gifbc3x+yRY6jcDuP/fIb8SK+Uq9U/aF17+0vF8WmQvmDTY9rDt5r4LfptH4GvK6Qz65+E2g/wDCPeBdPt5E23M6/aZ+Od784PuF2j8K7CvjP/hMfE3/AEMWs/8AgdL/APFUf8Jj4m/6GLWf/A6X/wCKoA+zK5P4p6D/AMJF4H1G0jTdcxp9og9d6c4HuRlfxr5f/wCEx8Tf9DFrP/gdL/8AFUf8Jj4m/wChi1n/AMDpf/iqAMKvqv4I69/bfgO0SR91zYH7JJnrhfuH/vkgfUGvlUksSSSSeSTXqP7Pev8A9meMH02Z9tvqUewZ6eauSv6bh9SKAPpeiiimI+SfjH/yUvXP+uif+i1rov2b0VvHd2SOU0+Rh9fMjH9TXO/GP/kpeuf9dE/9FrXQ/s4yrH48uVbrJYSKv13xn+QNIZ9K0UUUxBXPfESJZvAXiFX6Cwmfp3VCR+oroa5v4k3AtvAHiB2xg2UsfP8AtKV/rQB8dV9P/s9zGX4eIhz+6upUH6N/7NXzBX1F+z/B5Pw5t3xjzriWT687f/ZaQz0eqWs6tYaLYSXuq3UVrap1eQ/oB1J9hzRrep22jaTd6jesVtraMyOR1IHYe56CvkTxr4s1Hxdq73moyERAkQW4PyQr6Aevqe9MR634l+O0EUjReHdMM4HAuLslVP0QckfUj6VwOpfFvxhe5C6ilqh/ht4VX9SCf1qr4B+HWr+MSZrfbaacrbWupQcE9wg/iP5D3r2bRPgp4YskU6ibvUpcfN5khjTPsEwR+JNIZ4BfeLPEN/n7ZrepSqf4Tcvt/LOKyUSa6lIRZJpDycAsTX2DYeB/C9jj7PoOnAjozwCRh+LZNaWqCHT9Bv3giihSK3kfCqFXhSegoA+J6+kv2bP+RGvv+wlJ/wCioq+ba+kv2bP+RGvv+wlJ/wCioqAPV6+SfjISfiXrmTn94n/ota+tq+S/jOjR/E3XAwwS8bfgYkI/nTEbX7O6K3xAYkZK2chHscqP6mvpqvmP9nmVY/iEFPWS0lUfXKn+lfTlABRRRQAUUUUAFZPi7/kVNa/68pv/AEW1a1ZPi7/kVNa/68pv/RbUAfFlfSX7Nn/IjX3/AGEpP/RUVfNtfSX7Nn/IjX3/AGEpP/RUVIZ6vRRRTEFeB/tOf8f2gf8AXOb+aV75Xgf7Tn/H9oH/AFzm/mlAHkGg/wDIc07/AK+Y/wD0IV9t18SaD/yHNO/6+Y//AEIV9t0kNnD/ABtdk+GGtlTg4hH4GZAa+Tq+s/jTE03wx1tU6hY36dllQn9BXyZQB6DoHxZ8Q6Fo9rpljHp/2a2TYm+ElsZzyd3vV/8A4Xd4q/556Z/34b/4quj8B/CXw94j8I6bqtxeaqk1yhLrFLGFDBipxlCe3rW//wAKK8M/8/2s/wDf6L/43QB57/wu7xV/zz0z/vw3/wAVR/wu7xV/zz0z/vw3/wAVXoX/AAorwz/z/az/AN/ov/jdH/CivDP/AD/az/3+i/8AjdAHg/i7xJe+KtXOpaksC3BjWM+SpUEDOOCTzzW98E5fJ+J2innDGVCB3zE4/nivWv8AhRXhn/n+1n/v9F/8bra8I/CvQPC+sx6nZyX1xdRAiM3MikJkEEgKo5wSOaAO9ooopiCiiigAooooAKKKKACiiigAooooAKKKKACiiigAooooAKKKKACiiigAooooAKKKKACiiigAooooAKKKKACiiigAooooAKKKKACiiigAooooAKKKKACiiigAooooAKKKKACiiigAooooAKKKKACiiigAooooAKKKKACiiigAooooAKKKKACiiigAooooAKKKKACiiigAooooAKKKKACiiigAooooAKKKKACiiigAooooAKKKKACiiigAooooAKKKKACiiigAooooAKKKKACiiigAooooAKKKKACiiigAooooAKKKKACiiigAooooAKKKKACiiigAooooAKKKKACiiigAooooAKKKKACiiigAooooAKKKKACiiigAooooAKKKKACiiigAooooAKKKKACiiigAooooAKKKKACiiigAooooAKKKKACiiigAooooAKKKKACiiigAooooAKKKKACiiigAooooAKKKKACiiigAooooAKo67qUOjaNe6lcn9zawtKwz1wM4Huen41eryD9o3X/snh+00WF8S30nmSgf880OQD9Wx/3yaAPn3UbybUdQub26bdPcStLIfVmOT/OvRPhZ8M08ZaXd397dzWkEcoii8tAd5Ayx57DK/rXmsaNJIqRqWdiAqgZJJ7V9l+B9DXw54U03SwBvgiHmkd5Dy5/76JpDPNf+FC6Z/wBBq8/79LR/woXTP+g1ef8Afpa9mopiPGf+FC6Z/wBBq8/79LR/woXTP+g1ef8Afpa9mooA+Zfil8ME8HaRbajY3k13A0vlTeYgGzIyp47cEflXnGn3k2n39teWrbJ7eRZY29GU5H8q+yPGWip4i8L6lpb4zcRERk9FccofwYCvjKaJ4JnimUpIjFWUjBBHBBpDPtfQdTh1rRbLUrY/urqJZQM5xkcj6g5H4Vfrx/8AZx1/7XoF5osz5ksZPNiBP/LNzyB9Gz/30K9gpiPkn4x/8lL1z/ron/otazvh9rw8NeMNN1N8+RHJtmA/55sNrfkDn6itH4x/8lL1z/ron/ota45I3dXZEZlQbmIGdoyBk+gyQPxFIZ9yQSxzwxzQuskUih0dTkMCMgg+lPr5l+GvxXu/C9smm6rC99pan92Vb97CPRc8Eexx9a9atfi/4MmiDyalLbsR9yW1kJH/AHypH60xHoFeT/tEa/HY+FYtHjcG51CQFlzyIkIYn8WCj8/SneIPjd4fs7dxo8VzqNzj5MoYo8+5bn8h+VeAeJddv/EmsTalqkvmXEnAA4VF7Ko7Af55pAZdfY3w40s6N4G0WydSsiW6u6nqHf52H5sa+cvhB4Tk8UeK4DLHnTrJlnuWI4bB+VP+BEfkDX1hQM81/aDuHg+HciISFnuYo3weo5b+aivmCvsH4l+H38S+DNQ0+AA3JUSwe7qcgfjgj8a+QJEeKRo5FZHQlWVhggjqCKAPtLwpa29l4Z0q3slUW6W0YTHcbQc/j1/GtWvn34XfFyHR9Nt9H8SJIbaAbILqNdxROyuvUgdAR2wMd69Zt/iD4TuIhJHr9gFPaSTYfybBpiOprgvjXr8WieBL2Ld/pOoA2kSg8kMPnP0C5/Ej1qv4i+MHhfS4H+xXD6ncgfLFbqQpPbLkYA+mT7V8+eLfEuqeNNdW6vcvKxEVvbxAkICeFUdSST16k/hQBz1fSX7Nn/IjX3/YSk/9FRV8219Jfs2f8iNff9hKT/0VFSGer181ftFaY1p41hvgP3V9bKd3+2nykfls/OvpWuH+L3hJvFnhV47RQdRtG862/wBs4+ZPxH6gUxHzh8PNaTw9400rUpSRBFLtlPojAqx/AEn8K+xlZXUMhDKRkEHIIr4ZkRo5GSRWR1JVlYYII7EV6x8NPi5L4fs4tL16GW70+P5YZoyDJCv90g/eUducj34AQz6Porh7b4reDZ4g/wDbCxnuskEikf8Ajv8AKsfxD8afDdhA40ozanc9FVEMaZ92YA4+gNMQvx28Yz+HdEt7DS7loNSvWzvjOHjiHUg9iTgA/X0rwSLxp4njkV18RauSpyN15Iw/EE4NVfE+vX3iXWZ9T1SQPPLwFXO1FHRVHYCun+D/AIQk8UeKIZJ4idLsmE1wxHDEcrH+JHPtn2pDPqLSHuJNJsnvcfamgQzYGPn2jdx9c1U8Xf8AIqa1/wBeU3/otq1qyfF3/Iqa1/15Tf8AotqYj4sr6S/Zs/5Ea+/7CUn/AKKir5tr6S/Zs/5Ea+/7CUn/AKKipDPV6KKKYgrwP9pz/j+0D/rnN/NK98rwP9pz/j+0D/rnN/NKAPINB/5Dmnf9fMf/AKEK+26+JNB/5Dmnf9fMf/oQr7bpIbM7xJpo1jw9qWnEgfareSEE9iykA/gcGviqaJ4JnimUpIjFWUjBBHBBr7mr5u+PXg2TSdcfXrKPOn3zZl2jiKY9c+zdc+ufagR2P7OXiCO60C60OVwLizkM0Sk/ejc84Hs2c/7wr2Cvijw7rV94e1e31LS5fLuYTxkZVgeCpHcEV9H+E/i94d1i2jXUpxpd9jDxz58sn1V+mPrg0wPSKK5q48eeFLeLzH8QaaVxnEc4c/kuT+FeWfET4zLcW0un+ERIgcFXv3UqQP8ApmvUH/aOCOw70Aekap8SvCOl381ne6wi3ELbZFSGSQKR1GVUjP41qeGfFmieJ1nOh36XRhx5i7GRlz0OGAOOOtfGXXrX0v8AAbwhcaBok+p6lGY7zUQpSJhzHEMkZ9Cc5x7D3oA9SooooAKKKKACiiigAooooAKKKKACiiigAooooAKKKKACiiigAooooAKKKKACiiigAooooAKKKKACiiigAooooAKKKKACiiigAooooAKKKKACiiigAooooAKKKKACiiigAooooAKKKKACiiigAooooAKKKKACiiigAooooAKKKKACiiigAooooAKKKKACiiigAooooAKKKKACiiigAooooAKKKKACiiigAooooAKKKKACiiigAooooAKKKKACiiigAooooAKKKKACiiigAooooAKKKKACiiigAooooAKKKKACiiigAooooAKKKKACiiigAooooAKKKKACiiigAooooAKKKKACiiigAooooAKKKKACiiigAooooAKKKKACiiigAooooAKKKKACiiigAooooAKKKKACiiigAooooAKKKKACiiigAooooAKKKKACiiigAooooAKKKKACiiigAooooAKKKKACiiigAooooAKKKKACiiigAr53+NnhfxNq3jme6tdMuryxMUaW7wJvAUKNwOOh3FuvrX0RRQB83fCb4d6y3jCzvtb0ye0sbJvPJnXYXcfcAB5POD6cV9I0UUAFFFFABRRRQAV84/F34d6x/wAJhd6hommT3dlenzv9HXcUkP3wQOeTk596+jqKAPnb4K+F/E+keOre7udLurOx8qRLh502AqVOAM9TuCnj0r6JoooA+SfjH/yUvXP+uif+i1rd/Z7s7fUPFuqWl7Ck9tNpciSRuMhgZYqwvjH/AMlL1z/ron/ota6X9mz/AJHm+/7Bsn/o2KkMs+OfgtqFnPJc+FiL2zYk/ZncLLH7Anhh+Ofr1ry+/wBD1bT5THfaZe27jtLAy/zFfbFFMR8Q22m310wW2srmZm6COJmJ/IV3nhL4Q+ItamjfUYDpVkTlpLgfvCPaPrn64r6iopAZHhXw7p/hjR4tO0qLZEvLO3LyN3Zj3P8A+oVr0UUwCvMPiX8KbXxPNJqWkSR2WrNy4Yfupz6tjkN7jPuO9en0UAfHWu+B/EmhyMt/pF2EH/LWJDJH/wB9LkfnWELO5LbRbzFvQIa+4qKVh3Pj3Q/AfibWpVWy0e7VCf8AWzoYkHvubAP4Zr3j4Z/Cy08KypqOpSJe6uB8pA/dwf7ueSf9o4+gr0qimI+QLv4e+K7a5khbQr6QoxXdFEXU+4I4Ir3z4GaDqPh/wbNBq9u1tPPdvOsTfeClEUZHY/KeK9DooAKKKKAPNPiR8KbHxRLJqGmSJYas3LsR+6mP+0B0P+0PxBrw3Xfh54p0WRhc6Pcyxj/lrbL5yEeuVzj8cV9e0UAfDz2V1G217adWzjBjIOat2GgaxqLhbDS764JOP3cDN+oFfa1FKw7nzj4P+CmrahLHN4ikGnWmcmJGDzMPTjIX6nP0r37QtGsNB0yKw0q3S3tY+ir1J7knqSfU1oUUxBVHXbV77RNQtIiBJcW8kSk9MspA/nV6igD49l8A+K4pGRvD+ollOCVhLD8CODX0B8DtA1Dw94Mlg1aBre4nu3nETfeVSqKM+h+UmvQqKACiiigArx79oHwvq+uf2PdaPZS3i24lSVIhllztIOOpHB6V7DRQB8neGPh/4om8Q6cJNFvLeNZ0d5ZoyiooYEkk+3brX1jRRQAVX1CyttRsprO+hSe2mXZJG4yGFWKKAPnzxv8ABO9tppLnwpILq3Jz9klcLInsrHhh9cH615dqPhzWtNcrf6TfW5HeSBgD9DjBr7UooA+Ho7K6kbbHbTs2cYWMk5rpdD+HfinWZFFto9zDGf8Alrcr5KgevzYJ/DNfXlFKw7nl3w/+EWneH5Y77WXTUdRXDKu39zEfUA/ePufyr1GiimIKKKKACiiigAooooAKKKKACiiigAooooAKKKKACiiigAooooAKKKKACiiigAooooAKKKKACiiigAooooAKKKKACiiigAooooAKKKKACiiigAooooAKKKKACiiigAooooAKKKKACiiigAooooAKKKKACiiigAooooAKKKKACiiigAooooAKKKKACiiigAooooAKKKKACiiigAooooAKKKKACiiigAooooAKKKKACiiigAooooAKKKKACiiigAooooAKKKKACiiigAooooAKKKKACiiigAooooAKKKKACiiigAooooAKKKKACiiigAooooAKKKKACiiigAooooAKKKKACiiigAooooAKKKKACiiigAooooAKKKKACiiigAooooAKKKKACiiigAooooAKKKKACiiigAooooAKKKKACiiigAooooAKKKKACiiigAooooAKKKKACiiigAooooAKKKKACiiigAooooAKKKKACiiigAooooAKKKKACiiigAooooAKKKKACiiigAooooA+SfjH/wAlL1z/AK6J/wCi1rpf2bP+R5vv+wbJ/wCjYq1Pid8L/EeseMr/AFPSYoLm2uirj96qMhCgEENj07Vt/BX4fa14X1281LWlhhV7Y26RLIHYkurZ44AGz9aQz2KiiimIKKKKACiiigAooooAKKKKACiiigAooooAKKKKACiiigAooooAKKKKACiiigAooooAKKKKACiiigAooooAKKKKACiiigAooooAKKKKACiiigAooooAKKKKACiiigAooooAKKKKACiiigAooooAKKKKACiiigAooooAKKKKACiiigAooooAKKKKACiiigAooooAKKKKACiiigAooooAKKKKACiiigAooooAKKKKACiiigAooooAKKKKACiiigAooooAKKKKACiiigAooooAKKKKACiiigAooooAKKKKACiiigAooooAKKKKACiiigAooooAKKKKACiiigAooooAKKKKACiiigAooooAKKKKACiiigAooooAKKKKACiiigAooooAKKKKACiiigAooooAKKKKACiiigAooooAKKKKACiiigAooooAKKKKACiiigAooooAKKKKACiiigAooooAKKKKACiiigAooooAKKKKACiiigAooooAKKKKACiiigAooooAKKKKACiiigAooooAKKKKACiiigAooooAKKKKACiiigAooooAKKKKACiiigAooooAKKKKACiiigAooooAKKKKACiiigAooooAKKKKACiiigAooooAKKKKACiiigAooooAKKKKACiiigAooooAKKKKACiiigAooooAKKKKACiiigAooooAKKKKACiiigAooooAKKKKACiiigAooooAKKKKACiiigAooooAKKKKACiiigAooooAKKKKACiiigAooooAKKKKACiiigAooooAKKKKACiiigAooooAKKKKACiiigAooooAKKKKACiiigAooooAKKKKACiiigAooooAKKKKACiiigAooooAKKKKACiiigAooooAKKKKACiiigAooooAKKKKACiiigAooooAKKKKACiiigAooooAKKKKACiiigAooooAKKKKACiiigAooooAKKKKACiiigAooooAKKKKACiiigAooooAKKKKACiiigAooooAKKKKACiiigAooooAKKKKACiiigAooooAKKKKACiiigAooooAKKKKACiiigAooooAKKKKACiiigAooooAKKKKACiiigAooooAKKKKACiiigAooooAKKKKACiiigAooooAKKKKACiiigAooooAKKKKACiiigAooooAKKKKACiiigAooooAKKKKACiiigAooooAKKKKACiiigAooooAKKKKACiiigAooooAKKKKACiiigAooooAKKKKACuX1/x/4Y0DUGsdV1WOG6UAtGsUkhXPrtU4Psa3NY1CHSdKvNQujiC2iaV/cAZx9a+LNVv5tU1O7v7pt09zK0rn3Y5/KgD6mT4seCndVGtjJOBm2mA/MpxXbQyxzwpLC6yRSKGR1OQwPIIPpXwzX098Ate/tbwStlK+bjTX8k56+WeUP8x/wGgD0uiiigAooooA8l8e/GD/AIRrxLc6Ra6SLo220SSvMUyxUNgDaemetU/C3xsOr+IbDTbvRRAl3MsCyRz7irMQFOCoyMn1rzb412k9v8R9WkmidI5mR42I4ceWvIPfnIrI+HNrPdeO9AFtDJKY76CR9i52qsgJJ9gATSGfY1FFFMQUUUUAFFFFABRRRQAV458RPjJHpV5NpvhqKK6uYiUkupMmNGHBCgfex69PrXV/GXX5fD/gS8ltm2XN0wtImBwVLA5I99obHvXydSA66/8AiR4uvZvMl127jPZYCIlH4KBWd/wmPib/AKGLWf8AwOl/+Kr0v4f/AAZTVtJt9T8RXdxAlwokitrcBXCnkFmIOM+gH4+nY/8ACkfCv/PTU/8Av+v/AMTQM0vgjrV/rvgdJ9UuHuLiK4eHzXOWZQARk9zzjNePfFTxh4hj8eatbWus39rbW8vlRxW07RKAAOykZPfJr6L8M6DYeG9Ii03So2jtoyW+ZtzMSckk9zXyt8Vv+Si69/18n+QoA9R/Z68Saxq19q1nquoXN7DHEkqG4kMjKckHDHnHt7V7ZXz5+zN/yHda/wCvZP8A0KvoOmIKKKKACiiigAooooAKKKKACiiigAooooAKKKKACiiigAooooAKKKKACiiigAooooAKKKKACiiigAooooAKKKKACiiigAooooAKKKKACiiigAooooAKKKKACiiigAooooAKKKKACiiigAooooAKKKKACiiigAooooAKKKKACiiigAooooAKKKKACiiigAooooAKKKKACiiigAooooAKKKKACiiigAooooAKKKKACiiigAooooAKKKKACiiigAooooAKKKKACiiigAooooAKKKKACiiigAooooAKKKKACiiigAooooAKKKKACiiigAooooAKKKKACiiigAooooAKKKKACiiigAooooAKKKKACiiigAooooAKKKKACiiigAooooAKKKKACiiigAooooAKKKKACiiigAooooAKKKKACiiigAooooAKKKKACiiigAooooAKKKKACiiigAooooAKKKKACiiigAooooAKKKKACiiigAooooAKKKKACiiigAooooAKKKKACiiigAooooAKKKKACiiigAooooAKKKKACiiigAooooAKKKKACiiigDyT9ovX/sPhm20eFsTahJukA/55IQf1bb+Rr52tbeW7uobe3QyTTOI0QdWYnAH512Hxg17+3/Hd/LG+62tT9lhIPG1M5I+rbj+NavwD0D+1/Gy3sqbrbTU885HBkPCD88t/wGkMwviZ4Tbwf4hSxVjJbyW8csch/iOMP/48G49CK2PgTr/9jeOYbaVsW2pL9mbPTf1Q/XPH/Aq9P/aH0H+0fCUWqRLmfTZMsR3ifAb8jtP5183QSyQTxzQsUljYOjDqCDkGgD7morI8IazH4h8M6dqkWP8ASYQzgdFccMPwYEfhWvTEFFFFABRXmfxM+KP/AAhuswabBpovJWhEzu8uwKCSABwcng/pVLwD8X/+Em8S2+kXelC0NwGEcqTbxuClsEEDggH8cUAes0UUUAFFeE3nx7dbuZbTQke3DERu9yQzL2JG3jPpXo3w78bweLvDtxqc0AsDbSNHMHkBRcANu3HHGD36c0AdhRXlXiT42aDpszw6Xbz6pIvG9D5cRPsxyT9cYrmT8fbnJx4fhA7Zuj/8TQB73RXB+APiJD4p8P6rqNxZNaPpoLzIj7wy7SwIOBz8p4rgX+Ps+9tnh+LZnjN0c49/loA0v2mZcaPokPPzzyP7cKB/7NXgunwfab+2g/56yKn5kCuz+JPxCl8bwWEcunJZ/ZGdgVlL7twHsMdK4yxuDaXtvcBdxhkWTbnGcHOKQz7hRFjRURQqKMADoBS14J/wv25/6AEP/gUf/iaP+F+3P/QAh/8AAo//ABNMR73XyF8Vv+Si69/18n+Qr0L/AIX7c/8AQAh/8Cj/APE15L4p1dtf8QX2qPCIGupPMMYbcF9s0hnqX7M3/Id1r/r2T/0KvoOvnz9mb/kO61/17J/6FX0HTEFFFR3VxDaW8k91LHDBGu55JGCqo9ST0oAkoryHxR8cNLsZXg0Kzk1F1JBmdvKi+o4Jb8hXC3fxu8UzPmGPTrdewSEn/wBCY0AfTFFfMlt8bPFcUm6QafOv914CP/QWFdp4a+OllcSpD4g057PPH2i3bzEHuVPIH03UAez0VW06+tdSsorvT7iK4tpRlJI23Kas0AFFYnjbXx4Y8MX2rtbtc/Z1XESnG4swUZPYZPNeQx/H2fzF8zw/Hsz8226Oce3y0Ae80VV0m/h1TS7S/tSTBcxLMmeuGGRn35q1QAUUVx/xL8bweCdKguGt/tV1cyFIYd+0HAyzE4PAyPzFAHYUV4jonx1W61W1t9R0dLa1lkCPMlwWMeTjdgqMgd69uoAKKKKACivOPif8TU8F6ja2EFgL26lj8590uwIpJA7HJOD/AJNZ3w++Lb+KvE9vpE+ji289XKyxzF9pVS3I2jjAPPrigD1iiiigAooooAKKKKACiiigAooooAKKKKACiiigAooooAKKKKACiiigAooooAKKKKACiiigAooooAKKKKACiiigAooooAKKKKACiiigAooooAKKKKACiiigAooooAKKKKACiiigAooooAKKKKACiiigAooooAKKKKACiiigAooooAKKKKACiiigAooooAKKKKACiiigAooooAKKKKACiiigAooooAKKKKACiiigAooooAKKKKACiiigAooooAKKKKACiiigAooooAKKKKACiiigAooooAKKKKACiiigAooooAKKKKACiiigAooooAKKKKACiiigAooooAKKKKACiiigAooooAKKKKACiiigAooooAKKKKACiiigAooooAKKKKACiiigAooooAKKKKACiiigAooooAKKKKACiiigAooooAKKKKACiiigAooooAKKKKACiiigAooooAKKKKACiiigAooooAKKKKACiiigAooooAKKKKACiiigAooooAKKKKACua+I+vf8I34N1LUFbbcCPy4OefMbhSPpnP0Brpa8B/aS17zb/TtChb5IF+0zgf324UfgMn/gVAHihJJJJyTX1H8B9B/sfwNDdSptudSb7S2Rzs6IPpj5v+BV85eE9Gk8QeJNO0qLINzMEZh1VOrN+Cgn8K+0LeGO3gjhgQJFGoRFHRQBgCkMh1Oyh1LTbqxul3QXMTQyD/ZYYP8AOvizWtOm0jV7zTroYmtZWhb3KnGR7HrX25Xzl+0ZoP2LxLa6xCuIr+PZIR/z1QAfqu38jTEdB+zbr/mWeo6DM/zRH7VACf4TgOPoDtP/AAI17bXx18O9ePhvxjpuos22BZPLn9PLb5W/IHP1Ar7FBBAIOQaACiiigD5m/aK/5H+P/ryj/wDQnrC+Dn/JS9D/AOuj/wDotq3f2iv+R/j/AOvKP/0J6wvg5/yUvQ/+uj/+i2pDPraiiimI+Fq1otfvoPDUuhwSGOymuDcTBTgyHCgA+wxnHqfYVk13Pwg8IR+LfFHl3oJ060XzpwDjfzhUz7n9AaQzn9B8La5r4LaPplzdIDgyKmEB9NxwM+2a6EfCbxsQCNFPPrdQj/2evqu1t4bS3jt7WJIYI1CpGihVUDoAB0qSnYR5R8JPAuq6L4W1+z1tEtJtTXylQOshRdjLuJUkfxdM9q8/f4IeKQ7BZtMYA4B85uf/AB2vpeigD5B8a+BNW8HRWkmrNastyWVPJkLfdxnOQPUVzNrA91dQwR43yuEXPTJOBXu/7Tn/AB4+H/8ArpN/JK8R0H/kOad/18x/+hCkM9C/4Uj4q/56aZ/3/b/4mj/hSPir/nppn/f9v/ia+maKYj5m/wCFI+Kv+emmf9/2/wDia8+17SrjRNYutNvDGbi2fY5jOVz7GvtqvkL4rf8AJRde/wCvk/yFIZ3X7M3/ACHda/69k/8AQq+g6+fP2Zv+Q7rX/Xsn/oVfQdMQjMFUsxAUDJJ7V8t/Fzx/N4r1R7KwlZNEt3xGo489h/y0b+g7D3Ney/HLW30bwDdJCxWe+cWikdQGBLf+OqR+NfK1IZe0XSb7W9RisdKtpLm6k+6ienqT0A9zXrWkfAa/mhV9W1iC1c4JighMuPYsSvP516D8F/CkXh3wlb3MsY/tHUEWeZyOVU8on4A8+5NegUCPA9T+Al0kTNpmuQzSdo7iAxj/AL6Bb+VeTeItB1Lw7qLWOsWr29wBuAPIZfVSOCK+1a5H4n+E4fFvhi4txGp1CBTLaSdw4H3c+jdD+B7CmB87/DLxzd+DtYQszy6VMwFzb5zx/fUdmH69PcfWNpcQ3drDc20iywTIJI3XoykZBH4V8N19Kfs764+o+EbjTp3LyadLtTPaN8lR+Yf8MUhnofiXS01vw/qOmy423UDxAn+EkcH8Dg/hXxXNE8MzxSqUkRirKeoI4Ir7mr5O+M+j/wBjfELUlRdsN2Rdx++/73/j4egD2b9n/WP7R8BpaO2ZtPmaEjvsPzKf/HiP+A16XXzh+zlrH2PxZd6Y7Yjv4MqPWSPkf+Ol6+j6Ygr5k/aD1r+0fG4sY2zDp0Iixnje3zMfyKj/AIDX0pf3UVjY3N3cHbDbxtK59FUEn9BXxTrF/Lquq3l/cnM11M8z89CxJx+tAFOvsP4baz/b/gjSb5m3TGERSk9d6fKx/EjP418m6zpF1pH2L7Ym37Xapdxe6PnB/SvaP2adZLW+raLI33CLuIZ7H5X/AAyE/OkM9woorE8b6v8A2F4S1bUg214LdjGf9s/Kn/jxFMR8tfFDV/7b8d6vdq26ITGGI9tifKCPrjP416B+zVo/m6rqmsSL8sEYt4yf7zHLH8Ao/wC+q8WJJJJOSa+sPgto/wDY/wAPdODptmvM3cnHXf8Ad/8AHAtIZ3NFFFMQUUUUAFFFFABRRRQAUUUUAFFFFABRRRQAUUUUAFFFFABRRRQAUUUUAFFFFABRRRQAUUUUAFFFFABRRRQAUUUUAFFFFABRRRQAUUUUAFFFFABRRRQAUUUUAFFFFABRRRQAUUUUAFFFFABRRRQAUUUUAFFFFABRRRQAUUUUAFFFFABRRRQAUUUUAFFFFABRRRQAUUUUAFFFFABRRRQAUUUUAFFFFABRRRQAUUUUAFFFFABRRRQAUUUUAFFFFABRRRQAUUUUAFFFFABRRRQAUUUUAFFFFABRRRQAUUUUAFFFFABRRRQAUUUUAFFFFABRRRQAUUUUAFFFFABRRRQAUUUUAFFFFABRRRQAUUUUAFFFFABRRRQAUUUUAFFFFABRRRQAUUUUAFFFFABRRRQAUUUUAFFFFABRRRQAUUUUAFFFFABRRRQAUUUUAFFFFABRRRQAUUUUAFFFFABRRRQAUUUUAFFFFABRRRQAUUUUAFFFFABRRRQAUUUUAFFFFAEdzNHbW8s87hIYlLux6KoGSfyr4w8V6xJ4g8R6jqk2Q1zMXUH+Feir+CgD8K+i/jzr/wDY/giS0ifFzqTfZ1x12dXP0xhf+BV8vUhntf7Nmg+bf6jrsyfLAv2aAn+83LH6gbR/wI179Xg3w/8Ain4Y8LeE7HS2stVeeNS07pDHhpGOWIO8EjsOOgFdF/wvXwz/AM+Os/8AfmL/AOOUxHq9cX8X9B/4SDwJfxRpuubUfaocddyA5A+q7h9SK5z/AIXr4Z/58dZ/78xf/HKP+F6+GT1sdZ/78xf/ABygD5tr6z+Duv8A9v8AgSxkkfdc2g+yTZPOUxg/ipU/XNfLOtSWUur3kmlpKlg8rNAkoAZUJyAQCRwOOtem/s66/wDYPE9xpEz4h1CPKAngSoCR+a7vyFIZ9H0UUUxHzN+0V/yP8f8A15R/+hPWF8HP+Sl6H/10f/0W1bv7RX/I/wAf/XlH/wChPWF8HP8Akpeh/wDXR/8A0W1IZ9bUUUUxHwtXvX7MaL9k8QPgbi8AJ9sP/jXgte+fsx/8ePiD/rpD/J6Qz22iiimIKKKKAPEv2nP+PHw//wBdJv5JXiOg/wDIc07/AK+Y/wD0IV7d+05/x4+H/wDrpN/JK8R0H/kOad/18x/+hCkM+26KKKYgr5C+K3/JRde/6+T/ACFfXtfIXxW/5KLr3/Xyf5CkwO6/Zm/5Dutf9eyf+hV9B18+fszf8h3Wv+vZP/Qq+g6YHh/7TszLb+HYR9x3nc/UCMD/ANCNeG2EH2m+t4P+esip+ZxXtH7TisLrw85HyFJwPqCmf5ivHtB/5Dmnf9fMf/oQpDPtqNFjjVEUKigAAdgKWiimIKKKKAPi/wAaWosfGGt2yLtSK9mVR/s7zj9MV6V+zROV8R6vb5G17QSEZ/uuB/7NXAfEn/kf/EH/AF+y/wDoRrtf2bFJ8b37YO0ac4J/7ax/4Uhn0hXi37Suj+bpmlaxGvzQSNbSkD+Fhlc+wKn/AL6r2mud+Iej/wBveC9W09V3SvAXiH/TRfmX9QB+NMR8neE9VbQ/E2makCQLa4R3x3TPzD8RkV9pIyuishDKwyCO4r4Xr65+Emsf218P9JnZt00Mf2aT13J8oz7kBT+NIZk/HrWf7L8BTW0b7Z9QkW3Hrt+8x+mBj/gVfN/hnSpNc8Q6dpkWQ11OsZI/hUnk/gMn8K9F/aL1oXvi220yNsx6fD8w9JHwx/8AHQlP/Zy0T7Z4pu9VkXMdhDtQkf8ALR8j/wBBDfmKAOl/aM0CMeH9J1O1jCCyf7KwXtGw+X8AVx/wKvLfhRrP9h+PdKuXbbBLJ9nlyeNr/Lk+wJB/CvqHxrow8QeFNU0wgF7iEiPPZxyh/wC+gK+MSGRyCCrKfoQaAPuivH/2kdY+zeHNP0qNsPeTmVwP7iDof+BMp/4DXongfWR4g8JaXqeQXnhHmY/56D5X/wDHga+dvjxrH9qfEC5hRsw2Ea2y4PGfvN+OWI/CmI4zw7pj61r2n6bFkNdTpFkfwgnk/gMn8K+1YIo7eCOGFQkUahEUdAAMAV82/s7aP9u8ZTahIuY9PgLA+kj/ACj9N/5V9K0AFFFFABRRRQAUUUUAFFFFABRRRQAUUUUAFFFFABRRRQAUUUUAFFFFABRRRQAUUUUAFFFFABRRRQAUUUUAFFFFABRRRQAUUUUAFFFFABRRRQAUUUUAFFFFABRRRQAUUUUAFFFFABRRRQAUUUUAFFFFABRRRQAUUUUAFFFFABRRRQAUUUUAFFFFABRRRQAUUUUAFFFFABRRRQAUUUUAFFFFABRRRQAUUUUAFFFFABRRRQAUUUUAFFFFABRRRQAUUUUAFFFFABRRRQAUUUUAFFFFABRRRQAUUUUAFFFFABRRRQAUUUUAFFFFABRRRQAUUUUAFFFFABRRRQAUUUUAFFFFABRRRQAUUUUAFFFFABRRRQAUUUUAFFFFABRRRQAUUUUAFFFFABRRRQAUUUUAFFFFABRRRQAUUUUAFFFFABRRRQAUUUUAFFFFABRRRQAUUUUAFFFFABRRRQAUUUUAFFFFABRRRQAUUUUAFFFFABRRRQAUUUUAFFFFABRRRQAUUVleK9Yj8P8AhzUdUmwRbQl1B/iboq/ixA/GgD5z+POv/wBseN5LSJ822mr9nXHTf1c/XOF/4DXn1lZ3V9N5NlbTXEuN2yFC7Y9cCmXM0lzcSzzuXmlYu7HqzE5J/OvfP2btA8jTdQ12ZfnuW+zQkj+BeWP0LYH/AAGkM8V/4RvXf+gLqf8A4Cyf4Uf8I3rv/QF1P/wFk/wr7ToosFz4s/4RvXf+gLqf/gLJ/hR/wjeu/wDQF1P/AMBZP8K+06KLBc+JL3R9TsYfNvtOvLaLO3fNAyLn0yRTdH1CbStVtNQtTie2lWVPqDnB9q+vfH2hL4k8I6lpu0GWSItD7SL8y/qAPoTXxuylGKsCrA4IIwQaAPt7Sr+HVNMtL+1bdBcxLKh9mGfzq1Xk/wCztr32/wAKz6TM+ZtOk+QHr5T5I/Jt36V6xTEfM37RX/I/x/8AXlH/AOhPWF8HP+Sl6H/10f8A9FtW7+0V/wAj/H/15R/+hPWF8HP+Sl6H/wBdH/8ARbUhn1tRRRTEfC1e+fsx/wDHj4g/66Q/yevA698/Zj/48fEH/XSH+T0hnttFFFMQUUUUAeJftOf8ePh//rpN/JK8R0H/AJDmnf8AXzH/AOhCvbv2nP8Ajx8P/wDXSb+SV4joP/Ic07/r5j/9CFIZ9t0UUUxBXyF8Vv8Akouvf9fJ/kK+va+Qvit/yUXXv+vk/wAhSYHdfszf8h3Wv+vZP/Qq+g6+fP2Zv+Q7rX/Xsn/oVfQdMDxT9pu0Z9M0G8GdsU0sR+rqpH/oBrwSCQwzxyr95GDD6g5r65+Kvh9vEngi/s4E33cYFxbjuXTnA9yNy/jXyGQQSCMEUhn3HZXMd5ZW91AcxTxrKh9VYZH86mrxz4EeO7e70uDw5qcyx31v8tozn/XR9QoP95emO4xjoa9jpiCgkKCWIAHJJory742eO7fRNFuNGsJlfVrtDG4U5MEbDkn0JB4Hvn0yAfPPiW9XUvEeq3ycpc3Usy/RnJH869X/AGZrRm1fW7zB2xwRxZ7ZZif/AGSvFq+qPgf4dfQfBMUlyhS71BvtLqRgqpACD8hn/gRpDPQaKKKYj47+JGj/ANheN9XsVTbEJjJEMcbH+ZQPoDj8K9M/Zv12OCDW9MupQkUai+XJ4AA2yH/0Co/2ltG8u+0rWY04lRrWUj1X5l/MFvyrx7TNSudMe4a0kKGeCS2kx3RxhhSGS+I9Uk1vXtQ1ObO+6maXB/hBPA/AYH4V9LfArRf7I8A200i4nv3N02f7p4T8NoB/GvmbQtNl1jWrHToP9bdTJCD6ZOM/h1r7WtLeO0tYbaBQkMKLGijsoGAPyoAlr5I+Luif2H4+1OFF2wXD/aovTa/Jx7Btw/CvrevE/wBpXRfMsdL1qJfmhc2sp/2W+ZfwBDf99UxDP2fvEsVr4W1y0vZMR6bm9XPXyyp3Y+hXP/Aq8N1G8l1DULq8uDumuJWlc+rMST/OpNP1K509LxLWQoLuA28uO6Egkf8AjoqGzt5by7gtrdd00zrGi+rE4A/M0hn0t+z5o/8AZ3gb7bIuJdQmaXPfYvyqPzDH8a9Nqnounx6To9lp8H+qtYUhX3CgDP6VcpiCiiigAooooAKKKKACiiigAooooAKKKKACiiigAooooAKKKKACiiigAooooAKKKKACiiigAooooAKKKKACiiigAooooAKKKKACiiigAooooAKKKKACiiigAooooAKKKKACiiigAooooAKKKKACiiigAooooAKKKKACiiigAooooAKKKKACiiigAooooAKKKKACiiigAooooAKKKKACiiigAooooAKKKKACiiigAooooAKKKKACiiigAooooAKKKKACiiigAooooAKKKKACiiigAooooAKKKKACiiigAooooAKKKKACiiigAooooAKKKKACiiigAooooAKKKKACiiigAooooAKKKKACiiigAooooAKKKKACiiigAooooAKKKKACiiigAooooAKKKKACiiigAooooAKKKKACiiigAooooAKKKKACiiigAooooAKKKKACiiigAooooAKKKKACiiigAooooAKKKKACiiigAooooAKKKKACiiigAooooAK8V/aT10w6dpuhxEg3DG5m/wB1eFH4nJ/4CK9qrmPGHgbQ/Fs1vNrEEjTQKUSSKQodp5wfUZoA+QrS3lu7qG2t0LzTOsaKOrMTgD8zX2h4X0iLQfD2n6XBgpawrGWA+838Tficn8a5vQPhd4Y0PVYdQtLWZ7mA7ozNKWCt/ex6/Wu4oAKKKKACiiigAr5R+NOgf2D47vPKTba3v+lxY6DcfmH/AH0G49CK+rq57xf4O0fxbFbprMDu1uSY3jcoy56jI7HA/KgD5v8Agzrx0Lx7YF2xb3p+ySj/AHyNp/Bgv4Zr6xrgdK+EvhXTdRt72G2uHlt3EiCWYsu4HIJHfmu+oA+Zv2iv+R/j/wCvKP8A9CesL4N/8lL0P/ro/wD6Lavovxd4B0HxXeQ3erW8puYk8sSRSFCVySAe3BJ/OoPC/wANvDnhrVV1HTbaY3aKVR5ZS+zIwSB64JH40DOyooooEfC1e+fsx/8AHj4g/wCukP8AJ66q8+D/AISuruac2txEZWLlI5yFBPoOw9q6jwn4X0rwpYPaaNA0ccj+ZIzsWZ2xjkn27Uhm3RRRTEFFFFAHiX7Tn/Hj4f8A+uk38krxHQf+Q5p3/XzH/wChCvr/AMW+FtK8V2EdprMDSRxv5iMjlWU4xwR7VzmmfCTwpp2oW95Fa3EkkDiRFlmLLuHIyO/NIZ39FFFMQV8hfFb/AJKLr3/Xyf5Cvr2uJ8RfDDwzr+rTalfW063U2DIYpioYgYzj1wB0oA8y/Zm/5Dutf9eyf+hV9B1zfg/wVovhL7QdHt3SSfAkkkcuxA6DnoK6SgArwT4yfDC4F5Pr3hu3MsUpL3VpGMsrd3QDqD3HUHnp097ooA+FxlTxkEV2WkfE7xbpVusEGrySxKMKtwiykfiwJ/WvorxN8PfDXiOR5r/TkS6brcW58tyfU44Y/UGuHvPgNpTsTZ6xexL6SxrJ/LbSGeZap8VPF+owtE+rNBG2c/Z41jP/AH0Bn9a4mR3lkaSRmd2OWZjkk+pNfQNr8BdNVwbrWryVc9I4lQ/md1dl4b+GXhfQJUmt9P8AtNyhys123msD6gfdB9wM0AeTfCL4YXGq3cGseILdodLjIkigkGGuT2JHZO/PX6V9G9OlFFMQUUUUAcV8Y9G/tr4fanGilp7ZRdx49U5P/ju4fjXyXX3QyhlKsAVIwQe9eeXPwc8IT3EkotbmIOc7I5yFX6A9qAPL/wBnbRvt3jGbUpFzFp0JIPpI+VX/AMd3/lX0pWN4W8NaV4X082ejWwhiZt7sWLM7epJ//VWzQAVz/wAQNG/4SDwbqunKu6WWEtEMf8tF+Zf1AFdBRQB8LV6B8DdG/tb4g2cjqTDYq10/HdeF/wDHip/CvatT+EnhPUL+a7ktJ4pJmLssMxVcnqQO30HFb3hHwfo3hKGdNGtmjacgySO5d2x0GT2GTwKQzoaKKKYgooooAKKKKACiiigAooooAKKKKACiiigAooooAKKKKACiiigAooooAKKKKACiiigAooooAKKKKACiiigAooooAKKKKACiiigAooooAKKKKACiiigAooooAKKKKACiiigAooooAKKKKACiiigAooooAKKKKACiiigAooooAKKKKACiiigAooooAKKKKACiiigAooooAKKKKACiiigAooooAKKKKACiiigAooooAKKKKACiiigAooooAKKKKACiiigAooooAKKKKACiiigAooooAKKKKACiiigAooooAKKKKACiiigAooooAKKKKACiiigAooooAKKKKACiiigAooooAKKKKACiiigAooooAKKKKACiiigAooooAKKKKACiiigAooooAKKKKACiiigAooooAKKKKACiiigAooooAKKKKACiiigAooooAKKKKACiiigAooooAKKKKACiiigAooooAKKKKACiiigAooooAKKKKACiiigAooooAKKKKACiiigAooooAKKKKACiiigAooooAKKKKACiiigAooooAKKKKACiiigAooooAKKKKACiiigAooooAKKKKACiiigAooooAKKKKACiiigAooooAKKKKACiiigAooooAKKKKACiiigAooooAKKKKACiiigAooooAKKKKACiiigAooooAKKKKACiiigAooooAKKKKACiiigAooooAKKKKACiiigAooooAKKKKACiiigAooooAKKKKACiiigAooooAKKKKACiiigAooooAKKKKACiiigAooooAKKKKACiiigAooooAKKKKACiiigAooooAKKKKACiiigAooooAKKKKACiiigAooooAKKKKACiiigAooooAKKKKACiiigAooooAKKKKACiiigAooooAKKKKACiiigAooooAKKKKACiiigAooooAKKKKACiiigAooooAKKKKACiiigAooooAKKKKACiiigAooooAKKKKACiiigAooooAKKKKACiiigAooooAKKKKACiiigAooooAKKKKACiiigAooooAKKKKACiiigAooooAKKKKACiiigAooooAKKKKACiiigAooooAKKKKACiiigAooooAKKKKACiiigAooooAKKKKACiiigAooooAKKKKACiiigAooooAKKKKACiiigAooooAKKKKACiiigAooooAKKKKACiiigAooooAKKKKACiiigAooooAKKKKACiiigAooooAKKKKACiiigAooooAKKKKACiiigAooooAKKKKACiiigAooooAKKKKACiiigAooooAKKKKACiiigAooooAKKKKACiiigAooooAKKKKACiiigAooooAKKKKACiiigAooooAKKKKACiiigAooooAKKKKACiiigAooooAKKKKACiiigAooooAKKKKACiiigAooooAKKKKACiiigAooooAKKKKACiiigAooooAKKKKACiiigAooooAKKKKACiiigAooooAKKKKACiiigAooooAKKKKACiiigAooooAKKKKACiiigAooooAKKKKACiiigAooooAKKKKACiiigAooooAKKKKACiiigAooooAKKKKACiiigAooooAKKKKACiiigAooooAKKKKACiiigAooooAKKKKACiiigAooooAKKKKACiiigAooooAKKKKACiiigAooooAKKKKACiiigAooooAKKKKACiiigAooooAKKKKACiiigAooooAKKKKACiiigAooooAKKKKACiiigAooooAKKKKACiiigAooooAKKKKACiiigAooooAKKKKACiiigAooooAKKKKACiiigAooooAKKKKACiiigAooooAKKKKACiiigAooooAKKKKACiiigAooooAKKKKACiiigAooooAKKKKACiiigAooooAKKKKACiiigAooooAKKKKACiiigAooooAKKKKACiiigAooooAKKKKACiiigAooooAKKKKACiiigAooooAKKKKACiiigAooooAKKKKACiiigAooooAKKKKACiiigAooooAKKKKACiiigAooooAKKKKACiiigAooooAKKKKACiiigAooooAKKKKACiiigAooooAKKKKACiiigAooooAKKKKACiiigAooooAKKKKACiiigAooooAKKKKACiiigAooooAKKKKACiiigAooooAKKKKACiiigAooooAKKKKACiiigAooooAKKKKACiiigAooooAKKKKACiiigAooooAKKKKACiiigAooooAKKKKACiiigAooooAKKKKACiiigAooooAKKKKACiiigAooooAKKKKACiiigAooooAKKKKACiiigAooooAKKKKACiiigAooooAKKKKACiiigAooooAKKKKACiiigAooooAKKKKACiiigAooooAKKKKACiiigAooooAKKKKACiiigAooooAKKKKACiiigAooooAKKKKACiiigAooooAKKKKACiiigAooooAKKKKACiiigAooooAKKKKACiiigAooooAKKKKACiiigAooooAKKKKACiiigAooooAKKKKACiiigAooooAKKKKACiiigAooooAKKKKACiiigAooooAKKKKACiiigAooooAKKKKACiiigAooooAKKKKACiiigAooooAKKKKACiiigAooooAKKKKACiiigAooooAKKKKACiiigAooooAKKKKACiiigAooooAKKKKACiiigAooooAKKKKACiiigAooooAKKKKACiiigAooooAKKKKACiiigAooooAKKKKACiiigAooooAKKKKACiiigAooooAKKKKACiiigAooooAKKKKACiiigAooooAKKKKACiiigAooooAKKKKACiiigAooooAKKKKACiiigAooooAKKKKACiiigAooooAKKKKACiiigAooooAKKKKACiiigAooooAKKKKACiiigAooooAKKKKACiiigAooooAKKKKACiiigAooooAKKKKACiiigAooooAKKKKACiiigAooooAKKKKACiiigAooooAKKKKACiiigAooooAKKKKACiiigAooooAKKKKACiiigAooooAKKKKACiiigAooooAKKKKACiiigAooooAKKKKACiiigAooooAKKKKACiiigAooooAKKKKACiiigAooooAKKKKACiiigAooooAKKKKACiiigAooooAKKKKACiiigAooooAKKKKACiiigAooooAKKKKACiiigAooooAKKKKACiiigAooooAKKKKACiiigAooooAKKKKACiiigAooooAKKKKACiiigAooooAKKKKACiiigAooooAKKKKACiiigAooooAKKKKACiiigAooooAKKKKACiiigAooooAKKKKACiiigAooooAKKKKACiiigAooooAKKKKACiiigAooooAKKKKACiiigAooooAKKKKACiiigAooooAKKKKACiiigAooooAKKKKACiiigAooooAKKKKACiiigAooooAKKKKACiiigAooooAKKKKACiiigAooooAKKKKACiiigAooooAKKKKACiiigAooooAKKKKACiiigAooooAKKKKACiiigAooooAKKKKACiiigAooooAKKKKACiiigAooooAKKKKACiiigAooooAKKKKACiiigAooooAKKKKACiiigAooooAKKKKACiiigAooooAKKKKACiiigAooooAKKKKACiiigAooooAKKKKACiiigAooooAKKKKACiiigAooooAKKKKACiiigAooooAKKKKACiiigAooooAKKKKACiiigAooooAKKKKACiiigAooooAKKKKACiiigAooooAKKKKACiiigAooooAKKKKACiiigAooooAKKKKACiiigAooooAKKKKACiiigAooooAKKKKACiiigAooooAKKKKACiiigAooooAKKKKACiiigAooooAKKKKACiiigAooooAKKKKACiiigAooooAKKKKACiiigAooooAKKKKACiiigAooooAKKKKACiiigAooooAKKKKACiiigAooooAKKKKACiiigAooooAKKKKACiiigAooooAKKKKACiiigAooooAKKKKACiiigAooooAKKKKACiiigD/9k=;" vertex="1" parent="k85bz9Jub81MBLHS7Vki-21">
          <mxGeometry x="310" y="-20" width="115.19" height="60" as="geometry" />
        </mxCell>
      </root>
    </mxGraphModel>
  </diagram>
</mxfile>
